<?xml version="1.0" encoding="UTF-8" standalone="no"?>
<!-- Generator: Gravit.io -->

<svg style="isolation:isolate" viewBox="0 0 44 44" width="44pt" height="44pt" version="1.1" id="svg3" sodipodi:docname="busy.svg" xml:space="preserve" inkscape:version="1.3 (0e150ed6c4, 2023-07-21)" xmlns:inkscape="http://www.inkscape.org/namespaces/inkscape" xmlns:sodipodi="http://sodipodi.sourceforge.net/DTD/sodipodi-0.dtd" xmlns="http://www.w3.org/2000/svg" xmlns:svg="http://www.w3.org/2000/svg"><sodipodi:namedview id="namedview3" pagecolor="#ffffff" bordercolor="#666666" borderopacity="1.0" inkscape:showpageshadow="2" inkscape:pageopacity="0.0" inkscape:pagecheckerboard="0" inkscape:deskcolor="#d1d1d1" inkscape:document-units="pt" inkscape:zoom="7.30398" inkscape:cx="5.06573" inkscape:cy="31.9689" inkscape:current-layer="svg3" /><defs id="defs1"><filter id="pZsLpuEib01tEP5RZu3cE9HARYpJvcq8" x="-2.13873" y="-2.45349" width="5.27745" height="5.90698" filterUnits="objectBoundingBox" color-interpolation-filters="sRGB"><feGaussianBlur in="SourceGraphic" stdDeviation="21.46804531419514" id="feGaussianBlur1" /><feOffset dx="0" dy="0" result="pf_100_offsetBlur" id="feOffset1" /><feFlood flood-color="#FF0000" flood-opacity="0.65" id="feFlood1" /><feComposite in2="pf_100_offsetBlur" operator="in" result="pf_100_dropShadow" id="feComposite1" /><feBlend in="SourceGraphic" in2="pf_100_dropShadow" mode="normal" id="feBlend1" /></filter></defs><path id="Selection" style="isolation:isolate;fill:#e09952;fill-opacity:1;stroke:none;stroke-width:2.05098" d="M 22.0793,1.5 C 23.2912,3.509 24.4532,5.559 25.6014,7.5885 H 18.5967 C 19.7363,5.559 20.9138,3.5295 22.0793,1.5 Z M 29.6777,9.249 C 31.9307,8.6545 34.1808,8.0395 36.4451,7.486 35.8512,9.741 35.249,11.996 34.6244,14.2305 32.9738,12.57 31.2742,10.971 29.6777,9.249 Z M 7.3969,7.5885 C 9.6686,8.183 11.9413,8.7775 14.204,9.413 12.5293,11.053 10.9346,12.775 9.2173,14.3535 8.6168,12.0985 8.0072,9.8435 7.3969,7.5885 Z M 21.0502,9.618 C 25.3366,9.3105 29.7249,11.2785 32.1726,14.8455 35.9608,19.9705 34.853,27.8835 29.7881,31.7375 25.1174,35.6325 17.6264,35.284 13.3345,30.979 8.8781,26.8175 8.2923,19.3555 12.0373,14.5585 14.148,11.709 17.5195,9.8845 21.0502,9.618 Z M 1.5,21.8975 C 3.5164,20.7495 5.5153,19.54 7.5552,18.433 V 25.4235 C 5.5226,24.2755 3.471,23.148 1.5,21.8975 Z M 36.4448,18.6175 C 38.4776,19.7655 40.5284,20.893 42.5,22.1435 40.4861,23.312 38.4842,24.501 36.4448,25.6285 Z M 34.7037,29.6875 C 34.7032,29.708 36.034,34.3615 36.6034,36.4525 34.3265,35.8785 32.0644,35.243 29.7963,34.6485 31.4245,32.988 33.0705,31.348 34.7037,29.6875 Z M 9.3359,29.8515 C 11.0708,31.4095 12.699,33.111 14.3223,34.792 12.0635,35.3865 9.8115,36.0015 7.5552,36.6165 8.1286,34.3615 8.7518,32.1065 9.3359,29.8515 Z M 18.3986,36.4525 H 25.4035 C 24.2471,38.482 23.136,40.532 21.8814,42.5 20.7107,40.491 19.5282,38.482 18.3986,36.4525 Z" transform="scale(0.999998)" /></svg>
