<?xml version="1.0" encoding="UTF-8" standalone="no"?>
<svg version="1.1" id="svgmaximize" height="80" width="44" sodipodi:docname="alldesktops.svg" inkscape:version="1.2.1 (9c6d41e410, 2022-07-14)" xmlns:inkscape="http://www.inkscape.org/namespaces/inkscape" xmlns:sodipodi="http://sodipodi.sourceforge.net/DTD/sodipodi-0.dtd" xmlns="http://www.w3.org/2000/svg" xmlns:svg="http://www.w3.org/2000/svg" xmlns:rdf="http://www.w3.org/1999/02/22-rdf-syntax-ns#" xmlns:cc="http://creativecommons.org/ns#" xmlns:dc="http://purl.org/dc/elements/1.1/">
    <sodipodi:namedview id="namedview14" pagecolor="#ffffff" bordercolor="#666666" borderopacity="1.0" inkscape:showpageshadow="2" inkscape:pageopacity="0.0" inkscape:pagecheckerboard="0" inkscape:deskcolor="#d1d1d1" showgrid="true" inkscape:zoom="5.9" inkscape:cx="48.3898" inkscape:cy="57.7119" inkscape:current-layer="layer1">
        <inkscape:grid type="xygrid" id="grid7905" spacingx="22" spacingy="20" originx="0" originy="0" />
    </sodipodi:namedview>
    <defs id="defs" />
    <metadata id="metadata4433">
        <rdf:RDF>
            <cc:Work rdf:about="">
                <dc:format>image/svg+xml</dc:format>
                <dc:type rdf:resource="http://purl.org/dc/dcmitype/StillImage" />
            </cc:Work>
        </rdf:RDF>
    </metadata>
    <g transform="translate(0,-1092.65)" id="layer1" style="display:inline" inkscape:label="layer1">
        <path id="hover-inactive-center" style="display:inline;opacity:0.300076;fill:#5299e0;fill-opacity:1;stroke:none;stroke-width:0" d="M 42,1172.65 C 43,1172.65 44,1171.65 44,1170.65 V 1162.65 C 44,1157.65 39,1152.65 34.0001,1152.65 H 24.0001 C 23.0001,1152.65 22.0001,1153.65 22.0001,1154.65 V 1162.65 C 22.0001,1167.65 27.0001,1172.65 32.0001,1172.65 Z" inkscape:label="hover-inactive-center" />
        <g id="active-center" style="display:inline;fill:#5299e0;fill-opacity:1" transform="translate(-26)" inkscape:label="active-center">
            <path id="active-center-3-3-75" style="display:inline;opacity:0;fill:#5299e0;fill-opacity:1;stroke:none;stroke-width:0" d="M 46,1112.65 C 47,1112.65 48,1111.65 48,1110.65 V 1102.65 C 48,1097.65 43,1092.65 38,1092.65 H 28 C 27,1092.65 26,1093.65 26,1094.65 V 1102.65 C 26,1107.65 31,1112.65 36,1112.65 Z" inkscape:label="pathsdfdgsfsf" />
            <path id="active-center-3-3-75-5" style="display:inline;opacity:1;fill:#5299e0;fill-opacity:1;stroke:none;stroke-width:0" d="M 61.1797,-23.5547 C 57.5292,-23.5269 55.1691,-21.418 53.4648,-19.0996 51.5944,-16.4754 51.2261,-13.5872 51.0293,-10.4023 52.9465,-7.84183 55.9694,-6 59,-6 H 69 C 70,-6 71,-6.9999 71,-8 V -9.24219 C 67.9166,-10.1875 64.2059,-11.0416 61.5762,-13.3613 60.521,-14.37 59.8935,-15.963 60.4609,-17.3809 60.6322,-18.3036 61.4158,-18.7334 61.9766,-19.3496 61.9326,-18.6514 62.9523,-18.3575 63.3223,-18.9238 63.4548,-19.6119 63.5413,-19.2415 63.8223,-18.8477 64.4045,-17.9567 65.8463,-17.904 66.4375,-18.8203 66.9322,-19.5351 66.6771,-20.3802 66.2715,-21.0957 65.3559,-22.711 63.2985,-23.4407 61.9277,-23.5332 61.6727,-23.5504 61.4231,-23.5565 61.1797,-23.5547 Z" transform="translate(-23,1118.65)" inkscape:label="pathsdfgfdfgs" />
        </g>
        <g id="pressed-center" style="display:inline;fill:#5299e0;fill-opacity:1" inkscape:label="pressed-center" transform="translate(-26,40)">
            <path id="active-center-3-3-75-2" style="display:inline;opacity:1;fill:#5299e0;fill-opacity:1;stroke:none;stroke-width:0" d="M 28,0 C 27,0 26,0.996 26,2 V 10 C 26,11.9692 26.7835,13.9338 28.0293,15.5977 28.2261,12.4128 28.5944,9.52458 30.4648,6.90039 32.1691,4.58195 34.5292,2.47309 38.1797,2.44531 38.423,2.44345 38.6727,2.44958 38.9277,2.4668 40.2985,2.5593 42.3559,3.289 43.2715,4.9043 43.6771,5.6198 43.9322,6.46489 43.4375,7.17969 42.8463,8.09599 41.4045,8.04334 40.8223,7.15234 40.5413,6.75855 40.4548,6.38807 40.3223,7.07617 39.9523,7.64247 38.9326,7.34859 38.9766,6.65039 38.4158,7.26659 37.6322,7.69644 37.4609,8.61914 36.8935,10.037 37.521,11.63 38.5762,12.6387 41.2059,14.9584 44.9166,15.8125 48,16.7578 V 10 C 48,5.0005 43,0 38,0 Z M 28.0293,15.5977 C 28.2661,15.914 28.5203,16.2176 28.7891,16.5098 28.5208,16.2178 28.2659,15.9137 28.0293,15.5977 Z M 28.8106,16.5332 C 29.08,16.8246 29.3612,17.1023 29.6582,17.3652 29.3622,17.1025 29.0793,16.8242 28.8106,16.5332 Z M 29.6582,17.3652 C 30.2527,17.8914 30.8945,18.3592 31.5742,18.7461 30.8957,18.3585 30.2517,17.8919 29.6582,17.3652 Z M 47.959,18.3477 C 47.9497,18.3892 47.9323,18.4296 47.9199,18.4707 47.9323,18.4294 47.9497,18.3895 47.959,18.3477 Z M 47.8418,18.6973 C 47.8244,18.7365 47.8032,18.7741 47.7832,18.8125 47.8032,18.774 47.8244,18.7366 47.8418,18.6973 Z M 31.6816,18.8008 C 31.9686,18.9599 32.2611,19.1044 32.5586,19.2344 32.2612,19.1039 31.9684,18.9604 31.6816,18.8008 Z M 47.6621,19.0195 C 47.6357,19.059 47.6071,19.0969 47.5781,19.1348 47.6072,19.0967 47.6356,19.0592 47.6621,19.0195 Z M 47.4316,19.3066 C 47.395,19.3461 47.3576,19.385 47.3184,19.4219 47.3579,19.3847 47.3947,19.3464 47.4316,19.3066 Z M 32.8106,19.3379 C 33.0607,19.4391 33.313,19.5285 33.5684,19.6074 33.3133,19.5283 33.0603,19.4393 32.8106,19.3379 Z M 47.1602,19.5566 C 47.1169,19.5906 47.0746,19.6256 47.0293,19.6563 47.0748,19.6255 47.1168,19.5908 47.1602,19.5566 Z M 33.8906,19.7031 C 34.1371,19.7694 34.3853,19.8214 34.6348,19.8652 34.3852,19.8212 34.1372,19.7696 33.8906,19.7031 Z M 46.8379,19.7676 C 46.7951,19.7906 46.753,19.8161 46.709,19.8359 46.7532,19.816 46.7948,19.7908 46.8379,19.7676 Z M 34.9473,19.9219 C 35.2974,19.9697 35.6481,20 36,20 35.6486,20 35.2968,19.9697 34.9473,19.9219 Z" transform="translate(0,1092.65)" inkscape:label="pathsdffdg" />
        </g>
        <path id="hover-center" style="display:inline;fill:#5299e0;fill-opacity:1;stroke:none;stroke-width:0" d="M 20,1172.65 C 21,1172.65 22,1171.65 22,1170.65 V 1162.65 C 22,1157.65 17,1152.65 12,1152.65 H 2 C 1,1152.65 0,1153.65 0,1154.65 V 1162.65 C 0,1167.65 5,1172.65 10,1172.65 Z" inkscape:label="hover-center" />
        <g id="pressed-inactive-center" style="display:inline;opacity:0.3;fill:#5299e0;fill-opacity:1" inkscape:label="pressed-inactive-center" transform="translate(-4,40)">
            <path id="active-center-3-3-75-2-6" style="display:inline;opacity:1;fill:#5299e0;fill-opacity:1;stroke:none;stroke-width:0" d="M 28,0 C 27,0 26,0.996 26,2 V 10 C 26,11.9692 26.7835,13.9338 28.0293,15.5977 28.2261,12.4128 28.5944,9.52458 30.4648,6.90039 32.1691,4.58195 34.5292,2.47309 38.1797,2.44531 38.423,2.44345 38.6727,2.44958 38.9277,2.4668 40.2985,2.5593 42.3559,3.289 43.2715,4.9043 43.6771,5.6198 43.9322,6.46489 43.4375,7.17969 42.8463,8.09599 41.4045,8.04334 40.8223,7.15234 40.5413,6.75855 40.4548,6.38807 40.3223,7.07617 39.9523,7.64247 38.9326,7.34859 38.9766,6.65039 38.4158,7.26659 37.6322,7.69644 37.4609,8.61914 36.8935,10.037 37.521,11.63 38.5762,12.6387 41.2059,14.9584 44.9166,15.8125 48,16.7578 V 10 C 48,5.0005 43,0 38,0 Z M 28.0293,15.5977 C 28.2661,15.914 28.5203,16.2176 28.7891,16.5098 28.5208,16.2178 28.2659,15.9137 28.0293,15.5977 Z M 28.8106,16.5332 C 29.08,16.8246 29.3612,17.1023 29.6582,17.3652 29.3622,17.1025 29.0793,16.8242 28.8106,16.5332 Z M 29.6582,17.3652 C 30.2527,17.8914 30.8945,18.3592 31.5742,18.7461 30.8957,18.3585 30.2517,17.8919 29.6582,17.3652 Z M 47.959,18.3477 C 47.9497,18.3892 47.9323,18.4296 47.9199,18.4707 47.9323,18.4294 47.9497,18.3895 47.959,18.3477 Z M 47.8418,18.6973 C 47.8244,18.7365 47.8032,18.7741 47.7832,18.8125 47.8032,18.774 47.8244,18.7366 47.8418,18.6973 Z M 31.6816,18.8008 C 31.9686,18.9599 32.2611,19.1044 32.5586,19.2344 32.2612,19.1039 31.9684,18.9604 31.6816,18.8008 Z M 47.6621,19.0195 C 47.6357,19.059 47.6071,19.0969 47.5781,19.1348 47.6072,19.0967 47.6356,19.0592 47.6621,19.0195 Z M 47.4316,19.3066 C 47.395,19.3461 47.3576,19.385 47.3184,19.4219 47.3579,19.3847 47.3947,19.3464 47.4316,19.3066 Z M 32.8106,19.3379 C 33.0607,19.4391 33.313,19.5285 33.5684,19.6074 33.3133,19.5283 33.0603,19.4393 32.8106,19.3379 Z M 47.1602,19.5566 C 47.1169,19.5906 47.0746,19.6256 47.0293,19.6563 47.0748,19.6255 47.1168,19.5908 47.1602,19.5566 Z M 33.8906,19.7031 C 34.1371,19.7694 34.3853,19.8214 34.6348,19.8652 34.3852,19.8212 34.1372,19.7696 33.8906,19.7031 Z M 46.8379,19.7676 C 46.7951,19.7906 46.753,19.8161 46.709,19.8359 46.7532,19.816 46.7948,19.7908 46.8379,19.7676 Z M 34.9473,19.9219 C 35.2974,19.9697 35.6481,20 36,20 35.6486,20 35.2968,19.9697 34.9473,19.9219 Z" transform="translate(0,1092.65)" inkscape:label="pathdgfdfgg" />
        </g>
        <g id="deactivated-center" style="display:inline;opacity:0.6;fill:#999999;fill-opacity:1" transform="translate(-26,20)" inkscape:label="deactivated-center">
            <path id="active-center-3-3-75-53" style="display:inline;opacity:0;fill:#999999;fill-opacity:1;stroke:none;stroke-width:0" d="M 46,1112.65 C 47,1112.65 48,1111.65 48,1110.65 V 1102.65 C 48,1097.65 43,1092.65 38,1092.65 H 28 C 27,1092.65 26,1093.65 26,1094.65 V 1102.65 C 26,1107.65 31,1112.65 36,1112.65 Z" inkscape:label="pathsdfdgsfsf" />
            <path id="active-center-3-3-75-5-5" style="display:inline;opacity:1;fill:#999999;fill-opacity:1;stroke:none;stroke-width:0" d="M 61.1797,-23.5547 C 57.5292,-23.5269 55.1691,-21.418 53.4648,-19.0996 51.5944,-16.4754 51.2261,-13.5872 51.0293,-10.4023 52.9465,-7.84183 55.9694,-6 59,-6 H 69 C 70,-6 71,-6.9999 71,-8 V -9.24219 C 67.9166,-10.1875 64.2059,-11.0416 61.5762,-13.3613 60.521,-14.37 59.8935,-15.963 60.4609,-17.3809 60.6322,-18.3036 61.4158,-18.7334 61.9766,-19.3496 61.9326,-18.6514 62.9523,-18.3575 63.3223,-18.9238 63.4548,-19.6119 63.5413,-19.2415 63.8223,-18.8477 64.4045,-17.9567 65.8463,-17.904 66.4375,-18.8203 66.9322,-19.5351 66.6771,-20.3802 66.2715,-21.0957 65.3559,-22.711 63.2985,-23.4407 61.9277,-23.5332 61.6727,-23.5504 61.4231,-23.5565 61.1797,-23.5547 Z" transform="translate(-23,1118.65)" inkscape:label="pathsdfgfdfgs" />
        </g>
        <g id="inactive-center" style="display:inline;opacity:0.3;fill:#5299e0;fill-opacity:1" inkscape:label="inactive-center" transform="translate(-4)">
            <path id="active-center-3-3-75-29" style="display:inline;opacity:0;fill:#5299e0;fill-opacity:1;stroke:none;stroke-width:0" d="M 46,1112.65 C 47,1112.65 48,1111.65 48,1110.65 V 1102.65 C 48,1097.65 43,1092.65 38,1092.65 H 28 C 27,1092.65 26,1093.65 26,1094.65 V 1102.65 C 26,1107.65 31,1112.65 36,1112.65 Z" inkscape:label="pathsdfdgsfsf" />
            <path id="active-center-3-3-75-5-1" style="display:inline;opacity:1;fill:#5299e0;fill-opacity:1;stroke:none;stroke-width:0" d="M 61.1797,-23.5547 C 57.5292,-23.5269 55.1691,-21.418 53.4648,-19.0996 51.5944,-16.4754 51.2261,-13.5872 51.0293,-10.4023 52.9465,-7.84183 55.9694,-6 59,-6 H 69 C 70,-6 71,-6.9999 71,-8 V -9.24219 C 67.9166,-10.1875 64.2059,-11.0416 61.5762,-13.3613 60.521,-14.37 59.8935,-15.963 60.4609,-17.3809 60.6322,-18.3036 61.4158,-18.7334 61.9766,-19.3496 61.9326,-18.6514 62.9523,-18.3575 63.3223,-18.9238 63.4548,-19.6119 63.5413,-19.2415 63.8223,-18.8477 64.4045,-17.9567 65.8463,-17.904 66.4375,-18.8203 66.9322,-19.5351 66.6771,-20.3802 66.2715,-21.0957 65.3559,-22.711 63.2985,-23.4407 61.9277,-23.5332 61.6727,-23.5504 61.4231,-23.5565 61.1797,-23.5547 Z" transform="translate(-23,1118.65)" inkscape:label="pathsdfgfdfgs" />
        </g>
        <g id="deactivated-inactive-center" style="display:inline;opacity:0.3;fill:#999999;fill-opacity:1" transform="translate(-4,20)" inkscape:label="deactivated-inactive-center">
            <path id="active-center-3-3-75-53-7" style="display:inline;opacity:0;fill:#999999;fill-opacity:1;stroke:none;stroke-width:0" d="M 46,1112.65 C 47,1112.65 48,1111.65 48,1110.65 V 1102.65 C 48,1097.65 43,1092.65 38,1092.65 H 28 C 27,1092.65 26,1093.65 26,1094.65 V 1102.65 C 26,1107.65 31,1112.65 36,1112.65 Z" inkscape:label="pathsdfdgsfsf" />
            <path id="active-center-3-3-75-5-5-0" style="display:inline;opacity:1;fill:#999999;fill-opacity:1;stroke:none;stroke-width:0" d="M 61.1797,-23.5547 C 57.5292,-23.5269 55.1691,-21.418 53.4648,-19.0996 51.5944,-16.4754 51.2261,-13.5872 51.0293,-10.4023 52.9465,-7.84183 55.9694,-6 59,-6 H 69 C 70,-6 71,-6.9999 71,-8 V -9.24219 C 67.9166,-10.1875 64.2059,-11.0416 61.5762,-13.3613 60.521,-14.37 59.8935,-15.963 60.4609,-17.3809 60.6322,-18.3036 61.4158,-18.7334 61.9766,-19.3496 61.9326,-18.6514 62.9523,-18.3575 63.3223,-18.9238 63.4548,-19.6119 63.5413,-19.2415 63.8223,-18.8477 64.4045,-17.9567 65.8463,-17.904 66.4375,-18.8203 66.9322,-19.5351 66.6771,-20.3802 66.2715,-21.0957 65.3559,-22.711 63.2985,-23.4407 61.9277,-23.5332 61.6727,-23.5504 61.4231,-23.5565 61.1797,-23.5547 Z" transform="translate(-23,1118.65)" inkscape:label="pathsdfgfdfgs" />
        </g>
    </g>
</svg>
