<?xml version="1.0" encoding="UTF-8" standalone="no"?>
<svg version="1.1" id="svg4428" height="80" width="44" sodipodi:docname="close.svg" inkscape:version="1.2.1 (9c6d41e410, 2022-07-14)" xmlns:inkscape="http://www.inkscape.org/namespaces/inkscape" xmlns:sodipodi="http://sodipodi.sourceforge.net/DTD/sodipodi-0.dtd" xmlns="http://www.w3.org/2000/svg" xmlns:svg="http://www.w3.org/2000/svg" xmlns:rdf="http://www.w3.org/1999/02/22-rdf-syntax-ns#" xmlns:cc="http://creativecommons.org/ns#" xmlns:dc="http://purl.org/dc/elements/1.1/">
    <sodipodi:namedview id="namedview13" pagecolor="#ffffff" bordercolor="#666666" borderopacity="1.0" inkscape:showpageshadow="2" inkscape:pageopacity="0.0" inkscape:pagecheckerboard="0" inkscape:deskcolor="#d1d1d1" showgrid="true" inkscape:zoom="4" inkscape:cx="174.875" inkscape:cy="50.75" inkscape:current-layer="svg4428">
        <inkscape:grid type="xygrid" id="grid15499" spacingx="22" spacingy="20" originx="0" originy="0" />
    </sodipodi:namedview>
    <defs id="defs4430" />
    <metadata id="metadata1122">
        <rdf:RDF>
            <cc:Work rdf:about="">
                <dc:format>image/svg+xml</dc:format>
                <dc:type rdf:resource="http://purl.org/dc/dcmitype/StillImage" />
            </cc:Work>
        </rdf:RDF>
    </metadata>
    <path id="hover-inactive-center" style="display:inline;opacity:0.300224;fill:#e05252;fill-opacity:1;stroke:none;stroke-width:0" d="M 42.0001,80 C 43.0001,80 44.0001,79.0001 44.0001,78 V 70 C 44.0001,65.0005 39.0001,60 34.0001,60 H 24.0001 C 23.0001,60 22.0001,60.996 22.0001,62 V 70 C 22.0001,74.9996 27.0001,80 32.0001,80 Z" inkscape:label="hover-inactive-center" />
    <path id="hover-center" style="display:inline;fill:#e05252;fill-opacity:1;stroke:none;stroke-width:0" d="M 20,80 C 21,80 22,79.0001 22,78 V 70 C 22,65.0005 17,60 12,60 H 2 C 1,60 0,60.996 0,62 V 70 C 0,74.9996 5,80 10,80 Z" inkscape:label="hover-center" />
    <g id="active-center" transform="matrix(1,0,0,0.99987,-30.3385,-8.93962)" style="display:inline" inkscape:label="active-center">
        <path id="active-center-3-1" style="display:inline;opacity:0;fill:#e05252;fill-opacity:1;stroke:none;stroke-width:0" d="M 50.3384,28.9434 C 51.3384,28.9434 52.3384,27.9433 52.3384,26.9431 V 18.9421 C 52.3384,13.9419 47.3384,8.94076 42.3384,8.94076 H 32.3384 C 31.3384,8.94076 30.3384,9.93689 30.3384,10.941 V 18.9421 C 30.3384,23.9423 35.3384,28.9434 40.3384,28.9434 Z" />
        <path id="path839-6-9" style="display:inline;fill:#e05252;fill-opacity:1;stroke:none;stroke-width:0.810169" d="M 39.0447,10.2035 C 37.6696,12.8309 36.524,9.97113 35.4384,11.2643 35.3624,9.93641 32.2554,9.27729 31.2787,10.981 29.7446,12.7721 29.9314,16.672 33.0086,18.103 32.4635,16.4411 33.0533,16.8595 33.0533,16.8595 36.4462,18.2293 36.6762,14.596 38.3647,15.3862 39.2989,15.8117 39.333,17.0149 38.6375,17.4726 37.8624,17.7377 35.9059,18.2926 35.2318,18.7643 35.971,19.1872 34.1794,20.0806 33.8186,20.8407 34.9597,20.7306 34.4164,22.703 34.9451,23.8251 35.6119,23.1451 35.7295,24.9063 36.9792,25.433 39.3466,26.6596 41.133,26.3829 42.1263,26.5136 42.6574,26.5834 43.0228,26.3187 41.6155,27.7892 40.6861,28.362 39.9235,26.405 38.9995,27.226 38.2703,27.9431 38.4666,28.687 39.3301,28.8751 39.7,28.9557 41.3047,28.9438 42.3157,28.9413 42.5795,28.685 42.596,28.9653 43.3163,28.9329 43.9062,28.9062 44.3,28.6619 43.9386,27.7447 43.3887,27.9339 42.5008,26.9809 44.5207,26.8249 51.39,30.2056 52.08,29.0205 52.29,25.9247 52.5225,22.4963 51.8978,20.1321 50.8304,20.3554 51.1749,19.7989 51.3487,19.8349 51.6571,19.3002 51.4336,18.9213 50.9003,19.5071 51.1205,18.8587 50.8986,18.4355 50.3483,18.9913 50.3042,18.3997 49.8603,18.3666 48.6876,18.8147 48.666,17.9065 43.0411,15.962 41.9693,21.7122 39.7382,20.1108 39.4438,19.8373 41.5257,18.4279 42.3724,17.5331 42.9736,16.8978 43.9571,16.3508 44.0869,16.2438 46.5587,14.6162 46.7794,11.72 45.3105,10.0687 44.4554,9.10741 43.8162,8.99739 42.316,8.9445 40.8989,8.89455 39.4562,9.34645 39.0447,10.2035 Z M 41.408,10.1253 C 41.6567,10.108 41.9136,10.1405 42.1639,10.2269 43.1651,10.5726 43.6989,11.6714 43.3544,12.6747 43.0098,13.6779 41.9143,14.212 40.9131,13.8663 39.912,13.5207 39.3801,12.4238 39.7247,11.4205 39.9831,10.668 40.6618,10.1773 41.408,10.1253 Z M 40.9404,11.8405 C 40.8266,12.1719 41.0013,12.5351 41.332,12.6493 41.6627,12.7635 42.0248,12.586 42.1386,12.2547 42.2524,11.9233 42.0378,11.5249 41.745,11.4459 41.2819,11.3039 40.9976,11.6648 40.9404,11.8405 Z" />
    </g>
    <g id="pressed-center" transform="matrix(1,0,0,0.99987,-30.3376,31.0604)" style="display:inline" inkscape:label="pressed-center">
        <path id="active-center-3-1-7" style="display:inline;opacity:1;fill:#e05252;fill-opacity:1;stroke:none;stroke-width:0" d="M 32.3383,8.94076 C 31.3383,8.94076 30.3384,9.93689 30.3384,10.941 V 18.9421 C 30.3384,23.6022 34.6822,28.2585 39.3203,28.8711 38.4662,28.6791 38.272,27.9404 38.998,27.2263 39.922,26.4053 40.6858,28.3617 41.6151,27.7889 43.0223,26.3185 42.6558,26.5832 42.1248,26.5134 41.1315,26.3827 39.3459,26.6597 36.9786,25.4331 35.729,24.9064 35.6123,23.1455 34.9455,23.8255 34.4168,22.7034 34.9597,20.7306 33.8186,20.8407 34.1794,20.0807 35.9699,19.1871 35.2307,18.7643 35.9048,18.2925 37.8617,17.7382 38.6367,17.4731 39.3322,17.0154 39.2974,15.8124 38.3633,15.3869 36.6748,14.5967 36.4458,18.2296 33.0531,16.8598 33.0531,16.8598 32.463,16.4402 33.0081,18.1021 29.9311,16.6711 29.7437,12.7712 31.2778,10.9801 32.2544,9.27638 35.3617,9.93547 35.4377,11.2633 36.5232,9.97019 37.6698,12.8301 39.0449,10.2026 39.4564,9.34559 40.8992,8.89471 42.3162,8.94467 43.8163,8.99755 44.4551,9.10658 45.3102,10.0679 46.779,11.7192 46.5573,14.6169 44.0856,16.2444 43.9558,16.3514 42.972,16.8984 42.3709,17.5337 41.5242,18.4284 39.4438,19.8367 39.7382,20.1102 41.9692,21.7116 43.0408,15.9622 48.6654,17.9068 48.687,18.8149 49.8601,18.366 50.304,18.399 50.3481,18.9907 50.8965,18.4348 51.1184,18.8581 50.8982,19.5064 51.432,18.9207 51.6555,19.2995 51.3471,19.8342 51.1739,19.7998 50.8294,20.3563 51.7633,20.1609 52.3587,21.9466 52.3371,24.6928 V 18.9421 C 52.3371,13.9419 47.3374,8.94076 42.3377,8.94076 Z M 52.3371,24.6928 C 52.334,25.0851 52.3173,25.4968 52.2883,25.9254 52.2104,27.0736 52.0663,27.9562 51.5656,28.4433 52.0182,28.0588 52.3371,27.504 52.3371,26.9431 Z M 51.5657,28.4433 C 51.5462,28.4598 51.527,28.4763 51.5071,28.4921 51.5262,28.4755 51.5475,28.461 51.5657,28.4433 Z M 51.5071,28.4921 C 51.4479,28.5435 51.3825,28.5878 51.3137,28.6289 51.3804,28.5863 51.4446,28.5418 51.5071,28.4921 Z M 51.3137,28.6289 C 51.2852,28.647 51.2569,28.6648 51.2278,28.6816 51.2583,28.6663 51.285,28.646 51.3137,28.6289 Z M 51.2278,28.6816 C 50.2505,29.1713 48.3428,28.7058 44.5192,26.8239 42.4995,26.98 43.3873,27.9332 43.9372,27.744 44.2986,28.6612 43.906,28.9069 43.3161,28.9336 42.5959,28.9661 42.578,28.6852 42.3142,28.9414 41.3073,28.9439 39.7178,28.9545 39.3398,28.875 39.6718,28.918 40.0043,28.9434 40.3378,28.9434 H 50.3372 C 50.6448,28.9434 50.9493,28.8417 51.2278,28.6816 Z M 39.3398,28.875 C 39.3332,28.8741 39.3268,28.872 39.3203,28.8711 39.324,28.8719 39.3264,28.8742 39.3301,28.875 39.3315,28.8753 39.3384,28.8747 39.3399,28.875 Z M 41.408,10.1245 C 40.6619,10.1764 39.9829,10.6671 39.7245,11.4196 39.3801,12.4228 39.9109,13.5215 40.912,13.8672 41.9131,14.2128 43.0087,13.6788 43.3532,12.6756 43.6978,11.6723 43.165,10.5717 42.1639,10.2261 41.9136,10.1397 41.6567,10.1072 41.408,10.1245 Z M 41.4315,11.4235 C 41.5241,11.4069 41.6282,11.4095 41.744,11.445 42.0367,11.5239 42.2522,11.9243 42.1385,12.2556 42.0247,12.587 41.6626,12.7644 41.3319,12.6502 41.0012,12.536 40.8255,12.1709 40.9393,11.8396 40.9822,11.7077 41.1535,11.4733 41.4315,11.4235 Z" />
    </g>
    <g id="deactivated-center" transform="matrix(1,0,0,0.99987,-30.3385,11.0604)" style="display:inline" inkscape:label="deactivated-center">
        <path id="active-center-3-1-9" style="display:inline;opacity:0;fill:#e05252;fill-opacity:1;stroke:none;stroke-width:0" d="M 50.3384,28.9434 C 51.3384,28.9434 52.3384,27.9433 52.3384,26.9431 V 18.9421 C 52.3384,13.9419 47.3384,8.94076 42.3384,8.94076 H 32.3384 C 31.3384,8.94076 30.3384,9.93689 30.3384,10.941 V 18.9421 C 30.3384,23.9423 35.3384,28.9434 40.3384,28.9434 Z" />
        <path id="path839-6-9-2" style="display:inline;fill:#999999;fill-opacity:1;stroke:none;stroke-width:0.810169;opacity:0.6" d="M 39.0447,10.2035 C 37.6696,12.8309 36.524,9.97113 35.4384,11.2643 35.3624,9.93641 32.2554,9.27729 31.2787,10.981 29.7446,12.7721 29.9314,16.672 33.0086,18.103 32.4635,16.4411 33.0533,16.8595 33.0533,16.8595 36.4462,18.2293 36.6762,14.596 38.3647,15.3862 39.2989,15.8117 39.333,17.0149 38.6375,17.4726 37.8624,17.7377 35.9059,18.2926 35.2318,18.7643 35.971,19.1872 34.1794,20.0806 33.8186,20.8407 34.9597,20.7306 34.4164,22.703 34.9451,23.8251 35.6119,23.1451 35.7295,24.9063 36.9792,25.433 39.3466,26.6596 41.133,26.3829 42.1263,26.5136 42.6574,26.5834 43.0228,26.3187 41.6155,27.7892 40.6861,28.362 39.9235,26.405 38.9995,27.226 38.2703,27.9431 38.4666,28.687 39.3301,28.8751 39.7,28.9557 41.3047,28.9438 42.3157,28.9413 42.5795,28.685 42.596,28.9653 43.3163,28.9329 43.9062,28.9062 44.3,28.6619 43.9386,27.7447 43.3887,27.9339 42.5008,26.9809 44.5207,26.8249 51.39,30.2056 52.08,29.0205 52.29,25.9247 52.5225,22.4963 51.8978,20.1321 50.8304,20.3554 51.1749,19.7989 51.3487,19.8349 51.6571,19.3002 51.4336,18.9213 50.9003,19.5071 51.1205,18.8587 50.8986,18.4355 50.3483,18.9913 50.3042,18.3997 49.8603,18.3666 48.6876,18.8147 48.666,17.9065 43.0411,15.962 41.9693,21.7122 39.7382,20.1108 39.4438,19.8373 41.5257,18.4279 42.3724,17.5331 42.9736,16.8978 43.9571,16.3508 44.0869,16.2438 46.5587,14.6162 46.7794,11.72 45.3105,10.0687 44.4554,9.10741 43.8162,8.99739 42.316,8.9445 40.8989,8.89455 39.4562,9.34645 39.0447,10.2035 Z M 41.408,10.1253 C 41.6567,10.108 41.9136,10.1405 42.1639,10.2269 43.1651,10.5726 43.6989,11.6714 43.3544,12.6747 43.0098,13.6779 41.9143,14.212 40.9131,13.8663 39.912,13.5207 39.3801,12.4238 39.7247,11.4205 39.9831,10.668 40.6618,10.1773 41.408,10.1253 Z M 40.9404,11.8405 C 40.8266,12.1719 41.0013,12.5351 41.332,12.6493 41.6627,12.7635 42.0248,12.586 42.1386,12.2547 42.2524,11.9233 42.0378,11.5249 41.745,11.4459 41.2819,11.3039 40.9976,11.6648 40.9404,11.8405 Z" />
    </g>
    <g id="inactive-center" transform="matrix(1,0,0,0.99987,-8.33846,-8.93962)" style="display:inline;opacity:0.3" inkscape:label="inactive-center">
        <path id="active-center-3-1-2" style="display:inline;opacity:0;fill:#e05252;fill-opacity:1;stroke:none;stroke-width:0" d="M 50.3384,28.9434 C 51.3384,28.9434 52.3384,27.9433 52.3384,26.9431 V 18.9421 C 52.3384,13.9419 47.3384,8.94076 42.3384,8.94076 H 32.3384 C 31.3384,8.94076 30.3384,9.93689 30.3384,10.941 V 18.9421 C 30.3384,23.9423 35.3384,28.9434 40.3384,28.9434 Z" />
        <path id="path839-6-9-3" style="display:inline;fill:#e05252;fill-opacity:1;stroke:none;stroke-width:0.810169" d="M 39.0447,10.2035 C 37.6696,12.8309 36.524,9.97113 35.4384,11.2643 35.3624,9.93641 32.2554,9.27729 31.2787,10.981 29.7446,12.7721 29.9314,16.672 33.0086,18.103 32.4635,16.4411 33.0533,16.8595 33.0533,16.8595 36.4462,18.2293 36.6762,14.596 38.3647,15.3862 39.2989,15.8117 39.333,17.0149 38.6375,17.4726 37.8624,17.7377 35.9059,18.2926 35.2318,18.7643 35.971,19.1872 34.1794,20.0806 33.8186,20.8407 34.9597,20.7306 34.4164,22.703 34.9451,23.8251 35.6119,23.1451 35.7295,24.9063 36.9792,25.433 39.3466,26.6596 41.133,26.3829 42.1263,26.5136 42.6574,26.5834 43.0228,26.3187 41.6155,27.7892 40.6861,28.362 39.9235,26.405 38.9995,27.226 38.2703,27.9431 38.4666,28.687 39.3301,28.8751 39.7,28.9557 41.3047,28.9438 42.3157,28.9413 42.5795,28.685 42.596,28.9653 43.3163,28.9329 43.9062,28.9062 44.3,28.6619 43.9386,27.7447 43.3887,27.9339 42.5008,26.9809 44.5207,26.8249 51.39,30.2056 52.08,29.0205 52.29,25.9247 52.5225,22.4963 51.8978,20.1321 50.8304,20.3554 51.1749,19.7989 51.3487,19.8349 51.6571,19.3002 51.4336,18.9213 50.9003,19.5071 51.1205,18.8587 50.8986,18.4355 50.3483,18.9913 50.3042,18.3997 49.8603,18.3666 48.6876,18.8147 48.666,17.9065 43.0411,15.962 41.9693,21.7122 39.7382,20.1108 39.4438,19.8373 41.5257,18.4279 42.3724,17.5331 42.9736,16.8978 43.9571,16.3508 44.0869,16.2438 46.5587,14.6162 46.7794,11.72 45.3105,10.0687 44.4554,9.10741 43.8162,8.99739 42.316,8.9445 40.8989,8.89455 39.4562,9.34645 39.0447,10.2035 Z M 41.408,10.1253 C 41.6567,10.108 41.9136,10.1405 42.1639,10.2269 43.1651,10.5726 43.6989,11.6714 43.3544,12.6747 43.0098,13.6779 41.9143,14.212 40.9131,13.8663 39.912,13.5207 39.3801,12.4238 39.7247,11.4205 39.9831,10.668 40.6618,10.1773 41.408,10.1253 Z M 40.9404,11.8405 C 40.8266,12.1719 41.0013,12.5351 41.332,12.6493 41.6627,12.7635 42.0248,12.586 42.1386,12.2547 42.2524,11.9233 42.0378,11.5249 41.745,11.4459 41.2819,11.3039 40.9976,11.6648 40.9404,11.8405 Z" />
    </g>
    <g id="pressed-inactive-center" transform="matrix(1,0,0,0.99987,-8.33756,31.0604)" style="display:inline;opacity:0.3" inkscape:label="pressed-inactive-center">
        <path id="active-center-3-1-7-5" style="display:inline;opacity:1;fill:#e05252;fill-opacity:1;stroke:none;stroke-width:0" d="M 32.3383,8.94076 C 31.3383,8.94076 30.3384,9.93689 30.3384,10.941 V 18.9421 C 30.3384,23.6022 34.6822,28.2585 39.3203,28.8711 38.4662,28.6791 38.272,27.9404 38.998,27.2263 39.922,26.4053 40.6858,28.3617 41.6151,27.7889 43.0223,26.3185 42.6558,26.5832 42.1248,26.5134 41.1315,26.3827 39.3459,26.6597 36.9786,25.4331 35.729,24.9064 35.6123,23.1455 34.9455,23.8255 34.4168,22.7034 34.9597,20.7306 33.8186,20.8407 34.1794,20.0807 35.9699,19.1871 35.2307,18.7643 35.9048,18.2925 37.8617,17.7382 38.6367,17.4731 39.3322,17.0154 39.2974,15.8124 38.3633,15.3869 36.6748,14.5967 36.4458,18.2296 33.0531,16.8598 33.0531,16.8598 32.463,16.4402 33.0081,18.1021 29.9311,16.6711 29.7437,12.7712 31.2778,10.9801 32.2544,9.27638 35.3617,9.93547 35.4377,11.2633 36.5232,9.97019 37.6698,12.8301 39.0449,10.2026 39.4564,9.34559 40.8992,8.89471 42.3162,8.94467 43.8163,8.99755 44.4551,9.10658 45.3102,10.0679 46.779,11.7192 46.5573,14.6169 44.0856,16.2444 43.9558,16.3514 42.972,16.8984 42.3709,17.5337 41.5242,18.4284 39.4438,19.8367 39.7382,20.1102 41.9692,21.7116 43.0408,15.9622 48.6654,17.9068 48.687,18.8149 49.8601,18.366 50.304,18.399 50.3481,18.9907 50.8965,18.4348 51.1184,18.8581 50.8982,19.5064 51.432,18.9207 51.6555,19.2995 51.3471,19.8342 51.1739,19.7998 50.8294,20.3563 51.7633,20.1609 52.3587,21.9466 52.3371,24.6928 V 18.9421 C 52.3371,13.9419 47.3374,8.94076 42.3377,8.94076 Z M 52.3371,24.6928 C 52.334,25.0851 52.3173,25.4968 52.2883,25.9254 52.2104,27.0736 52.0663,27.9562 51.5656,28.4433 52.0182,28.0588 52.3371,27.504 52.3371,26.9431 Z M 51.5657,28.4433 C 51.5462,28.4598 51.527,28.4763 51.5071,28.4921 51.5262,28.4755 51.5475,28.461 51.5657,28.4433 Z M 51.5071,28.4921 C 51.4479,28.5435 51.3825,28.5878 51.3137,28.6289 51.3804,28.5863 51.4446,28.5418 51.5071,28.4921 Z M 51.3137,28.6289 C 51.2852,28.647 51.2569,28.6648 51.2278,28.6816 51.2583,28.6663 51.285,28.646 51.3137,28.6289 Z M 51.2278,28.6816 C 50.2505,29.1713 48.3428,28.7058 44.5192,26.8239 42.4995,26.98 43.3873,27.9332 43.9372,27.744 44.2986,28.6612 43.906,28.9069 43.3161,28.9336 42.5959,28.9661 42.578,28.6852 42.3142,28.9414 41.3073,28.9439 39.7178,28.9545 39.3398,28.875 39.6718,28.918 40.0043,28.9434 40.3378,28.9434 H 50.3372 C 50.6448,28.9434 50.9493,28.8417 51.2278,28.6816 Z M 39.3398,28.875 C 39.3332,28.8741 39.3268,28.872 39.3203,28.8711 39.324,28.8719 39.3264,28.8742 39.3301,28.875 39.3315,28.8753 39.3384,28.8747 39.3399,28.875 Z M 41.408,10.1245 C 40.6619,10.1764 39.9829,10.6671 39.7245,11.4196 39.3801,12.4228 39.9109,13.5215 40.912,13.8672 41.9131,14.2128 43.0087,13.6788 43.3532,12.6756 43.6978,11.6723 43.165,10.5717 42.1639,10.2261 41.9136,10.1397 41.6567,10.1072 41.408,10.1245 Z M 41.4315,11.4235 C 41.5241,11.4069 41.6282,11.4095 41.744,11.445 42.0367,11.5239 42.2522,11.9243 42.1385,12.2556 42.0247,12.587 41.6626,12.7644 41.3319,12.6502 41.0012,12.536 40.8255,12.1709 40.9393,11.8396 40.9822,11.7077 41.1535,11.4733 41.4315,11.4235 Z" />
    </g>
    <g id="deactivated-inactive-center" transform="matrix(1,0,0,0.99987,-8.33846,11.0604)" style="display:inline" inkscape:label="deactivated-inactive-center">
        <path id="active-center-3-1-9-2" style="display:inline;opacity:0;fill:#e05252;fill-opacity:1;stroke:none;stroke-width:0" d="M 50.3384,28.9434 C 51.3384,28.9434 52.3384,27.9433 52.3384,26.9431 V 18.9421 C 52.3384,13.9419 47.3384,8.94076 42.3384,8.94076 H 32.3384 C 31.3384,8.94076 30.3384,9.93689 30.3384,10.941 V 18.9421 C 30.3384,23.9423 35.3384,28.9434 40.3384,28.9434 Z" />
        <path id="path839-6-9-2-2" style="display:inline;fill:#999999;fill-opacity:1;stroke:none;stroke-width:0.810169;opacity:0.3" d="M 39.0447,10.2035 C 37.6696,12.8309 36.524,9.97113 35.4384,11.2643 35.3624,9.93641 32.2554,9.27729 31.2787,10.981 29.7446,12.7721 29.9314,16.672 33.0086,18.103 32.4635,16.4411 33.0533,16.8595 33.0533,16.8595 36.4462,18.2293 36.6762,14.596 38.3647,15.3862 39.2989,15.8117 39.333,17.0149 38.6375,17.4726 37.8624,17.7377 35.9059,18.2926 35.2318,18.7643 35.971,19.1872 34.1794,20.0806 33.8186,20.8407 34.9597,20.7306 34.4164,22.703 34.9451,23.8251 35.6119,23.1451 35.7295,24.9063 36.9792,25.433 39.3466,26.6596 41.133,26.3829 42.1263,26.5136 42.6574,26.5834 43.0228,26.3187 41.6155,27.7892 40.6861,28.362 39.9235,26.405 38.9995,27.226 38.2703,27.9431 38.4666,28.687 39.3301,28.8751 39.7,28.9557 41.3047,28.9438 42.3157,28.9413 42.5795,28.685 42.596,28.9653 43.3163,28.9329 43.9062,28.9062 44.3,28.6619 43.9386,27.7447 43.3887,27.9339 42.5008,26.9809 44.5207,26.8249 51.39,30.2056 52.08,29.0205 52.29,25.9247 52.5225,22.4963 51.8978,20.1321 50.8304,20.3554 51.1749,19.7989 51.3487,19.8349 51.6571,19.3002 51.4336,18.9213 50.9003,19.5071 51.1205,18.8587 50.8986,18.4355 50.3483,18.9913 50.3042,18.3997 49.8603,18.3666 48.6876,18.8147 48.666,17.9065 43.0411,15.962 41.9693,21.7122 39.7382,20.1108 39.4438,19.8373 41.5257,18.4279 42.3724,17.5331 42.9736,16.8978 43.9571,16.3508 44.0869,16.2438 46.5587,14.6162 46.7794,11.72 45.3105,10.0687 44.4554,9.10741 43.8162,8.99739 42.316,8.9445 40.8989,8.89455 39.4562,9.34645 39.0447,10.2035 Z M 41.408,10.1253 C 41.6567,10.108 41.9136,10.1405 42.1639,10.2269 43.1651,10.5726 43.6989,11.6714 43.3544,12.6747 43.0098,13.6779 41.9143,14.212 40.9131,13.8663 39.912,13.5207 39.3801,12.4238 39.7247,11.4205 39.9831,10.668 40.6618,10.1773 41.408,10.1253 Z M 40.9404,11.8405 C 40.8266,12.1719 41.0013,12.5351 41.332,12.6493 41.6627,12.7635 42.0248,12.586 42.1386,12.2547 42.2524,11.9233 42.0378,11.5249 41.745,11.4459 41.2819,11.3039 40.9976,11.6648 40.9404,11.8405 Z" />
    </g>
</svg>
