<?xml version="1.0" encoding="UTF-8" standalone="no"?>
<svg version="1.1" id="svgmaximize" height="80" width="44" sodipodi:docname="keepabove.svg" inkscape:version="1.2.1 (9c6d41e410, 2022-07-14)" xmlns:inkscape="http://www.inkscape.org/namespaces/inkscape" xmlns:sodipodi="http://sodipodi.sourceforge.net/DTD/sodipodi-0.dtd" xmlns="http://www.w3.org/2000/svg" xmlns:svg="http://www.w3.org/2000/svg" xmlns:rdf="http://www.w3.org/1999/02/22-rdf-syntax-ns#" xmlns:cc="http://creativecommons.org/ns#" xmlns:dc="http://purl.org/dc/elements/1.1/">
    <sodipodi:namedview id="namedview14" pagecolor="#ffffff" bordercolor="#666666" borderopacity="1.0" inkscape:showpageshadow="2" inkscape:pageopacity="0.0" inkscape:pagecheckerboard="0" inkscape:deskcolor="#d1d1d1" showgrid="true" inkscape:zoom="4.17193" inkscape:cx="147.054" inkscape:cy="59.0854" inkscape:current-layer="svgmaximize">
        <inkscape:grid type="xygrid" id="grid120" spacingx="22" spacingy="20" originx="0" originy="0" />
    </sodipodi:namedview>
    <defs id="defs" />
    <metadata id="metadata4433">
        <rdf:RDF>
            <cc:Work rdf:about="">
                <dc:format>image/svg+xml</dc:format>
                <dc:type rdf:resource="http://purl.org/dc/dcmitype/StillImage" />
            </cc:Work>
        </rdf:RDF>
    </metadata>
    <path id="hover-inactive-center" style="display:inline;opacity:0.300099;fill:#e09952;fill-opacity:1;stroke:none;stroke-width:0" d="M 42,80 C 43,80 44,79 44,78 V 70 C 44,65 39,60 34,60 H 24 C 23,60 22,61 22,62 V 70 C 22,75 27,80 32,80 Z" inkscape:label="hover-inactive-center" />
    <g id="active-center" style="fill:#e09952;fill-opacity:1" transform="translate(-58.9904,-1066.65)">
        <path id="path-3-3" style="display:inline;opacity:0;fill:#e09952;fill-opacity:1;stroke:none;stroke-width:0" d="M 78.9904,1086.65 C 79.9904,1086.65 80.9904,1085.65 80.9904,1084.65 V 1076.65 C 80.9904,1071.65 75.9904,1066.65 70.9904,1066.65 H 60.9904 C 59.9904,1066.65 58.9904,1067.65 58.9904,1068.65 V 1076.65 C 58.9904,1081.65 63.9904,1086.65 68.9904,1086.65 Z" />
        <path id="Selection" style="fill:#e09952;fill-opacity:1;stroke:none;stroke-width:1.00048" d="M 70.0387,1066.65 C 70.6298,1067.63 71.1967,1068.63 71.7568,1069.62 H 68.3398 C 68.8957,1068.63 69.4701,1067.64 70.0387,1066.65 Z M 73.7452,1070.43 C 74.8443,1070.14 75.9419,1069.84 77.0464,1069.57 76.7567,1070.67 76.4629,1071.77 76.1583,1072.86 75.3531,1072.05 74.524,1071.27 73.7452,1070.43 Z M 62.8765,1069.62 C 63.9846,1069.91 65.0933,1070.2 66.197,1070.51 65.3801,1071.31 64.6023,1072.15 63.7645,1072.92 63.4716,1071.82 63.1742,1070.72 62.8765,1069.62 Z M 69.5367,1070.61 C 71.6276,1070.46 73.7683,1071.42 74.9622,1073.16 76.8102,1075.66 76.2697,1079.52 73.7991,1081.4 71.5206,1083.3 67.8665,1083.13 65.773,1081.03 63.5991,1079 63.3133,1075.36 65.1401,1073.02 66.1698,1071.63 67.8144,1070.74 69.5367,1070.61 Z M 60,1076.6 C 60.9836,1076.04 61.9587,1075.45 62.9537,1074.91 V 1078.32 C 61.9622,1077.76 60.9615,1077.21 60,1076.6 Z M 77.0463,1075 C 78.0378,1075.56 79.0383,1076.11 80,1076.72 79.0176,1077.29 78.0411,1077.87 77.0463,1078.42 Z M 76.1969,1080.4 C 76.1967,1080.41 76.8459,1082.68 77.1236,1083.7 76.0129,1083.42 74.9095,1083.11 73.8031,1082.82 74.5974,1082.01 75.4002,1081.21 76.1969,1080.4 Z M 63.8224,1080.48 C 64.6687,1081.24 65.4629,1082.07 66.2548,1082.89 65.1529,1083.18 64.0544,1083.48 62.9537,1083.78 63.2335,1082.68 63.5375,1081.58 63.8224,1080.48 Z M 68.2432,1083.7 H 71.6602 C 71.0962,1084.69 70.5541,1085.69 69.9421,1086.65 69.3711,1085.67 68.7942,1084.69 68.2432,1083.7 Z" />
    </g>
    <g id="pressed-center" style="display:inline;fill:#e09952;fill-opacity:1" transform="translate(-26,-1052.65)">
        <path id="path-3-3-6" style="display:inline;opacity:1;fill:#e09952;fill-opacity:1;stroke:none;stroke-width:0" d="M 54,0 C 53,0 52,0.996 52,2 V 10 C 52,14.9996 57,20 62,20 H 62.9512 C 62.3802,19.0192 61.8029,18.0409 61.252,17.0488 H 64.6699 C 64.1058,18.0371 63.5632,19.0406 62.9512,20 H 72 C 73,20 74,19.0001 74,18 V 10 C 74,5.0005 69,0 64,0 H 63.0488 C 63.64,0.9791 64.2055,1.9735 64.7656,2.9707 H 61.3496 C 61.9055,1.9747 62.4803,0.9888 63.0488,0 Z M 70.0566,2.91211 C 69.7669,4.01311 69.4725,5.11394 69.168,6.21094 68.3627,5.40234 67.5326,4.61515 66.7539,3.78125 67.8529,3.48685 68.9521,3.18551 70.0566,2.91211 Z M 55.8867,2.9707 C 56.9948,3.2616 58.1034,3.54992 59.207,3.85742 58.3902,4.65472 57.6112,5.49268 56.7734,6.26758 56.4805,5.16738 56.1845,4.0696 55.8867,2.9707 Z M 63.3301,3.95313 C 65.1569,4.05982 66.928,4.98461 67.9727,6.50781 69.8207,9.00231 69.2793,12.8633 66.8086,14.748 64.5301,16.6448 60.8767,16.4764 58.7832,14.375 56.6093,12.3516 56.3236,8.70559 58.1504,6.36719 59.1801,4.97739 60.8245,4.08753 62.5469,3.95703 62.8082,3.93821 63.0691,3.93788 63.3301,3.95312 Z M 55.9629,8.25391 V 11.668 C 54.9715,11.1092 53.9713,10.5596 53.0098,9.95117 53.9934,9.38387 54.9679,8.80101 55.9629,8.25391 Z M 70.0566,8.35156 C 71.0481,8.91096 72.0481,9.45926 73.0098,10.0684 72.0274,10.6378 71.0514,11.2179 70.0566,11.7656 Z M 69.207,13.752 C 69.2069,13.762 69.8552,16.0255 70.1328,17.0488 69.0221,16.7678 67.9189,16.4593 66.8125,16.1621 67.6068,15.3552 68.4103,14.5553 69.207,13.752 Z M 56.832,13.8281 C 57.6783,14.5869 58.4718,15.4197 59.2637,16.2383 58.1618,16.5282 57.0636,16.8307 55.9629,17.125 56.2428,16.0234 56.5471,14.9284 56.832,13.8281 Z" transform="translate(-26,1092.65)" />
    </g>
    <g id="pressed-inactive-center" style="display:inline;fill:#e09952;fill-opacity:1;opacity:0.3" transform="translate(-4,-1052.65)" inkscape:label="pressed-inactive-center">
        <path id="path-3-3-6-5" style="display:inline;opacity:1;fill:#e09952;fill-opacity:1;stroke:none;stroke-width:0" d="M 54,0 C 53,0 52,0.996 52,2 V 10 C 52,14.9996 57,20 62,20 H 62.9512 C 62.3802,19.0192 61.8029,18.0409 61.252,17.0488 H 64.6699 C 64.1058,18.0371 63.5632,19.0406 62.9512,20 H 72 C 73,20 74,19.0001 74,18 V 10 C 74,5.0005 69,0 64,0 H 63.0488 C 63.64,0.9791 64.2055,1.9735 64.7656,2.9707 H 61.3496 C 61.9055,1.9747 62.4803,0.9888 63.0488,0 Z M 70.0566,2.91211 C 69.7669,4.01311 69.4725,5.11394 69.168,6.21094 68.3627,5.40234 67.5326,4.61515 66.7539,3.78125 67.8529,3.48685 68.9521,3.18551 70.0566,2.91211 Z M 55.8867,2.9707 C 56.9948,3.2616 58.1034,3.54992 59.207,3.85742 58.3902,4.65472 57.6112,5.49268 56.7734,6.26758 56.4805,5.16738 56.1845,4.0696 55.8867,2.9707 Z M 63.3301,3.95313 C 65.1569,4.05982 66.928,4.98461 67.9727,6.50781 69.8207,9.00231 69.2793,12.8633 66.8086,14.748 64.5301,16.6448 60.8767,16.4764 58.7832,14.375 56.6093,12.3516 56.3236,8.70559 58.1504,6.36719 59.1801,4.97739 60.8245,4.08753 62.5469,3.95703 62.8082,3.93821 63.0691,3.93788 63.3301,3.95312 Z M 55.9629,8.25391 V 11.668 C 54.9715,11.1092 53.9713,10.5596 53.0098,9.95117 53.9934,9.38387 54.9679,8.80101 55.9629,8.25391 Z M 70.0566,8.35156 C 71.0481,8.91096 72.0481,9.45926 73.0098,10.0684 72.0274,10.6378 71.0514,11.2179 70.0566,11.7656 Z M 69.207,13.752 C 69.2069,13.762 69.8552,16.0255 70.1328,17.0488 69.0221,16.7678 67.9189,16.4593 66.8125,16.1621 67.6068,15.3552 68.4103,14.5553 69.207,13.752 Z M 56.832,13.8281 C 57.6783,14.5869 58.4718,15.4197 59.2637,16.2383 58.1618,16.5282 57.0636,16.8307 55.9629,17.125 56.2428,16.0234 56.5471,14.9284 56.832,13.8281 Z" transform="translate(-26,1092.65)" />
    </g>
    <path id="hover-center" style="display:inline;fill:#e09952;fill-opacity:1;stroke:none;stroke-width:0" d="M 20,80 C 21,80 22,79 22,78 V 70 C 22,65 17,60 12,60 H 2 C 1,60 0,61 0,62 V 70 C 0,75 5,80 10,80 Z" />
    <g id="inactive-center" style="opacity:0.3;fill:#e09952;fill-opacity:1" transform="translate(-36.9904,-1066.65)" inkscape:label="inactive-center">
        <path id="path-3-3-67" style="display:inline;opacity:0;fill:#e09952;fill-opacity:1;stroke:none;stroke-width:0" d="M 78.9904,1086.65 C 79.9904,1086.65 80.9904,1085.65 80.9904,1084.65 V 1076.65 C 80.9904,1071.65 75.9904,1066.65 70.9904,1066.65 H 60.9904 C 59.9904,1066.65 58.9904,1067.65 58.9904,1068.65 V 1076.65 C 58.9904,1081.65 63.9904,1086.65 68.9904,1086.65 Z" />
        <path id="Selection-5" style="fill:#e09952;fill-opacity:1;stroke:none;stroke-width:1.00048" d="M 70.0387,1066.65 C 70.6298,1067.63 71.1967,1068.63 71.7568,1069.62 H 68.3398 C 68.8957,1068.63 69.4701,1067.64 70.0387,1066.65 Z M 73.7452,1070.43 C 74.8443,1070.14 75.9419,1069.84 77.0464,1069.57 76.7567,1070.67 76.4629,1071.77 76.1583,1072.86 75.3531,1072.05 74.524,1071.27 73.7452,1070.43 Z M 62.8765,1069.62 C 63.9846,1069.91 65.0933,1070.2 66.197,1070.51 65.3801,1071.31 64.6023,1072.15 63.7645,1072.92 63.4716,1071.82 63.1742,1070.72 62.8765,1069.62 Z M 69.5367,1070.61 C 71.6276,1070.46 73.7683,1071.42 74.9622,1073.16 76.8102,1075.66 76.2697,1079.52 73.7991,1081.4 71.5206,1083.3 67.8665,1083.13 65.773,1081.03 63.5991,1079 63.3133,1075.36 65.1401,1073.02 66.1698,1071.63 67.8144,1070.74 69.5367,1070.61 Z M 60,1076.6 C 60.9836,1076.04 61.9587,1075.45 62.9537,1074.91 V 1078.32 C 61.9622,1077.76 60.9615,1077.21 60,1076.6 Z M 77.0463,1075 C 78.0378,1075.56 79.0383,1076.11 80,1076.72 79.0176,1077.29 78.0411,1077.87 77.0463,1078.42 Z M 76.1969,1080.4 C 76.1967,1080.41 76.8459,1082.68 77.1236,1083.7 76.0129,1083.42 74.9095,1083.11 73.8031,1082.82 74.5974,1082.01 75.4002,1081.21 76.1969,1080.4 Z M 63.8224,1080.48 C 64.6687,1081.24 65.4629,1082.07 66.2548,1082.89 65.1529,1083.18 64.0544,1083.48 62.9537,1083.78 63.2335,1082.68 63.5375,1081.58 63.8224,1080.48 Z M 68.2432,1083.7 H 71.6602 C 71.0962,1084.69 70.5541,1085.69 69.9421,1086.65 69.3711,1085.67 68.7942,1084.69 68.2432,1083.7 Z" />
    </g>
    <g id="deactivated-center" style="fill:#999999;fill-opacity:1;opacity:0.6" transform="translate(-58.9904,-1046.65)" inkscape:label="deactivated-center">
        <path id="path-3-3-2" style="display:inline;opacity:0;fill:#999999;fill-opacity:1;stroke:none;stroke-width:0" d="M 78.9904,1086.65 C 79.9904,1086.65 80.9904,1085.65 80.9904,1084.65 V 1076.65 C 80.9904,1071.65 75.9904,1066.65 70.9904,1066.65 H 60.9904 C 59.9904,1066.65 58.9904,1067.65 58.9904,1068.65 V 1076.65 C 58.9904,1081.65 63.9904,1086.65 68.9904,1086.65 Z" />
        <path id="Selection-9" style="fill:#999999;fill-opacity:1;stroke:none;stroke-width:1.00048" d="M 70.0387,1066.65 C 70.6298,1067.63 71.1967,1068.63 71.7568,1069.62 H 68.3398 C 68.8957,1068.63 69.4701,1067.64 70.0387,1066.65 Z M 73.7452,1070.43 C 74.8443,1070.14 75.9419,1069.84 77.0464,1069.57 76.7567,1070.67 76.4629,1071.77 76.1583,1072.86 75.3531,1072.05 74.524,1071.27 73.7452,1070.43 Z M 62.8765,1069.62 C 63.9846,1069.91 65.0933,1070.2 66.197,1070.51 65.3801,1071.31 64.6023,1072.15 63.7645,1072.92 63.4716,1071.82 63.1742,1070.72 62.8765,1069.62 Z M 69.5367,1070.61 C 71.6276,1070.46 73.7683,1071.42 74.9622,1073.16 76.8102,1075.66 76.2697,1079.52 73.7991,1081.4 71.5206,1083.3 67.8665,1083.13 65.773,1081.03 63.5991,1079 63.3133,1075.36 65.1401,1073.02 66.1698,1071.63 67.8144,1070.74 69.5367,1070.61 Z M 60,1076.6 C 60.9836,1076.04 61.9587,1075.45 62.9537,1074.91 V 1078.32 C 61.9622,1077.76 60.9615,1077.21 60,1076.6 Z M 77.0463,1075 C 78.0378,1075.56 79.0383,1076.11 80,1076.72 79.0176,1077.29 78.0411,1077.87 77.0463,1078.42 Z M 76.1969,1080.4 C 76.1967,1080.41 76.8459,1082.68 77.1236,1083.7 76.0129,1083.42 74.9095,1083.11 73.8031,1082.82 74.5974,1082.01 75.4002,1081.21 76.1969,1080.4 Z M 63.8224,1080.48 C 64.6687,1081.24 65.4629,1082.07 66.2548,1082.89 65.1529,1083.18 64.0544,1083.48 62.9537,1083.78 63.2335,1082.68 63.5375,1081.58 63.8224,1080.48 Z M 68.2432,1083.7 H 71.6602 C 71.0962,1084.69 70.5541,1085.69 69.9421,1086.65 69.3711,1085.67 68.7942,1084.69 68.2432,1083.7 Z" />
    </g>
    <g id="deactivated-inactive-center" style="opacity:0.3;fill:#999999;fill-opacity:1" transform="translate(-36.9904,-1046.65)" inkscape:label="deactivated-inactive-center">
        <path id="path-3-3-67-2" style="display:inline;opacity:0;fill:#999999;fill-opacity:1;stroke:none;stroke-width:0" d="M 78.9904,1086.65 C 79.9904,1086.65 80.9904,1085.65 80.9904,1084.65 V 1076.65 C 80.9904,1071.65 75.9904,1066.65 70.9904,1066.65 H 60.9904 C 59.9904,1066.65 58.9904,1067.65 58.9904,1068.65 V 1076.65 C 58.9904,1081.65 63.9904,1086.65 68.9904,1086.65 Z" />
        <path id="Selection-5-7" style="fill:#999999;fill-opacity:1;stroke:none;stroke-width:1.00048" d="M 70.0387,1066.65 C 70.6298,1067.63 71.1967,1068.63 71.7568,1069.62 H 68.3398 C 68.8957,1068.63 69.4701,1067.64 70.0387,1066.65 Z M 73.7452,1070.43 C 74.8443,1070.14 75.9419,1069.84 77.0464,1069.57 76.7567,1070.67 76.4629,1071.77 76.1583,1072.86 75.3531,1072.05 74.524,1071.27 73.7452,1070.43 Z M 62.8765,1069.62 C 63.9846,1069.91 65.0933,1070.2 66.197,1070.51 65.3801,1071.31 64.6023,1072.15 63.7645,1072.92 63.4716,1071.82 63.1742,1070.72 62.8765,1069.62 Z M 69.5367,1070.61 C 71.6276,1070.46 73.7683,1071.42 74.9622,1073.16 76.8102,1075.66 76.2697,1079.52 73.7991,1081.4 71.5206,1083.3 67.8665,1083.13 65.773,1081.03 63.5991,1079 63.3133,1075.36 65.1401,1073.02 66.1698,1071.63 67.8144,1070.74 69.5367,1070.61 Z M 60,1076.6 C 60.9836,1076.04 61.9587,1075.45 62.9537,1074.91 V 1078.32 C 61.9622,1077.76 60.9615,1077.21 60,1076.6 Z M 77.0463,1075 C 78.0378,1075.56 79.0383,1076.11 80,1076.72 79.0176,1077.29 78.0411,1077.87 77.0463,1078.42 Z M 76.1969,1080.4 C 76.1967,1080.41 76.8459,1082.68 77.1236,1083.7 76.0129,1083.42 74.9095,1083.11 73.8031,1082.82 74.5974,1082.01 75.4002,1081.21 76.1969,1080.4 Z M 63.8224,1080.48 C 64.6687,1081.24 65.4629,1082.07 66.2548,1082.89 65.1529,1083.18 64.0544,1083.48 62.9537,1083.78 63.2335,1082.68 63.5375,1081.58 63.8224,1080.48 Z M 68.2432,1083.7 H 71.6602 C 71.0962,1084.69 70.5541,1085.69 69.9421,1086.65 69.3711,1085.67 68.7942,1084.69 68.2432,1083.7 Z" />
    </g>
</svg>
