<?xml version="1.0" encoding="UTF-8" standalone="no"?>
<svg version="1.1" id="svgmaximize" height="80" width="44" sodipodi:docname="keepbelow.svg" inkscape:version="1.2.1 (9c6d41e410, 2022-07-14)" xmlns:inkscape="http://www.inkscape.org/namespaces/inkscape" xmlns:sodipodi="http://sodipodi.sourceforge.net/DTD/sodipodi-0.dtd" xmlns="http://www.w3.org/2000/svg" xmlns:svg="http://www.w3.org/2000/svg" xmlns:rdf="http://www.w3.org/1999/02/22-rdf-syntax-ns#" xmlns:cc="http://creativecommons.org/ns#" xmlns:dc="http://purl.org/dc/elements/1.1/">
    <sodipodi:namedview id="namedview7963" pagecolor="#ffffff" bordercolor="#666666" borderopacity="1.0" inkscape:showpageshadow="2" inkscape:pageopacity="0.0" inkscape:pagecheckerboard="0" inkscape:deskcolor="#d1d1d1" showgrid="true" inkscape:zoom="5.9" inkscape:cx="137.373" inkscape:cy="23.7288" inkscape:current-layer="svgmaximize">
        <inkscape:grid type="xygrid" id="grid7965" spacingx="22" spacingy="20" />
    </sodipodi:namedview>
    <defs id="defs" />
    <metadata id="metadata4433">
        <rdf:RDF>
            <cc:Work rdf:about="">
                <dc:format>image/svg+xml</dc:format>
                <dc:type rdf:resource="http://purl.org/dc/dcmitype/StillImage" />
            </cc:Work>
        </rdf:RDF>
    </metadata>
    <path id="hover-inactive-center" style="display:inline;opacity:0.3;fill:#52e099;fill-opacity:1;stroke:none;stroke-width:0" d="M 42,80 C 43,80 44,79 44,78 V 70 C 44,65 39,60 34,60 H 24 C 23,60 22,61 22,62 V 70 C 22,75 27,80 32,80 Z" inkscape:label="hover-inactive-center" />
    <g id="active-center" style="fill:#52e099;fill-opacity:1" transform="matrix(1,0,0,0.999855,-53.3751,-1070.49)" inkscape:label="active-center">
        <path id="active-center-3-3" style="display:inline;opacity:0;fill:#52e099;fill-opacity:1;stroke:none;stroke-width:0" d="M 73.3751,1090.65 C 74.3751,1090.65 75.3751,1089.65 75.3751,1088.65 V 1080.65 C 75.3751,1075.65 70.3751,1070.65 65.3751,1070.65 H 55.3751 C 54.3751,1070.65 53.3751,1071.65 53.3751,1072.65 V 1080.65 C 53.3751,1085.65 58.3751,1090.65 63.3751,1090.65 Z" />
        <path id="Selection" style="stroke-width:1.04806" d="M 64.2989,1070.65 C 63.9038,1072 63.2209,1073.26 62.5568,1074.49 61.8856,1075.74 60.9827,1076.84 60.0157,1077.87 60.2154,1078.28 61.6419,1078.06 62.254,1077.83 61.8738,1078.98 61.285,1080.07 60.4864,1080.98 59.9684,1081.68 59.0606,1082.09 58.465,1082.57 59.3697,1083.06 60.4348,1082.96 61.4064,1082.77 60.7335,1084.28 59.5782,1085.51 58.3478,1086.59 57.8966,1087.09 56.8507,1087.57 56.7501,1087.98 58.3574,1088.69 60.1452,1088.98 61.8947,1088.92 62.4515,1088.9 63.0021,1088.84 63.5489,1088.76 63.3614,1089.5 63.2173,1089.74 62.7091,1090.47 63.722,1090.85 66.1193,1090.52 66.1193,1090.52 66.1193,1090.52 65.4666,1089.2 65.4513,1088.38 67.1762,1087.98 68.8812,1087.47 70.6154,1087.13 70.9917,1086.96 72.1467,1087.05 71.9845,1086.79 70.0771,1085.97 68.4138,1084.56 67.4064,1082.73 67.843,1082.86 69.3827,1083.27 70.1954,1082.75 71.2381,1082.37 70.1101,1082.18 69.6505,1081.88 68.1199,1080.96 66.896,1079.5 66.2247,1077.84 66.6255,1078 68.1239,1078.22 68.6427,1077.75 67.0509,1076.52 66.0343,1074.72 65.2443,1072.9 64.9039,1072.16 64.6631,1071.38 64.2989,1070.65 Z" />
    </g>
    <path id="pressed-center" style="display:inline;fill:#52e099;fill-opacity:1;stroke:none;stroke-width:0" d="M 2,40 C 1,40 0,40.9999 0,41.9997 V 49.9985 C 0,52.6382 1.3997,55.2678 3.4512,57.1775 3.723,56.7976 4.577,56.3776 4.9727,55.9377 6.203,54.8578 7.3584,53.628 8.0313,52.1182 7.0597,52.3082 5.9946,52.4082 5.0898,51.9183 5.6855,51.4383 6.5933,51.0284 7.1113,50.3385 7.9099,49.4186 8.4987,48.3288 8.8789,47.179 8.2668,47.4089 6.8403,47.6289 6.6406,47.219 7.6076,46.1891 8.5105,45.0893 9.1816,43.8394 9.8458,42.6096 10.5287,41.3498 10.9238,40 Z M 10.9238,40 C 11.288,40.7299 11.5288,41.5098 11.8691,42.2497 12.6592,44.0694 13.6758,45.8691 15.2676,47.099 14.7488,47.5689 13.2503,47.3489 12.8496,47.189 13.5208,48.8487 14.7448,50.3085 16.2754,51.2284 16.735,51.5283 17.863,51.7183 16.8203,52.0982 16.0076,52.6182 14.4679,52.2082 14.0312,52.0782 15.0387,53.908 16.702,55.3178 18.6094,56.1377 18.7715,56.3976 17.6166,56.3076 17.2402,56.4776 15.5061,56.8176 13.8011,57.3375 12.0762,57.7274 12.0915,58.5473 12.7441,59.8671 12.7441,59.8671 12.7441,59.8671 10.3469,60.1971 9.334,59.8171 9.8421,59.0872 9.9863,58.8473 10.1738,58.1074 9.627,58.1874 9.0764,58.2474 8.5195,58.2673 6.9152,58.3173 5.2852,58.0674 3.7852,57.4775 5.5665,59.0172 7.7825,59.9971 10,59.9971 H 20 C 21,59.9971 22,58.9972 22,57.9974 V 49.9985 C 22,44.9993 17,40 12,40 Z" inkscape:label="pressed-center" />
    <path id="hover-center" style="display:inline;fill:#52e099;fill-opacity:1;stroke:none;stroke-width:0" d="M 20,80 C 21,80 22,79 22,78 V 70 C 22,65 17,60 12,60 H 2 C 1,60 0,61 0,62 V 70 C 0,75 5,80 10,80 Z" inkscape:label="hover-center" />
    <g id="deactivated-center" style="opacity:0.6;fill:#999999;fill-opacity:1" transform="matrix(1,0,0,0.999855,-53.3751,-1050.49)" inkscape:label="deactivated-center">
        <path id="active-center-3-3-9" style="display:inline;opacity:0;fill:#999999;fill-opacity:1;stroke:none;stroke-width:0" d="M 73.3751,1090.65 C 74.3751,1090.65 75.3751,1089.65 75.3751,1088.65 V 1080.65 C 75.3751,1075.65 70.3751,1070.65 65.3751,1070.65 H 55.3751 C 54.3751,1070.65 53.3751,1071.65 53.3751,1072.65 V 1080.65 C 53.3751,1085.65 58.3751,1090.65 63.3751,1090.65 Z" />
        <path id="Selection-3" style="fill:#999999;fill-opacity:1;stroke-width:1.04806" d="M 64.2989,1070.65 C 63.9038,1072 63.2209,1073.26 62.5568,1074.49 61.8856,1075.74 60.9827,1076.84 60.0157,1077.87 60.2154,1078.28 61.6419,1078.06 62.254,1077.83 61.8738,1078.98 61.285,1080.07 60.4864,1080.98 59.9684,1081.68 59.0606,1082.09 58.465,1082.57 59.3697,1083.06 60.4348,1082.96 61.4064,1082.77 60.7335,1084.28 59.5782,1085.51 58.3478,1086.59 57.8966,1087.09 56.8507,1087.57 56.7501,1087.98 58.3574,1088.69 60.1452,1088.98 61.8947,1088.92 62.4515,1088.9 63.0021,1088.84 63.5489,1088.76 63.3614,1089.5 63.2173,1089.74 62.7091,1090.47 63.722,1090.85 66.1193,1090.52 66.1193,1090.52 66.1193,1090.52 65.4666,1089.2 65.4513,1088.38 67.1762,1087.98 68.8812,1087.47 70.6154,1087.13 70.9917,1086.96 72.1467,1087.05 71.9845,1086.79 70.0771,1085.97 68.4138,1084.56 67.4064,1082.73 67.843,1082.86 69.3827,1083.27 70.1954,1082.75 71.2381,1082.37 70.1101,1082.18 69.6505,1081.88 68.1199,1080.96 66.896,1079.5 66.2247,1077.84 66.6255,1078 68.1239,1078.22 68.6427,1077.75 67.0509,1076.52 66.0343,1074.72 65.2443,1072.9 64.9039,1072.16 64.6631,1071.38 64.2989,1070.65 Z" />
    </g>
    <g id="inactive-center" style="opacity:0.3;fill:#52e099;fill-opacity:1" transform="matrix(1,0,0,0.999855,-31.3751,-1070.49)" inkscape:label="inactive-center">
        <path id="active-center-3-3-0" style="display:inline;opacity:0;fill:#52e099;fill-opacity:1;stroke:none;stroke-width:0" d="M 73.3751,1090.65 C 74.3751,1090.65 75.3751,1089.65 75.3751,1088.65 V 1080.65 C 75.3751,1075.65 70.3751,1070.65 65.3751,1070.65 H 55.3751 C 54.3751,1070.65 53.3751,1071.65 53.3751,1072.65 V 1080.65 C 53.3751,1085.65 58.3751,1090.65 63.3751,1090.65 Z" />
        <path id="Selection-6" style="stroke-width:1.04806" d="M 64.2989,1070.65 C 63.9038,1072 63.2209,1073.26 62.5568,1074.49 61.8856,1075.74 60.9827,1076.84 60.0157,1077.87 60.2154,1078.28 61.6419,1078.06 62.254,1077.83 61.8738,1078.98 61.285,1080.07 60.4864,1080.98 59.9684,1081.68 59.0606,1082.09 58.465,1082.57 59.3697,1083.06 60.4348,1082.96 61.4064,1082.77 60.7335,1084.28 59.5782,1085.51 58.3478,1086.59 57.8966,1087.09 56.8507,1087.57 56.7501,1087.98 58.3574,1088.69 60.1452,1088.98 61.8947,1088.92 62.4515,1088.9 63.0021,1088.84 63.5489,1088.76 63.3614,1089.5 63.2173,1089.74 62.7091,1090.47 63.722,1090.85 66.1193,1090.52 66.1193,1090.52 66.1193,1090.52 65.4666,1089.2 65.4513,1088.38 67.1762,1087.98 68.8812,1087.47 70.6154,1087.13 70.9917,1086.96 72.1467,1087.05 71.9845,1086.79 70.0771,1085.97 68.4138,1084.56 67.4064,1082.73 67.843,1082.86 69.3827,1083.27 70.1954,1082.75 71.2381,1082.37 70.1101,1082.18 69.6505,1081.88 68.1199,1080.96 66.896,1079.5 66.2247,1077.84 66.6255,1078 68.1239,1078.22 68.6427,1077.75 67.0509,1076.52 66.0343,1074.72 65.2443,1072.9 64.9039,1072.16 64.6631,1071.38 64.2989,1070.65 Z" />
    </g>
    <path id="pressed-inactive-center" style="display:inline;opacity:0.3;fill:#52e099;fill-opacity:1;stroke:none;stroke-width:0" d="M 24,40 C 23,40 22,40.9999 22,41.9997 V 49.9985 C 22,52.6382 23.3997,55.2678 25.4512,57.1775 25.723,56.7976 26.577,56.3776 26.9727,55.9377 28.203,54.8578 29.3584,53.628 30.0313,52.1182 29.0597,52.3082 27.9946,52.4082 27.0898,51.9183 27.6855,51.4383 28.5933,51.0284 29.1113,50.3385 29.9099,49.4186 30.4987,48.3288 30.8789,47.179 30.2668,47.4089 28.8403,47.6289 28.6406,47.219 29.6076,46.1891 30.5105,45.0893 31.1816,43.8394 31.8458,42.6096 32.5287,41.3498 32.9238,40 Z M 32.9238,40 C 33.288,40.7299 33.5288,41.5098 33.8691,42.2497 34.6592,44.0694 35.6758,45.8691 37.2676,47.099 36.7488,47.5689 35.2503,47.3489 34.8496,47.189 35.5208,48.8487 36.7448,50.3085 38.2754,51.2284 38.735,51.5283 39.863,51.7183 38.8203,52.0982 38.0076,52.6182 36.4679,52.2082 36.0312,52.0782 37.0387,53.908 38.702,55.3178 40.6094,56.1377 40.7715,56.3976 39.6166,56.3076 39.2402,56.4776 37.5061,56.8176 35.8011,57.3375 34.0762,57.7274 34.0915,58.5473 34.7441,59.8671 34.7441,59.8671 34.7441,59.8671 32.3469,60.1971 31.334,59.8171 31.8421,59.0872 31.9863,58.8473 32.1738,58.1074 31.627,58.1874 31.0764,58.2474 30.5195,58.2673 28.9152,58.3173 27.2852,58.0674 25.7852,57.4775 27.5665,59.0172 29.7825,59.9971 32,59.9971 H 42 C 43,59.9971 44,58.9972 44,57.9974 V 49.9985 C 44,44.9993 39,40 34,40 Z" inkscape:label="pressed-inactive-center" />
    <g id="deactivated-inactive-center" style="opacity:0.3;fill:#999999;fill-opacity:1" transform="matrix(1,0,0,0.999855,-31.3751,-1050.49)" inkscape:label="deactivated-inactive-center">
        <path id="active-center-3-3-9-1" style="display:inline;opacity:0;fill:#999999;fill-opacity:1;stroke:none;stroke-width:0" d="M 73.3751,1090.65 C 74.3751,1090.65 75.3751,1089.65 75.3751,1088.65 V 1080.65 C 75.3751,1075.65 70.3751,1070.65 65.3751,1070.65 H 55.3751 C 54.3751,1070.65 53.3751,1071.65 53.3751,1072.65 V 1080.65 C 53.3751,1085.65 58.3751,1090.65 63.3751,1090.65 Z" />
        <path id="Selection-3-8" style="fill:#999999;fill-opacity:1;stroke-width:1.04806" d="M 64.2989,1070.65 C 63.9038,1072 63.2209,1073.26 62.5568,1074.49 61.8856,1075.74 60.9827,1076.84 60.0157,1077.87 60.2154,1078.28 61.6419,1078.06 62.254,1077.83 61.8738,1078.98 61.285,1080.07 60.4864,1080.98 59.9684,1081.68 59.0606,1082.09 58.465,1082.57 59.3697,1083.06 60.4348,1082.96 61.4064,1082.77 60.7335,1084.28 59.5782,1085.51 58.3478,1086.59 57.8966,1087.09 56.8507,1087.57 56.7501,1087.98 58.3574,1088.69 60.1452,1088.98 61.8947,1088.92 62.4515,1088.9 63.0021,1088.84 63.5489,1088.76 63.3614,1089.5 63.2173,1089.74 62.7091,1090.47 63.722,1090.85 66.1193,1090.52 66.1193,1090.52 66.1193,1090.52 65.4666,1089.2 65.4513,1088.38 67.1762,1087.98 68.8812,1087.47 70.6154,1087.13 70.9917,1086.96 72.1467,1087.05 71.9845,1086.79 70.0771,1085.97 68.4138,1084.56 67.4064,1082.73 67.843,1082.86 69.3827,1083.27 70.1954,1082.75 71.2381,1082.37 70.1101,1082.18 69.6505,1081.88 68.1199,1080.96 66.896,1079.5 66.2247,1077.84 66.6255,1078 68.1239,1078.22 68.6427,1077.75 67.0509,1076.52 66.0343,1074.72 65.2443,1072.9 64.9039,1072.16 64.6631,1071.38 64.2989,1070.65 Z" />
    </g>
</svg>
