<?xml version="1.0" encoding="UTF-8" standalone="no"?>
<svg width="44" height="80" viewBox="0 0 11.6417 21.1667" version="1.1" id="svgminimize" sodipodi:docname="minimize.svg" inkscape:version="1.2.1 (9c6d41e410, 2022-07-14)" xmlns:inkscape="http://www.inkscape.org/namespaces/inkscape" xmlns:sodipodi="http://sodipodi.sourceforge.net/DTD/sodipodi-0.dtd" xmlns="http://www.w3.org/2000/svg" xmlns:svg="http://www.w3.org/2000/svg" xmlns:rdf="http://www.w3.org/1999/02/22-rdf-syntax-ns#" xmlns:cc="http://creativecommons.org/ns#" xmlns:dc="http://purl.org/dc/elements/1.1/">
    <sodipodi:namedview id="namedview21616" pagecolor="#ffffff" bordercolor="#666666" borderopacity="1.0" inkscape:showpageshadow="2" inkscape:pageopacity="0.0" inkscape:pagecheckerboard="0" inkscape:deskcolor="#d1d1d1" showgrid="true" inkscape:zoom="4.17193" inkscape:cx="181.331" inkscape:cy="74.7855" inkscape:current-layer="svgminimize">
        <inkscape:grid type="xygrid" id="grid21618" spacingx="5.82083" spacingy="5.29167" originx="0" originy="0" />
    </sodipodi:namedview>
    <defs id="defs1064" />
    <metadata id="metadata1067">
        <rdf:RDF>
            <cc:Work rdf:about="">
                <dc:format>image/svg+xml</dc:format>
                <dc:type rdf:resource="http://purl.org/dc/dcmitype/StillImage" />
            </cc:Work>
        </rdf:RDF>
    </metadata>
    <path id="hover-inactive-center" style="display:inline;opacity:0.300224;fill:#dfe052;fill-opacity:1;stroke:none;stroke-width:0" d="M 11.1126,21.1667 C 11.3771,21.1667 11.6417,20.9021 11.6417,20.6375 V 18.5208 C 11.6417,17.1981 10.3188,15.875 8.99585,15.875 H 6.35005 C 6.08545,15.875 5.82085,16.1385 5.82085,16.4042 V 18.5208 C 5.82085,19.8437 7.14375,21.1667 8.46665,21.1667 Z" inkscape:label="hover-inactive-center" />
    <path id="pressed-center" style="display:inline;opacity:1;fill:#dfe052;fill-opacity:1;stroke:none;stroke-width:0" d="M 0.529199,10.5834 C 0.264599,10.5834 9.93315e-5,10.847 9.93315e-5,11.1126 V 12.6566 C -0.002801,12.5569 0.058199,12.4604 0.132299,12.3931 0.299599,12.2411 0.604099,12.0586 0.806199,11.9482 0.922199,11.8848 1.2941,11.7185 1.4164,11.6898 1.2821,11.3729 1.1614,11.0842 1.3927,10.7752 1.4946,10.639 1.6279,10.5806 1.7554,10.5834 Z M 1.7554,10.5834 C 1.9679,10.5882 2.1653,10.7634 2.1786,11.0361 2.2562,10.9 2.325,10.7239 2.4835,10.6635 2.7673,10.5553 3.04314,10.9012 3.02044,11.1669 3.00984,11.2919 2.958,11.4363 2.884,11.5374 2.8409,11.5962 2.7348,11.6913 2.7202,11.7549 2.7036,11.8279 2.7839,11.9149 2.8473,11.9373 2.9142,11.9608 3.07514,11.8469 3.13674,11.8112 3.40484,11.6555 3.55634,11.5831 3.85554,11.4945 3.98684,11.4555 4.13304,11.436 4.26894,11.4604 4.44204,11.4917 4.57834,11.5792 4.72624,11.6681 4.91574,11.782 5.12884,11.9157 5.29254,12.0634 5.87994,12.5928 5.92394,13.4415 5.68484,14.1505 5.65084,14.2509 5.55994,14.5176 5.50964,14.5949 5.15574,15.1389 4.42334,15.5326 3.81164,15.7059 3.64634,15.7527 3.36904,15.8254 3.20184,15.8274 3.04654,15.8291 2.9151,15.837 2.7662,15.7819 2.4032,15.6473 2.3202,15.2872 2.5083,14.969 2.6725,14.6912 3.09584,14.4476 3.41994,14.4554 3.64424,14.4609 3.89784,14.6387 3.72734,14.875 3.59084,15.0645 3.46374,15.0862 3.24574,15.0869 L 3.26744,15.0218 C 3.39464,15.0069 3.44714,14.9182 3.48504,14.8037 3.33014,14.8041 3.10804,14.858 2.9915,14.9649 2.8787,15.0684 2.7937,15.2956 2.9646,15.3912 3.02024,15.4223 3.15644,15.4134 3.22354,15.4134 3.45064,15.413 3.53724,15.3635 3.74644,15.2941 L 3.96404,15.2259 C 4.08334,15.1743 4.50844,14.9141 4.58724,14.8233 4.63494,14.7684 4.69374,14.6536 4.72624,14.5861 4.56924,14.5493 4.47634,14.4909 4.33454,14.4363 L 3.89894,14.2828 3.68084,14.1888 C 3.44674,14.1167 3.24774,14.1043 3.00604,14.1071 2.7067,14.1106 2.6429,14.2212 2.4556,14.4337 L 1.8955,15.0295 C 1.8079,15.0922 1.6559,15.151 1.5472,15.1236 1.4729,15.1046 1.4123,15.0361 1.4345,14.9566 1.4668,14.8414 1.6119,14.8247 1.697,14.7515 1.8162,14.6491 1.9176,14.3231 1.8712,14.1722 1.7767,13.8634 1.6705,13.774 1.4661,13.5408 1.3005,13.352 1.1758,13.2119 0.936899,13.115 L 0.283699,12.9238 C 0.181599,12.8909 0.079499,12.8594 0.026399,12.7564 0.009399,12.7234 9.99332e-4,12.6899 9.93315e-5,12.6566 V 13.2292 C 9.93315e-5,14.5519 1.3229,15.8749 2.6458,15.8749 H 5.29154 C 5.55614,15.8749 5.82074,15.6104 5.82074,15.3458 V 13.2292 C 5.82074,11.9064 4.49784,10.5834 3.17494,10.5834 Z M 1.8521,11.9223 C 1.5712,11.9223 1.3431,12.151 1.3431,12.4318 1.3431,12.7127 1.5712,12.9413 1.8521,12.9413 2.1329,12.9413 2.3616,12.7127 2.3616,12.4318 2.3616,12.151 2.1329,11.9223 1.8521,11.9223 Z M 1.8521,12.2634 C 1.9448,12.2634 2.0205,12.3391 2.0205,12.4318 2.0205,12.5246 1.9448,12.6003 1.8521,12.6003 1.7593,12.6003 1.6841,12.5246 1.6841,12.4318 1.6841,12.3391 1.7593,12.2634 1.8521,12.2634 Z" inkscape:label="pressed-center" />
    <g id="active-center" transform="translate(-6.87916,0.001371)" inkscape:label="active-center">
        <path id="active-center-1-1" style="display:inline;opacity:0;fill:#dfe052;fill-opacity:1;stroke:none;stroke-width:0" d="M 46,1112.65 C 47,1112.65 48,1111.65 48,1110.65 V 1102.65 C 48,1097.65 43,1092.65 38,1092.65 H 28 C 27,1092.65 26,1093.65 26,1094.65 V 1102.65 C 26,1107.65 31,1112.65 36,1112.65 Z" transform="matrix(0.264583,0,0,0.264583,0,-289.098)" />
        <path id="Selection-3" style="fill:#dfe052;fill-opacity:1;stroke:none;stroke-width:0.264583" d="M 8.63438,9.78833e-5 C 8.50689,-0.002732 8.37353,0.055677 8.27161,0.191817 8.04033,0.50085 8.16101,0.789617 8.29538,1.10649 8.17299,1.13524 7.80116,1.3015 7.68508,1.36487 7.48298,1.47529 7.17848,1.65779 7.01122,1.80981 6.91235,1.89954 6.83734,2.04112 6.90529,2.17309 6.95843,2.2761 7.06049,2.30764 7.16263,2.34052 L 7.81582,2.53173 C 8.05473,2.62864 8.17948,2.76872 8.34499,2.95754 8.54949,3.19078 8.65562,3.28021 8.75013,3.58903 8.79652,3.73995 8.6951,4.06596 8.57598,4.16832 8.49083,4.24149 8.3457,4.25827 8.31347,4.37347 8.29126,4.45296 8.35186,4.52144 8.42612,4.54039 8.5348,4.56783 8.68687,4.50906 8.77442,4.44634 L 9.33459,3.85051 C 9.52189,3.63795 9.58572,3.5274 9.88495,3.52392 10.1267,3.52112 10.3257,3.53352 10.5598,3.60557 L 10.7779,3.69962 11.2135,3.85309 C 11.3553,3.90775 11.4482,3.96615 11.6053,4.00296 11.5728,4.07047 11.5139,4.18527 11.4662,4.24015 11.3874,4.33097 10.9624,4.5911 10.843,4.64271 L 10.6255,4.71092 C 10.4162,4.78039 10.3297,4.82986 10.1025,4.83029 10.0354,4.83029 9.89914,4.83919 9.84361,4.80807 9.67265,4.71246 9.75767,4.48519 9.87048,4.38174 9.98699,4.27481 10.2091,4.22095 10.364,4.22051 10.3261,4.33507 10.2736,4.42378 10.1464,4.43859 L 10.1247,4.5037 C 10.3427,4.50303 10.4698,4.4813 10.6064,4.29182 10.7769,4.05553 10.5232,3.87766 10.2989,3.87221 9.97482,3.86441 9.55151,4.10798 9.38731,4.38587 9.19914,4.70405 9.28213,5.06416 9.64517,5.19874 9.79414,5.25384 9.92553,5.24596 10.0808,5.24422 10.2481,5.24222 10.5253,5.1696 10.6906,5.12278 11.3023,4.94943 12.0348,4.55576 12.3887,4.01174 12.439,3.93443 12.5299,3.66772 12.5639,3.56732 12.803,2.85822 12.759,2.00954 12.1716,1.48011 12.0079,1.33246 11.7947,1.19869 11.6053,1.08479 11.4574,0.995927 11.3211,0.908409 11.1479,0.877048 11.012,0.852659 10.8658,0.872148 10.7345,0.911154 10.4353,0.999794 10.2838,1.07222 10.0157,1.22793 9.95406,1.26365 9.79316,1.37754 9.7263,1.35402 9.66292,1.33159 9.58263,1.24456 9.59918,1.1716 9.61377,1.10801 9.71987,1.01285 9.76299,0.954045 9.83704,0.852995 9.88875,0.708532 9.89942,0.583525 9.92207,0.317831 9.64627,-0.028041 9.3625,0.080197 9.20395,0.140527 9.13514,0.31667 9.05761,0.452784 9.04427,0.180012 8.84687,0.004822 8.63438,9.85833e-5 Z M 8.73101,1.33903 C 9.01185,1.33903 9.24054,1.56768 9.24054,1.84856 9.24054,2.12942 9.01185,2.35809 8.73101,2.35809 8.45016,2.35809 8.222,2.12942 8.222,1.84856 8.222,1.56768 8.45016,1.33903 8.73101,1.33903 Z M 8.73101,1.6801 C 8.63824,1.6801 8.56306,1.7558 8.56306,1.84856 8.56306,1.94133 8.63824,2.01703 8.73101,2.01703 8.82378,2.01703 8.89948,1.94132 8.89948,1.84856 8.89948,1.7558 8.82379,1.6801 8.73101,1.6801 Z" />
    </g>
    <g id="deactivated-center" transform="translate(-6.87916,5.29303)" inkscape:label="deactivated-center">
        <path id="active-center-1-1-4" style="display:inline;opacity:0;fill:#dfe052;fill-opacity:1;stroke:none;stroke-width:0" d="M 46,1112.65 C 47,1112.65 48,1111.65 48,1110.65 V 1102.65 C 48,1097.65 43,1092.65 38,1092.65 H 28 C 27,1092.65 26,1093.65 26,1094.65 V 1102.65 C 26,1107.65 31,1112.65 36,1112.65 Z" transform="matrix(0.264583,0,0,0.264583,0,-289.098)" />
        <path id="Selection-3-7" style="fill:#999999;fill-opacity:1;stroke:none;stroke-width:0.264583;opacity:0.6" d="M 8.63438,9.78833e-5 C 8.50689,-0.002732 8.37353,0.055677 8.27161,0.191817 8.04033,0.50085 8.16101,0.789617 8.29538,1.10649 8.17299,1.13524 7.80116,1.3015 7.68508,1.36487 7.48298,1.47529 7.17848,1.65779 7.01122,1.80981 6.91235,1.89954 6.83734,2.04112 6.90529,2.17309 6.95843,2.2761 7.06049,2.30764 7.16263,2.34052 L 7.81582,2.53173 C 8.05473,2.62864 8.17948,2.76872 8.34499,2.95754 8.54949,3.19078 8.65562,3.28021 8.75013,3.58903 8.79652,3.73995 8.6951,4.06596 8.57598,4.16832 8.49083,4.24149 8.3457,4.25827 8.31347,4.37347 8.29126,4.45296 8.35186,4.52144 8.42612,4.54039 8.5348,4.56783 8.68687,4.50906 8.77442,4.44634 L 9.33459,3.85051 C 9.52189,3.63795 9.58572,3.5274 9.88495,3.52392 10.1267,3.52112 10.3257,3.53352 10.5598,3.60557 L 10.7779,3.69962 11.2135,3.85309 C 11.3553,3.90775 11.4482,3.96615 11.6053,4.00296 11.5728,4.07047 11.5139,4.18527 11.4662,4.24015 11.3874,4.33097 10.9624,4.5911 10.843,4.64271 L 10.6255,4.71092 C 10.4162,4.78039 10.3297,4.82986 10.1025,4.83029 10.0354,4.83029 9.89914,4.83919 9.84361,4.80807 9.67265,4.71246 9.75767,4.48519 9.87048,4.38174 9.98699,4.27481 10.2091,4.22095 10.364,4.22051 10.3261,4.33507 10.2736,4.42378 10.1464,4.43859 L 10.1247,4.5037 C 10.3427,4.50303 10.4698,4.4813 10.6064,4.29182 10.7769,4.05553 10.5232,3.87766 10.2989,3.87221 9.97482,3.86441 9.55151,4.10798 9.38731,4.38587 9.19914,4.70405 9.28213,5.06416 9.64517,5.19874 9.79414,5.25384 9.92553,5.24596 10.0808,5.24422 10.2481,5.24222 10.5253,5.1696 10.6906,5.12278 11.3023,4.94943 12.0348,4.55576 12.3887,4.01174 12.439,3.93443 12.5299,3.66772 12.5639,3.56732 12.803,2.85822 12.759,2.00954 12.1716,1.48011 12.0079,1.33246 11.7947,1.19869 11.6053,1.08479 11.4574,0.995927 11.3211,0.908409 11.1479,0.877048 11.012,0.852659 10.8658,0.872148 10.7345,0.911154 10.4353,0.999794 10.2838,1.07222 10.0157,1.22793 9.95406,1.26365 9.79316,1.37754 9.7263,1.35402 9.66292,1.33159 9.58263,1.24456 9.59918,1.1716 9.61377,1.10801 9.71987,1.01285 9.76299,0.954045 9.83704,0.852995 9.88875,0.708532 9.89942,0.583525 9.92207,0.317831 9.64627,-0.028041 9.3625,0.080197 9.20395,0.140527 9.13514,0.31667 9.05761,0.452784 9.04427,0.180012 8.84687,0.004822 8.63438,9.85833e-5 Z M 8.73101,1.33903 C 9.01185,1.33903 9.24054,1.56768 9.24054,1.84856 9.24054,2.12942 9.01185,2.35809 8.73101,2.35809 8.45016,2.35809 8.222,2.12942 8.222,1.84856 8.222,1.56768 8.45016,1.33903 8.73101,1.33903 Z M 8.73101,1.6801 C 8.63824,1.6801 8.56306,1.7558 8.56306,1.84856 8.56306,1.94133 8.63824,2.01703 8.73101,2.01703 8.82378,2.01703 8.89948,1.94132 8.89948,1.84856 8.89948,1.7558 8.82379,1.6801 8.73101,1.6801 Z" />
    </g>
    <path id="pressed-inactive-center" style="display:inline;fill:#dfe052;fill-opacity:1;stroke:none;stroke-width:0;opacity:0.3" d="M 6.35006,10.5834 C 6.08546,10.5834 5.82096,10.847 5.82096,11.1126 V 12.6566 C 5.81806,12.5569 5.87906,12.4604 5.95316,12.3931 6.12046,12.2411 6.42496,12.0586 6.62706,11.9482 6.74306,11.8848 7.11496,11.7185 7.23726,11.6898 7.10296,11.3729 6.98226,11.0842 7.21356,10.7752 7.31546,10.639 7.44876,10.5806 7.57626,10.5834 Z M 7.57626,10.5834 C 7.78876,10.5882 7.98616,10.7634 7.99946,11.0361 8.0771,10.9 8.1459,10.7239 8.3044,10.6635 8.5882,10.5553 8.864,10.9012 8.8413,11.1669 8.8307,11.2919 8.7789,11.4363 8.7049,11.5374 8.6618,11.5962 8.5557,11.6913 8.5411,11.7549 8.5245,11.8279 8.6048,11.9149 8.6682,11.9373 8.7351,11.9608 8.896,11.8469 8.9576,11.8112 9.2257,11.6555 9.3772,11.5831 9.6764,11.4945 9.8077,11.4555 9.9539,11.436 10.0898,11.4604 10.2629,11.4917 10.3992,11.5792 10.5471,11.6681 10.7366,11.782 10.9497,11.9157 11.1134,12.0634 11.7008,12.5928 11.7448,13.4415 11.5057,14.1505 11.4717,14.2509 11.3808,14.5176 11.3305,14.5949 10.9766,15.1389 10.2442,15.5326 9.6325,15.7059 9.4672,15.7527 9.1899,15.8254 9.0227,15.8274 8.8674,15.8291 8.736,15.837 8.5871,15.7819 8.2241,15.6473 8.1411,15.2872 8.3292,14.969 8.4934,14.6912 8.9167,14.4476 9.2408,14.4554 9.4651,14.4609 9.7187,14.6387 9.5482,14.875 9.4117,15.0645 9.2846,15.0862 9.0666,15.0869 L 9.0883,15.0218 C 9.2155,15.0069 9.268,14.9182 9.3059,14.8037 9.151,14.8041 8.9289,14.858 8.8124,14.9649 8.6996,15.0684 8.6146,15.2956 8.7855,15.3912 8.8411,15.4223 8.9773,15.4134 9.0444,15.4134 9.2715,15.413 9.3581,15.3635 9.5673,15.2941 L 9.7849,15.2259 C 9.9042,15.1743 10.3293,14.9141 10.4081,14.8233 10.4558,14.7684 10.5146,14.6536 10.5471,14.5861 10.3901,14.5493 10.2972,14.4909 10.1554,14.4363 L 9.7198,14.2828 9.5017,14.1888 C 9.2676,14.1167 9.0686,14.1043 8.8269,14.1071 8.5276,14.1106 8.4638,14.2212 8.2765,14.4337 L 7.71636,15.0295 C 7.62876,15.0922 7.47676,15.151 7.36806,15.1236 7.29376,15.1046 7.23316,15.0361 7.25536,14.9566 7.28766,14.8414 7.43276,14.8247 7.51786,14.7515 7.63706,14.6491 7.73846,14.3231 7.69206,14.1722 7.59756,13.8634 7.49136,13.774 7.28696,13.5408 7.12136,13.352 6.99666,13.2119 6.75776,13.115 L 6.10456,12.9238 C 6.00246,12.8909 5.90036,12.8594 5.84726,12.7564 5.83026,12.7234 5.82186,12.6899 5.82096,12.6566 V 13.2292 C 5.82096,14.5519 7.14376,15.8749 8.4667,15.8749 H 11.1124 C 11.377,15.8749 11.6416,15.6104 11.6416,15.3458 V 13.2292 C 11.6416,11.9064 10.3187,10.5834 8.9958,10.5834 Z M 7.67296,11.9223 C 7.39206,11.9223 7.16396,12.151 7.16396,12.4318 7.16396,12.7127 7.39206,12.9413 7.67296,12.9413 7.95376,12.9413 8.1825,12.7127 8.1825,12.4318 8.1825,12.151 7.95376,11.9223 7.67296,11.9223 Z M 7.67296,12.2634 C 7.76566,12.2634 7.84136,12.3391 7.84136,12.4318 7.84136,12.5246 7.76566,12.6003 7.67296,12.6003 7.58016,12.6003 7.50496,12.5246 7.50496,12.4318 7.50496,12.3391 7.58016,12.2634 7.67296,12.2634 Z" inkscape:label="pressed-inactive-center" />
    <g id="inactive-center" transform="translate(-1.0583,0.001371)" style="opacity:0.3" inkscape:label="inactive-center">
        <path id="active-center-1-1-5" style="display:inline;opacity:0;fill:#dfe052;fill-opacity:1;stroke:none;stroke-width:0" d="M 46,1112.65 C 47,1112.65 48,1111.65 48,1110.65 V 1102.65 C 48,1097.65 43,1092.65 38,1092.65 H 28 C 27,1092.65 26,1093.65 26,1094.65 V 1102.65 C 26,1107.65 31,1112.65 36,1112.65 Z" transform="matrix(0.264583,0,0,0.264583,0,-289.098)" />
        <path id="Selection-3-0" style="fill:#dfe052;fill-opacity:1;stroke:none;stroke-width:0.264583" d="M 8.63438,9.78833e-5 C 8.50689,-0.002732 8.37353,0.055677 8.27161,0.191817 8.04033,0.50085 8.16101,0.789617 8.29538,1.10649 8.17299,1.13524 7.80116,1.3015 7.68508,1.36487 7.48298,1.47529 7.17848,1.65779 7.01122,1.80981 6.91235,1.89954 6.83734,2.04112 6.90529,2.17309 6.95843,2.2761 7.06049,2.30764 7.16263,2.34052 L 7.81582,2.53173 C 8.05473,2.62864 8.17948,2.76872 8.34499,2.95754 8.54949,3.19078 8.65562,3.28021 8.75013,3.58903 8.79652,3.73995 8.6951,4.06596 8.57598,4.16832 8.49083,4.24149 8.3457,4.25827 8.31347,4.37347 8.29126,4.45296 8.35186,4.52144 8.42612,4.54039 8.5348,4.56783 8.68687,4.50906 8.77442,4.44634 L 9.33459,3.85051 C 9.52189,3.63795 9.58572,3.5274 9.88495,3.52392 10.1267,3.52112 10.3257,3.53352 10.5598,3.60557 L 10.7779,3.69962 11.2135,3.85309 C 11.3553,3.90775 11.4482,3.96615 11.6053,4.00296 11.5728,4.07047 11.5139,4.18527 11.4662,4.24015 11.3874,4.33097 10.9624,4.5911 10.843,4.64271 L 10.6255,4.71092 C 10.4162,4.78039 10.3297,4.82986 10.1025,4.83029 10.0354,4.83029 9.89914,4.83919 9.84361,4.80807 9.67265,4.71246 9.75767,4.48519 9.87048,4.38174 9.98699,4.27481 10.2091,4.22095 10.364,4.22051 10.3261,4.33507 10.2736,4.42378 10.1464,4.43859 L 10.1247,4.5037 C 10.3427,4.50303 10.4698,4.4813 10.6064,4.29182 10.7769,4.05553 10.5232,3.87766 10.2989,3.87221 9.97482,3.86441 9.55151,4.10798 9.38731,4.38587 9.19914,4.70405 9.28213,5.06416 9.64517,5.19874 9.79414,5.25384 9.92553,5.24596 10.0808,5.24422 10.2481,5.24222 10.5253,5.1696 10.6906,5.12278 11.3023,4.94943 12.0348,4.55576 12.3887,4.01174 12.439,3.93443 12.5299,3.66772 12.5639,3.56732 12.803,2.85822 12.759,2.00954 12.1716,1.48011 12.0079,1.33246 11.7947,1.19869 11.6053,1.08479 11.4574,0.995927 11.3211,0.908409 11.1479,0.877048 11.012,0.852659 10.8658,0.872148 10.7345,0.911154 10.4353,0.999794 10.2838,1.07222 10.0157,1.22793 9.95406,1.26365 9.79316,1.37754 9.7263,1.35402 9.66292,1.33159 9.58263,1.24456 9.59918,1.1716 9.61377,1.10801 9.71987,1.01285 9.76299,0.954045 9.83704,0.852995 9.88875,0.708532 9.89942,0.583525 9.92207,0.317831 9.64627,-0.028041 9.3625,0.080197 9.20395,0.140527 9.13514,0.31667 9.05761,0.452784 9.04427,0.180012 8.84687,0.004822 8.63438,9.85833e-5 Z M 8.73101,1.33903 C 9.01185,1.33903 9.24054,1.56768 9.24054,1.84856 9.24054,2.12942 9.01185,2.35809 8.73101,2.35809 8.45016,2.35809 8.222,2.12942 8.222,1.84856 8.222,1.56768 8.45016,1.33903 8.73101,1.33903 Z M 8.73101,1.6801 C 8.63824,1.6801 8.56306,1.7558 8.56306,1.84856 8.56306,1.94133 8.63824,2.01703 8.73101,2.01703 8.82378,2.01703 8.89948,1.94132 8.89948,1.84856 8.89948,1.7558 8.82379,1.6801 8.73101,1.6801 Z" />
    </g>
    <g id="deactivated-inactive-center" transform="translate(-1.0583,5.29303)" inkscape:label="deactivated-inactive-center">
        <path id="active-center-1-1-4-6" style="display:inline;opacity:0;fill:#dfe052;fill-opacity:1;stroke:none;stroke-width:0" d="M 46,1112.65 C 47,1112.65 48,1111.65 48,1110.65 V 1102.65 C 48,1097.65 43,1092.65 38,1092.65 H 28 C 27,1092.65 26,1093.65 26,1094.65 V 1102.65 C 26,1107.65 31,1112.65 36,1112.65 Z" transform="matrix(0.264583,0,0,0.264583,0,-289.098)" />
        <path id="Selection-3-7-1" style="fill:#999999;fill-opacity:1;stroke:none;stroke-width:0.264583;opacity:0.3" d="M 8.63438,9.78833e-5 C 8.50689,-0.002732 8.37353,0.055677 8.27161,0.191817 8.04033,0.50085 8.16101,0.789617 8.29538,1.10649 8.17299,1.13524 7.80116,1.3015 7.68508,1.36487 7.48298,1.47529 7.17848,1.65779 7.01122,1.80981 6.91235,1.89954 6.83734,2.04112 6.90529,2.17309 6.95843,2.2761 7.06049,2.30764 7.16263,2.34052 L 7.81582,2.53173 C 8.05473,2.62864 8.17948,2.76872 8.34499,2.95754 8.54949,3.19078 8.65562,3.28021 8.75013,3.58903 8.79652,3.73995 8.6951,4.06596 8.57598,4.16832 8.49083,4.24149 8.3457,4.25827 8.31347,4.37347 8.29126,4.45296 8.35186,4.52144 8.42612,4.54039 8.5348,4.56783 8.68687,4.50906 8.77442,4.44634 L 9.33459,3.85051 C 9.52189,3.63795 9.58572,3.5274 9.88495,3.52392 10.1267,3.52112 10.3257,3.53352 10.5598,3.60557 L 10.7779,3.69962 11.2135,3.85309 C 11.3553,3.90775 11.4482,3.96615 11.6053,4.00296 11.5728,4.07047 11.5139,4.18527 11.4662,4.24015 11.3874,4.33097 10.9624,4.5911 10.843,4.64271 L 10.6255,4.71092 C 10.4162,4.78039 10.3297,4.82986 10.1025,4.83029 10.0354,4.83029 9.89914,4.83919 9.84361,4.80807 9.67265,4.71246 9.75767,4.48519 9.87048,4.38174 9.98699,4.27481 10.2091,4.22095 10.364,4.22051 10.3261,4.33507 10.2736,4.42378 10.1464,4.43859 L 10.1247,4.5037 C 10.3427,4.50303 10.4698,4.4813 10.6064,4.29182 10.7769,4.05553 10.5232,3.87766 10.2989,3.87221 9.97482,3.86441 9.55151,4.10798 9.38731,4.38587 9.19914,4.70405 9.28213,5.06416 9.64517,5.19874 9.79414,5.25384 9.92553,5.24596 10.0808,5.24422 10.2481,5.24222 10.5253,5.1696 10.6906,5.12278 11.3023,4.94943 12.0348,4.55576 12.3887,4.01174 12.439,3.93443 12.5299,3.66772 12.5639,3.56732 12.803,2.85822 12.759,2.00954 12.1716,1.48011 12.0079,1.33246 11.7947,1.19869 11.6053,1.08479 11.4574,0.995927 11.3211,0.908409 11.1479,0.877048 11.012,0.852659 10.8658,0.872148 10.7345,0.911154 10.4353,0.999794 10.2838,1.07222 10.0157,1.22793 9.95406,1.26365 9.79316,1.37754 9.7263,1.35402 9.66292,1.33159 9.58263,1.24456 9.59918,1.1716 9.61377,1.10801 9.71987,1.01285 9.76299,0.954045 9.83704,0.852995 9.88875,0.708532 9.89942,0.583525 9.92207,0.317831 9.64627,-0.028041 9.3625,0.080197 9.20395,0.140527 9.13514,0.31667 9.05761,0.452784 9.04427,0.180012 8.84687,0.004822 8.63438,9.85833e-5 Z M 8.73101,1.33903 C 9.01185,1.33903 9.24054,1.56768 9.24054,1.84856 9.24054,2.12942 9.01185,2.35809 8.73101,2.35809 8.45016,2.35809 8.222,2.12942 8.222,1.84856 8.222,1.56768 8.45016,1.33903 8.73101,1.33903 Z M 8.73101,1.6801 C 8.63824,1.6801 8.56306,1.7558 8.56306,1.84856 8.56306,1.94133 8.63824,2.01703 8.73101,2.01703 8.82378,2.01703 8.89948,1.94132 8.89948,1.84856 8.89948,1.7558 8.82379,1.6801 8.73101,1.6801 Z" />
    </g>
    <path id="hover-center" style="display:inline;fill:#dfe052;fill-opacity:1;stroke:none;stroke-width:0" d="M 5.29167,21.1667 C 5.55625,21.1667 5.82083,20.9022 5.82083,20.6375 V 18.5209 C 5.82083,17.1981 4.49792,15.875 3.175,15.875 H 0.529167 C 0.264583,15.875 0,16.1386 0,16.4042 V 18.5209 C 0,19.8437 1.32292,21.1667 2.64583,21.1667 Z" inkscape:label="hover-center" />
</svg>
