<?xml version="1.0" encoding="UTF-8" standalone="no"?>
<svg version="1.1" id="svgmaximize" height="80" width="44" sodipodi:docname="restore.svg" inkscape:version="1.2.1 (9c6d41e410, 2022-07-14)" xmlns:inkscape="http://www.inkscape.org/namespaces/inkscape" xmlns:sodipodi="http://sodipodi.sourceforge.net/DTD/sodipodi-0.dtd" xmlns="http://www.w3.org/2000/svg" xmlns:svg="http://www.w3.org/2000/svg" xmlns:rdf="http://www.w3.org/1999/02/22-rdf-syntax-ns#" xmlns:cc="http://creativecommons.org/ns#" xmlns:dc="http://purl.org/dc/elements/1.1/">
    <sodipodi:namedview id="namedview25384" pagecolor="#ffffff" bordercolor="#666666" borderopacity="1.0" inkscape:showpageshadow="2" inkscape:pageopacity="0.0" inkscape:pagecheckerboard="0" inkscape:deskcolor="#d1d1d1" showgrid="true" inkscape:zoom="5.9" inkscape:cx="147.373" inkscape:cy="56.2712" inkscape:current-layer="svgmaximize">
        <inkscape:grid type="xygrid" id="grid25386" spacingx="22" spacingy="20" originx="0" originy="0" />
    </sodipodi:namedview>
    <defs id="defs" />
    <metadata id="metadata4433">
        <rdf:RDF>
            <cc:Work rdf:about="">
                <dc:format>image/svg+xml</dc:format>
                <dc:type rdf:resource="http://purl.org/dc/dcmitype/StillImage" />
            </cc:Work>
        </rdf:RDF>
    </metadata>
    <path id="hover-inactive-center" style="display:inline;opacity:0.300076;fill:#52e0e0;fill-opacity:1;stroke:none;stroke-width:0" d="M 42,80 C 43,80 44,79 44,78 V 70 C 44,65 39,60 34,60 H 24 C 23,60 22,61 22,62 V 70 C 22,75 27,80 32,80 Z" inkscape:label="hover-inactive-center" />
    <path id="pressed-center" style="display:inline;fill:#52e0e0;fill-opacity:1;stroke:none;stroke-width:0" d="M 2,40 C 1,40 0,41 0,42 V 50 C 0,55 5,60 10,60 H 20 C 21,60 22,59 22,58 V 54.09 C 21.9825,54.13 21.9639,54.17 21.9356,54.2 21.6252,54.57 20.902,54.33 20.5254,54.2 19.7283,53.92 18.7415,53.3 18.0313,52.83 17.7759,52.66 17.111,52.14 16.8281,52.16 16.5796,52.17 16.2473,52.48 16.0547,52.63 L 14.5059,53.74 C 13.2763,54.52 11.331,55.24 9.8633,55.26 H 8.3145 C 6.0384,55.26 3.3144,54.09 1.6953,52.51 1.1966,52.02 0.1314,50.98 0.0703,50.27 -0.0208,49.23 1.2205,48.09 1.9531,47.48 2.4321,47.07 3.3845,46.38 3.9297,46.09 5.2569,45.38 7.105,44.97 8.7832,44.92 9.3426,44.9 9.8826,44.92 10.3789,44.98 12.0986,45.26 13.43,45.73 14.9356,46.63 15.4902,46.96 15.8147,47.19 16.3125,47.6 16.4879,47.75 16.7618,48.01 17,48 17.233,47.99 17.8128,47.53 18.0313,47.38 18.8739,46.8 19.4008,46.43 20.3535,46 20.4915,45.94 20.679,45.88 20.875,45.82 19.1233,42.55 15.5669,40 12,40 Z M 5.9941,47.35 C 4.9327,47.35 4.0703,48.21 4.0703,49.27 4.0703,50.34 4.9327,51.2 5.9941,51.2 7.0556,51.2 7.9199,50.34 7.9199,49.27 7.9199,48.21 7.0556,47.35 5.9941,47.35 Z M 21.6035,47.56 C 21.1951,48.35 20.5828,49.49 20.6211,50.19 20.6572,50.85 21.4336,52.3 21.75,52.94 21.8282,53.1 21.9361,53.32 22,53.54 V 50 C 22,49.18 21.8524,48.36 21.6035,47.56 Z M 5.9941,48.64 C 6.3448,48.64 6.6309,48.92 6.6309,49.27 6.6309,49.63 6.3448,49.91 5.9941,49.91 5.6435,49.91 5.3594,49.63 5.3594,49.27 5.3594,48.92 5.6435,48.64 5.9941,48.64 Z" inkscape:label="pressed-center" />
    <g id="active-center" style="display:inline" transform="translate(-26,-1092.65)" inkscape:label="active-center">
        <path id="active-center-1" style="display:inline;opacity:0;fill:#52e0e0;fill-opacity:1;stroke:none;stroke-width:0" d="M 46,1112.65 C 47,1112.65 48,1111.65 48,1110.65 V 1102.65 C 48,1097.65 43,1092.65 38,1092.65 H 28 C 27,1092.65 26,1093.65 26,1094.65 V 1102.65 C 26,1107.65 31,1112.65 36,1112.65 Z" />
        <path id="Selection-3" style="fill:#52e0e0;fill-opacity:1" d="M 34.7832,4.91406 C 33.105,4.97006 31.2569,5.37784 29.9297,6.08594 29.3845,6.37744 28.4321,7.06846 27.9531,7.47266 27.2205,8.09086 25.9792,9.22678 26.0703,10.2715 26.1314,10.9749 27.1966,12.0192 27.6953,12.5059 29.3144,14.0854 32.0384,15.2578 34.3145,15.2578 H 35.8633 C 37.331,15.2408 39.2763,14.5199 40.5059,13.7383 L 42.0547,12.627 C 42.2473,12.4731 42.5796,12.1683 42.8281,12.1562 43.111,12.1412 43.7759,12.652 44.0313,12.8223 44.7415,13.2943 45.7283,13.9198 46.5254,14.1992 46.902,14.3291 47.6251,14.5716 47.9355,14.1992 47.9639,14.1654 47.9825,14.1278 48,14.0898 V 13.5332 C 47.9361,13.3149 47.8282,13.0963 47.75,12.9375 47.4336,12.2926 46.6572,10.8519 46.6211,10.1855 46.5772,9.38675 47.4249,7.92038 47.793,7.17578 47.864,7.03272 47.9436,6.84985 48,6.66406 V 6.06445 C 47.968,6.00034 47.9274,5.93904 47.8633,5.88672 47.4927,5.58402 46.7422,5.82425 46.3535,5.99805 45.4008,6.42365 44.8739,6.79745 44.0313,7.37695 43.8128,7.52745 43.233,7.99 43,8 42.7618,8.01 42.4879,7.74411 42.3125,7.59961 41.8147,7.18951 41.4901,6.9552 40.9355,6.625 39.43,5.729 38.0986,5.25766 36.3789,4.97656 35.8826,4.91456 35.3426,4.89506 34.7832,4.91406 Z M 31.9941,7.3457 C 33.0556,7.3457 33.9199,8.20988 33.9199,9.27148 33.9199,10.333 33.0556,11.1973 31.9941,11.1973 30.9327,11.1973 30.0703,10.333 30.0703,9.27148 30.0703,8.20988 30.9327,7.3457 31.9941,7.3457 Z M 31.9941,8.63477 C 31.6435,8.63477 31.3594,8.92088 31.3594,9.27148 31.3594,9.62208 31.6435,9.9082 31.9941,9.9082 32.3448,9.9082 32.6309,9.62208 32.6309,9.27148 32.6309,8.92088 32.3448,8.63477 31.9941,8.63477 Z" transform="translate(0,1092.65)" />
    </g>
    <g id="deactivated-center" style="display:inline" transform="translate(-26,-1072.65)" inkscape:label="deactivated-center">
        <path id="active-center-1-6" style="display:inline;opacity:0;fill:#52e0e0;fill-opacity:1;stroke:none;stroke-width:0" d="M 46,1112.65 C 47,1112.65 48,1111.65 48,1110.65 V 1102.65 C 48,1097.65 43,1092.65 38,1092.65 H 28 C 27,1092.65 26,1093.65 26,1094.65 V 1102.65 C 26,1107.65 31,1112.65 36,1112.65 Z" />
        <path id="Selection-3-3" style="fill:#999999;fill-opacity:1;opacity:0.6" d="M 34.7832,4.91406 C 33.105,4.97006 31.2569,5.37784 29.9297,6.08594 29.3845,6.37744 28.4321,7.06846 27.9531,7.47266 27.2205,8.09086 25.9792,9.22678 26.0703,10.2715 26.1314,10.9749 27.1966,12.0192 27.6953,12.5059 29.3144,14.0854 32.0384,15.2578 34.3145,15.2578 H 35.8633 C 37.331,15.2408 39.2763,14.5199 40.5059,13.7383 L 42.0547,12.627 C 42.2473,12.4731 42.5796,12.1683 42.8281,12.1562 43.111,12.1412 43.7759,12.652 44.0313,12.8223 44.7415,13.2943 45.7283,13.9198 46.5254,14.1992 46.902,14.3291 47.6251,14.5716 47.9355,14.1992 47.9639,14.1654 47.9825,14.1278 48,14.0898 V 13.5332 C 47.9361,13.3149 47.8282,13.0963 47.75,12.9375 47.4336,12.2926 46.6572,10.8519 46.6211,10.1855 46.5772,9.38675 47.4249,7.92038 47.793,7.17578 47.864,7.03272 47.9436,6.84985 48,6.66406 V 6.06445 C 47.968,6.00034 47.9274,5.93904 47.8633,5.88672 47.4927,5.58402 46.7422,5.82425 46.3535,5.99805 45.4008,6.42365 44.8739,6.79745 44.0313,7.37695 43.8128,7.52745 43.233,7.99 43,8 42.7618,8.01 42.4879,7.74411 42.3125,7.59961 41.8147,7.18951 41.4901,6.9552 40.9355,6.625 39.43,5.729 38.0986,5.25766 36.3789,4.97656 35.8826,4.91456 35.3426,4.89506 34.7832,4.91406 Z M 31.9941,7.3457 C 33.0556,7.3457 33.9199,8.20988 33.9199,9.27148 33.9199,10.333 33.0556,11.1973 31.9941,11.1973 30.9327,11.1973 30.0703,10.333 30.0703,9.27148 30.0703,8.20988 30.9327,7.3457 31.9941,7.3457 Z M 31.9941,8.63477 C 31.6435,8.63477 31.3594,8.92088 31.3594,9.27148 31.3594,9.62208 31.6435,9.9082 31.9941,9.9082 32.3448,9.9082 32.6309,9.62208 32.6309,9.27148 32.6309,8.92088 32.3448,8.63477 31.9941,8.63477 Z" transform="translate(0,1092.65)" />
    </g>
    <path id="pressed-inactive-center" style="display:inline;fill:#52e0e0;fill-opacity:1;stroke:none;stroke-width:0;opacity:0.3" d="M 24,40 C 23,40 22,41 22,42 V 50 C 22,55 27,60 32,60 H 42 C 43,60 44,59 44,58 V 54.09 C 43.9825,54.13 43.9639,54.17 43.9356,54.2 43.6252,54.57 42.902,54.33 42.5254,54.2 41.7283,53.92 40.7415,53.3 40.0313,52.83 39.7759,52.66 39.111,52.14 38.8281,52.16 38.5796,52.17 38.2473,52.48 38.0547,52.63 L 36.5059,53.74 C 35.2763,54.52 33.331,55.24 31.8633,55.26 H 30.3145 C 28.0384,55.26 25.3144,54.09 23.6953,52.51 23.1966,52.02 22.1314,50.98 22.0703,50.27 21.9792,49.23 23.2205,48.09 23.9531,47.48 24.4321,47.07 25.3845,46.38 25.9297,46.09 27.2569,45.38 29.105,44.97 30.7832,44.92 31.3426,44.9 31.8826,44.92 32.3789,44.98 34.0986,45.26 35.43,45.73 36.9356,46.63 37.4902,46.96 37.8147,47.19 38.3125,47.6 38.4879,47.75 38.7618,48.01 39,48 39.233,47.99 39.8128,47.53 40.0313,47.38 40.8739,46.8 41.4008,46.43 42.3535,46 42.4915,45.94 42.679,45.88 42.875,45.82 41.1233,42.55 37.5669,40 34,40 Z M 27.9941,47.35 C 26.9327,47.35 26.0703,48.21 26.0703,49.27 26.0703,50.34 26.9327,51.2 27.9941,51.2 29.0556,51.2 29.9199,50.34 29.9199,49.27 29.9199,48.21 29.0556,47.35 27.9941,47.35 Z M 43.6035,47.56 C 43.1951,48.35 42.5828,49.49 42.6211,50.19 42.6572,50.85 43.4336,52.3 43.75,52.94 43.8282,53.1 43.9361,53.32 44,53.54 V 50 C 44,49.18 43.8524,48.36 43.6035,47.56 Z M 27.9941,48.64 C 28.3448,48.64 28.6309,48.92 28.6309,49.27 28.6309,49.63 28.3448,49.91 27.9941,49.91 27.6435,49.91 27.3594,49.63 27.3594,49.27 27.3594,48.92 27.6435,48.64 27.9941,48.64 Z" inkscape:label="pressed-inactive-center" />
    <g id="inactive-center" style="display:inline;opacity:0.3" transform="translate(-4,-1092.65)" inkscape:label="inactive-center">
        <path id="active-center-1-1" style="display:inline;opacity:0;fill:#52e0e0;fill-opacity:1;stroke:none;stroke-width:0" d="M 46,1112.65 C 47,1112.65 48,1111.65 48,1110.65 V 1102.65 C 48,1097.65 43,1092.65 38,1092.65 H 28 C 27,1092.65 26,1093.65 26,1094.65 V 1102.65 C 26,1107.65 31,1112.65 36,1112.65 Z" />
        <path id="Selection-3-5" style="fill:#52e0e0;fill-opacity:1" d="M 34.7832,4.91406 C 33.105,4.97006 31.2569,5.37784 29.9297,6.08594 29.3845,6.37744 28.4321,7.06846 27.9531,7.47266 27.2205,8.09086 25.9792,9.22678 26.0703,10.2715 26.1314,10.9749 27.1966,12.0192 27.6953,12.5059 29.3144,14.0854 32.0384,15.2578 34.3145,15.2578 H 35.8633 C 37.331,15.2408 39.2763,14.5199 40.5059,13.7383 L 42.0547,12.627 C 42.2473,12.4731 42.5796,12.1683 42.8281,12.1562 43.111,12.1412 43.7759,12.652 44.0313,12.8223 44.7415,13.2943 45.7283,13.9198 46.5254,14.1992 46.902,14.3291 47.6251,14.5716 47.9355,14.1992 47.9639,14.1654 47.9825,14.1278 48,14.0898 V 13.5332 C 47.9361,13.3149 47.8282,13.0963 47.75,12.9375 47.4336,12.2926 46.6572,10.8519 46.6211,10.1855 46.5772,9.38675 47.4249,7.92038 47.793,7.17578 47.864,7.03272 47.9436,6.84985 48,6.66406 V 6.06445 C 47.968,6.00034 47.9274,5.93904 47.8633,5.88672 47.4927,5.58402 46.7422,5.82425 46.3535,5.99805 45.4008,6.42365 44.8739,6.79745 44.0313,7.37695 43.8128,7.52745 43.233,7.99 43,8 42.7618,8.01 42.4879,7.74411 42.3125,7.59961 41.8147,7.18951 41.4901,6.9552 40.9355,6.625 39.43,5.729 38.0986,5.25766 36.3789,4.97656 35.8826,4.91456 35.3426,4.89506 34.7832,4.91406 Z M 31.9941,7.3457 C 33.0556,7.3457 33.9199,8.20988 33.9199,9.27148 33.9199,10.333 33.0556,11.1973 31.9941,11.1973 30.9327,11.1973 30.0703,10.333 30.0703,9.27148 30.0703,8.20988 30.9327,7.3457 31.9941,7.3457 Z M 31.9941,8.63477 C 31.6435,8.63477 31.3594,8.92088 31.3594,9.27148 31.3594,9.62208 31.6435,9.9082 31.9941,9.9082 32.3448,9.9082 32.6309,9.62208 32.6309,9.27148 32.6309,8.92088 32.3448,8.63477 31.9941,8.63477 Z" transform="translate(0,1092.65)" />
    </g>
    <g id="deactivated-inactive-center" style="display:inline" transform="translate(-4,-1072.65)" inkscape:label="deactivated-inactive-center">
        <path id="active-center-1-6-4" style="display:inline;opacity:0;fill:#52e0e0;fill-opacity:1;stroke:none;stroke-width:0" d="M 46,1112.65 C 47,1112.65 48,1111.65 48,1110.65 V 1102.65 C 48,1097.65 43,1092.65 38,1092.65 H 28 C 27,1092.65 26,1093.65 26,1094.65 V 1102.65 C 26,1107.65 31,1112.65 36,1112.65 Z" />
        <path id="Selection-3-3-7" style="fill:#999999;fill-opacity:1;opacity:0.3" d="M 34.7832,4.91406 C 33.105,4.97006 31.2569,5.37784 29.9297,6.08594 29.3845,6.37744 28.4321,7.06846 27.9531,7.47266 27.2205,8.09086 25.9792,9.22678 26.0703,10.2715 26.1314,10.9749 27.1966,12.0192 27.6953,12.5059 29.3144,14.0854 32.0384,15.2578 34.3145,15.2578 H 35.8633 C 37.331,15.2408 39.2763,14.5199 40.5059,13.7383 L 42.0547,12.627 C 42.2473,12.4731 42.5796,12.1683 42.8281,12.1562 43.111,12.1412 43.7759,12.652 44.0313,12.8223 44.7415,13.2943 45.7283,13.9198 46.5254,14.1992 46.902,14.3291 47.6251,14.5716 47.9355,14.1992 47.9639,14.1654 47.9825,14.1278 48,14.0898 V 13.5332 C 47.9361,13.3149 47.8282,13.0963 47.75,12.9375 47.4336,12.2926 46.6572,10.8519 46.6211,10.1855 46.5772,9.38675 47.4249,7.92038 47.793,7.17578 47.864,7.03272 47.9436,6.84985 48,6.66406 V 6.06445 C 47.968,6.00034 47.9274,5.93904 47.8633,5.88672 47.4927,5.58402 46.7422,5.82425 46.3535,5.99805 45.4008,6.42365 44.8739,6.79745 44.0313,7.37695 43.8128,7.52745 43.233,7.99 43,8 42.7618,8.01 42.4879,7.74411 42.3125,7.59961 41.8147,7.18951 41.4901,6.9552 40.9355,6.625 39.43,5.729 38.0986,5.25766 36.3789,4.97656 35.8826,4.91456 35.3426,4.89506 34.7832,4.91406 Z M 31.9941,7.3457 C 33.0556,7.3457 33.9199,8.20988 33.9199,9.27148 33.9199,10.333 33.0556,11.1973 31.9941,11.1973 30.9327,11.1973 30.0703,10.333 30.0703,9.27148 30.0703,8.20988 30.9327,7.3457 31.9941,7.3457 Z M 31.9941,8.63477 C 31.6435,8.63477 31.3594,8.92088 31.3594,9.27148 31.3594,9.62208 31.6435,9.9082 31.9941,9.9082 32.3448,9.9082 32.6309,9.62208 32.6309,9.27148 32.6309,8.92088 32.3448,8.63477 31.9941,8.63477 Z" transform="translate(0,1092.65)" />
    </g>
    <path id="hover-center" style="display:inline;fill:#52e0e0;fill-opacity:1;stroke:none;stroke-width:0" d="M 20,80 C 21,80 22,79 22,78 V 70 C 22,65 17,60 12,60 H 2 C 1,60 0,61 0,62 V 70 C 0,75 5,80 10,80 Z" inkscape:transform-center-x="0.972921" inkscape:label="hover-center" />
</svg>
