<?xml version="1.0" encoding="UTF-8" standalone="no"?>
<svg version="1.1" id="svgmaximize" height="80" width="44" sodipodi:docname="maximize.svg" inkscape:version="1.2.1 (9c6d41e410, 2022-07-14)" xmlns:inkscape="http://www.inkscape.org/namespaces/inkscape" xmlns:sodipodi="http://sodipodi.sourceforge.net/DTD/sodipodi-0.dtd" xmlns="http://www.w3.org/2000/svg" xmlns:svg="http://www.w3.org/2000/svg" xmlns:rdf="http://www.w3.org/1999/02/22-rdf-syntax-ns#" xmlns:cc="http://creativecommons.org/ns#" xmlns:dc="http://purl.org/dc/elements/1.1/">
    <sodipodi:namedview id="namedview18547" pagecolor="#ffffff" bordercolor="#666666" borderopacity="1.0" inkscape:showpageshadow="2" inkscape:pageopacity="0.0" inkscape:pagecheckerboard="0" inkscape:deskcolor="#d1d1d1" showgrid="true" inkscape:zoom="4.17193" inkscape:cx="185.885" inkscape:cy="54.4113" inkscape:current-layer="svgmaximize">
        <inkscape:grid type="xygrid" id="grid18549" spacingx="22" spacingy="20" originx="0" originy="0" />
    </sodipodi:namedview>
    <defs id="defs" />
    <metadata id="metadata4433">
        <rdf:RDF>
            <cc:Work rdf:about="">
                <dc:format>image/svg+xml</dc:format>
                <dc:type rdf:resource="http://purl.org/dc/dcmitype/StillImage" />
            </cc:Work>
        </rdf:RDF>
    </metadata>
    <path id="hover-inactive-center" style="display:inline;opacity:0.300076;fill:#52e0e0;fill-opacity:1;stroke:none;stroke-width:0" d="M 42,80 C 43,80 44,79 44,78 V 70 C 44,65 39,60 34,60 H 24 C 23,60 22,61 22,62 V 70 C 22,75 27,80 32,80 Z" inkscape:label="hover-inactive-center" />
    <path id="pressed-center" style="display:inline;fill:#52e0e0;fill-opacity:1;stroke:none;stroke-width:0" d="M 2,40 C 1,40 0,41 0,42 V 49.09 C 0,48.93 0.0622,48.76 0.1875,48.64 0.4381,48.39 0.8432,48.39 1.0938,48.64 L 1.4063,48.94 C 1.5361,48.17 1.7711,47.43 2.0977,46.75 L 1.5645,46.44 C 1.2575,46.26 1.1527,45.87 1.3301,45.56 1.5073,45.25 1.9026,45.15 2.207,45.33 L 2.7363,45.63 C 3.3216,44.77 4.0626,44.03 4.918,43.43 L 4.6172,42.91 C 4.4398,42.61 4.5463,42.22 4.8535,42.04 5.1598,41.86 5.553,41.97 5.7305,42.27 L 6.0254,42.79 C 6.9443,42.34 7.9569,42.06 9.0234,41.98 V 41.31 C 9.0234,40.95 9.3069,40.66 9.668,40.66 10.029,40.66 10.3125,40.95 10.3125,41.31 V 41.97 C 11.436,42.04 12.4505,42.28 13.373,42.62 L 13.6211,42.19 C 13.7998,41.88 14.1948,41.78 14.502,41.96 14.8105,42.14 14.9165,42.53 14.7383,42.84 L 14.5645,43.14 C 16.2151,43.95 17.546,45 18.6895,45.72 H 18.6915 C 18.7005,45.72 18.7084,45.73 18.7168,45.73 18.8331,45.67 19.7015,45.26 20.3497,44.94 18.47,42.11 15.2395,40 12,40 Z M 0,49.09 V 50 C 0,50.44 0.0508,50.87 0.123,51.3 0.1452,51.27 0.1588,51.23 0.1875,51.2 L 1.0586,50.37 0.1875,49.54 C 0.0622,49.42 0,49.25 0,49.09 Z M 5.8145,45.88 C 4.753,45.88 3.8906,46.75 3.8906,47.81 3.8906,48.87 4.753,49.73 5.8145,49.73 6.8759,49.73 7.7402,48.87 7.7402,47.81 7.7402,46.75 6.8759,45.88 5.8145,45.88 Z M 5.8145,47.17 C 6.1651,47.17 6.4512,47.46 6.4512,47.81 6.4512,48.16 6.1651,48.44 5.8145,48.44 5.4638,48.44 5.1797,48.16 5.1797,47.81 5.1797,47.46 5.4638,47.17 5.8145,47.17 Z M 18.4512,49.77 C 18.3722,49.78 18.2982,49.82 18.2402,49.88 18.1113,50 18.0469,50.17 18.0469,50.33 18.0469,51.48 17.8149,52.56 17.4023,53.56 17.3396,53.7 17.2716,53.85 17.2012,53.99 L 17.7656,54.31 C 18.0726,54.49 18.1774,54.88 18,55.19 17.8222,55.5 17.4285,55.6 17.123,55.42 L 16.5527,55.09 C 15.9647,55.94 15.2262,56.68 14.377,57.26 L 14.7129,57.84 C 14.8903,58.14 14.7857,58.54 14.4785,58.71 14.1732,58.89 13.7795,58.79 13.6016,58.48 L 13.2656,57.9 C 12.3597,58.33 11.3644,58.61 10.3125,58.69 V 59.36 C 10.3125,59.69 10.0569,59.95 9.7441,59.99 9.8296,59.99 9.9145,60 10,60 H 20 C 21,60 22,59 22,58 V 50.33 C 22,50.56 21.8834,50.76 21.6934,50.88 21.5044,51 21.2673,51.01 21.0664,50.91 20.9315,50.84 18.6208,49.73 18.75,49.79 18.7314,49.78 18.7107,49.79 18.6914,49.78 V 49.79 C 18.614,49.76 18.5301,49.75 18.4512,49.77 Z M 1.4219,51.79 1.0938,52.11 C 0.8828,52.32 0.5674,52.35 0.3223,52.2 0.5505,53.02 0.8881,53.81 1.3301,54.57 1.3847,54.46 1.4577,54.37 1.5645,54.31 L 2.1348,53.98 C 1.8711,53.44 1.664,52.86 1.5215,52.26 1.483,52.11 1.4496,51.95 1.4219,51.79 Z M 2.7813,55.09 2.207,55.42 C 2.127,55.47 2.0397,55.49 1.9531,55.5 2.6723,56.49 3.5522,57.36 4.5371,58.08 4.547,58 4.5722,57.91 4.6172,57.83 L 4.9531,57.25 C 4.1039,56.67 3.3668,55.94 2.7813,55.09 Z M 6.0645,57.89 5.7285,58.47 C 5.6692,58.58 5.5825,58.65 5.4863,58.7 6.7469,59.43 8.1294,59.89 9.5234,59.97 9.2365,59.9 9.0234,59.66 9.0234,59.35 V 58.68 C 7.9707,58.6 6.9721,58.33 6.0645,57.89 Z" inkscape:label="pressed-center" />
    <path id="pressed-inactive-center" style="display:inline;fill:#52e0e0;fill-opacity:1;stroke:none;stroke-width:0;opacity:0.3" d="M 24,40 C 23,40 22,41 22,42 V 49.0901 C 22,48.9301 22.0622,48.7601 22.1875,48.64 22.4381,48.39 22.8432,48.39 23.0938,48.64 L 23.4063,48.94 C 23.5361,48.17 23.7711,47.4301 24.0977,46.75 L 23.5645,46.44 C 23.2575,46.2601 23.1527,45.8701 23.3301,45.5601 23.5073,45.25 23.9026,45.1501 24.207,45.33 L 24.7363,45.6301 C 25.3216,44.7701 26.0626,44.03 26.918,43.4301 L 26.6172,42.91 C 26.4398,42.61 26.5463,42.22 26.8535,42.0401 27.1598,41.86 27.5529,41.97 27.7305,42.2701 L 28.0254,42.7901 C 28.9443,42.3401 29.9568,42.0601 31.0234,41.9801 V 41.3101 C 31.0234,40.9501 31.3069,40.66 31.668,40.66 32.029,40.66 32.3125,40.9501 32.3125,41.3101 V 41.97 C 33.436,42.0401 34.4505,42.28 35.3729,42.6201 L 35.6211,42.19 C 35.7997,41.8801 36.1948,41.78 36.502,41.9601 36.8104,42.14 36.9165,42.53 36.7383,42.8401 L 36.5645,43.14 C 38.2151,43.9501 39.546,45 40.6895,45.72 H 40.6914 C 40.7005,45.72 40.7083,45.7301 40.7168,45.7301 40.8331,45.67 41.7015,45.2601 42.3497,44.94 40.47,42.11 37.2395,40 34,40 Z M 22,49.0901 V 50 C 22,50.44 22.0508,50.8701 22.123,51.3 22.1452,51.2701 22.1588,51.2301 22.1875,51.2001 L 23.0586,50.3701 22.1875,49.5401 C 22.0622,49.42 22,49.25 22,49.0901 Z M 27.8144,45.8801 C 26.753,45.8801 25.8906,46.75 25.8906,47.8101 25.8906,48.8701 26.753,49.7301 27.8144,49.7301 28.8759,49.7301 29.7402,48.8701 29.7402,47.8101 29.7402,46.75 28.8759,45.8801 27.8144,45.8801 Z M 27.8144,47.17 C 28.165,47.17 28.4512,47.4601 28.4512,47.8101 28.4512,48.16 28.165,48.44 27.8144,48.44 27.4638,48.44 27.1796,48.16 27.1796,47.8101 27.1796,47.4601 27.4638,47.17 27.8144,47.17 Z M 40.4512,49.7701 C 40.3722,49.78 40.2982,49.8201 40.2402,49.8801 40.1113,50 40.0469,50.17 40.0469,50.33 40.0469,51.4801 39.8149,52.5601 39.4023,53.5601 39.3395,53.7001 39.2716,53.8501 39.2012,53.9901 L 39.7656,54.3101 C 40.0726,54.4901 40.1774,54.8801 40,55.19 39.8222,55.5 39.4285,55.6001 39.1229,55.42 L 38.5527,55.0901 C 37.9647,55.94 37.2262,56.6801 36.377,57.2601 L 36.7128,57.8401 C 36.8903,58.14 36.7857,58.5401 36.4785,58.7101 36.1732,58.89 35.7795,58.7901 35.6015,58.4801 L 35.2656,57.9001 C 34.3597,58.33 33.3644,58.61 32.3125,58.69 V 59.36 C 32.3125,59.69 32.0569,59.9501 31.7441,59.9901 31.8296,59.9901 31.9145,60 32,60 H 42 C 43,60 44,59 44,58 V 50.33 C 44,50.5601 43.8834,50.7601 43.6934,50.8801 43.5044,51 43.2673,51.0101 43.0664,50.91 42.9315,50.8401 40.6208,49.7301 40.75,49.7901 40.7314,49.78 40.7107,49.7901 40.6914,49.78 V 49.7901 C 40.6139,49.7601 40.53,49.75 40.4512,49.7701 Z M 23.4219,51.7901 23.0938,52.11 C 22.8828,52.3201 22.5674,52.3501 22.3223,52.2001 22.5505,53.0201 22.8881,53.8101 23.3301,54.5701 23.3847,54.4601 23.4577,54.3701 23.5645,54.3101 L 24.1348,53.9801 C 23.8711,53.44 23.664,52.86 23.5215,52.2601 23.483,52.11 23.4496,51.9501 23.4219,51.7901 Z M 24.7813,55.0901 24.207,55.42 C 24.127,55.47 24.0397,55.4901 23.9531,55.5 24.6723,56.4901 25.5522,57.36 26.5371,58.08 26.547,58 26.5722,57.91 26.6172,57.83 L 26.9531,57.25 C 26.1039,56.67 25.3668,55.94 24.7813,55.0901 Z M 28.0644,57.89 27.7284,58.47 C 27.6692,58.58 27.5824,58.6501 27.4863,58.7001 28.7468,59.4301 30.1294,59.89 31.5234,59.97 31.2365,59.9001 31.0234,59.66 31.0234,59.3501 V 58.6801 C 29.9707,58.6001 28.972,58.33 28.0644,57.89 Z" inkscape:label="pressed-inactive-center" />
    <g id="active-center" transform="translate(-26,-1092.65)" inkscape:label="active-center">
        <path id="active-center-3-3" style="display:inline;opacity:0;fill:#52e0e0;fill-opacity:1;stroke:none;stroke-width:0" d="M 46,1112.65 C 47,1112.65 48,1111.65 48,1110.65 V 1102.65 C 48,1097.65 43,1092.65 38,1092.65 H 28 C 27,1092.65 26,1093.65 26,1094.65 V 1102.65 C 26,1107.65 31,1112.65 36,1112.65 Z" />
        <path id="path1080" style="fill:#52e0e0;fill-opacity:1;stroke-width:0.0429688" d="M 35.6675,1093.31 C 36.0286,1093.31 36.3121,1093.6 36.3121,1093.96 V 1094.62 C 37.4355,1094.69 38.4498,1094.93 39.3723,1095.27 L 39.621,1094.84 C 39.7998,1094.54 40.1944,1094.43 40.5015,1094.61 40.81,1094.79 40.9158,1095.18 40.7375,1095.49 L 40.5645,1095.79 C 42.2152,1096.6 43.5459,1097.65 44.6894,1098.37 H 44.6914 C 44.7004,1098.37 44.7094,1098.38 44.7178,1098.38 44.8849,1098.3 47.2023,1097.18 47.0671,1097.25 47.2667,1097.15 47.5052,1097.16 47.6942,1097.28 47.8842,1097.4 48,1097.6 48,1097.83 V 1102.98 C 48,1103.21 47.8842,1103.41 47.6942,1103.53 47.5052,1103.65 47.2681,1103.66 47.0671,1103.56 46.9322,1103.49 44.6207,1102.38 44.75,1102.44 44.7314,1102.43 44.7107,1102.44 44.6914,1102.43 V 1102.44 C 44.5366,1102.38 44.3562,1102.4 44.2402,1102.53 44.1113,1102.65 44.0469,1102.82 44.0469,1102.99 44.0469,1104.13 43.8149,1105.22 43.4023,1106.21 43.3396,1106.35 43.2725,1106.5 43.2021,1106.64 L 43.7656,1106.96 C 44.0726,1107.14 44.178,1107.53 44.0006,1107.84 43.8228,1108.15 43.4294,1108.25 43.1239,1108.08 L 42.5523,1107.75 C 41.9642,1108.59 41.2268,1109.33 40.3776,1109.91 L 40.7126,1110.49 C 40.89,1110.79 40.7848,1111.19 40.4776,1111.36 40.1723,1111.54 39.7789,1111.44 39.601,1111.13 L 39.2663,1110.55 C 38.3604,1110.98 37.3644,1111.26 36.3125,1111.34 V 1112.01 C 36.3125,1112.37 36.016,1112.65 35.6679,1112.65 35.6566,1112.65 35.6454,1112.65 35.6343,1112.65 35.2895,1112.63 35.0234,1112.35 35.0234,1112 V 1111.34 C 33.9707,1111.25 32.9726,1110.98 32.0649,1110.54 L 31.7294,1111.12 C 31.552,1111.43 31.1587,1111.54 30.8527,1111.36 30.5458,1111.18 30.4405,1110.79 30.6178,1110.48 L 30.9536,1109.9 C 30.1044,1109.32 29.3675,1108.59 28.7819,1107.74 L 28.2066,1108.07 C 27.9012,1108.25 27.5078,1108.14 27.33,1107.84 27.1526,1107.53 27.258,1107.14 27.565,1106.96 L 28.1344,1106.63 C 27.8708,1106.09 27.6635,1105.51 27.521,1104.91 27.4825,1104.76 27.4494,1104.6 27.4217,1104.44 L 27.0928,1104.76 C 26.842,1105.01 26.4385,1105.01 26.1879,1104.76 25.9373,1104.51 25.9373,1104.1 26.1879,1103.85 L 27.0581,1103.02 26.1879,1102.19 C 25.9373,1101.94 25.9373,1101.54 26.1879,1101.29 26.4385,1101.04 26.8422,1101.04 27.0928,1101.29 L 27.4055,1101.59 C 27.5354,1100.82 27.7712,1100.08 28.0977,1099.4 L 27.565,1099.09 C 27.258,1098.91 27.1526,1098.52 27.33,1098.21 27.5072,1097.9 27.9021,1097.8 28.2066,1097.98 L 28.7365,1098.28 C 29.3218,1097.42 30.0628,1096.68 30.9181,1096.09 L 30.6179,1095.57 C 30.4405,1095.26 30.5457,1094.87 30.8529,1094.69 31.1592,1094.51 31.5522,1094.62 31.7296,1094.92 L 32.0263,1095.44 C 32.9452,1094.99 33.9568,1094.71 35.0234,1094.63 V 1093.96 C 35.0234,1093.6 35.3069,1093.31 35.6679,1093.31 Z M 31.815,1098.53 C 30.7535,1098.53 29.8899,1099.4 29.8899,1100.46 29.8899,1101.52 30.7535,1102.38 31.815,1102.38 32.8764,1102.38 33.7398,1101.52 33.7398,1100.46 33.7398,1099.4 32.8764,1098.53 31.815,1098.53 Z M 31.815,1099.82 C 32.1656,1099.82 32.4507,1100.11 32.4507,1100.46 32.4507,1100.81 32.1656,1101.09 31.815,1101.09 31.4644,1101.09 31.179,1100.81 31.179,1100.46 31.179,1100.11 31.4644,1099.82 31.815,1099.82 Z" />
    </g>
    <path id="hover-center" style="display:inline;fill:#52e0e0;fill-opacity:1;stroke:none;stroke-width:0" d="M 20,80 C 21,80 22,79 22,78 V 70 C 22,65 17,60 12,60 H 2 C 1,60 0,61 0,62 V 70 C 0,75 5,80 10,80 Z" inkscape:label="hover-center" />
    <g id="deactivated-center" transform="translate(-26,-1072.65)" inkscape:label="deactivated-center">
        <path id="active-center-3-3-9" style="display:inline;opacity:0;fill:#52e0e0;fill-opacity:1;stroke:none;stroke-width:0" d="M 46,1112.65 C 47,1112.65 48,1111.65 48,1110.65 V 1102.65 C 48,1097.65 43,1092.65 38,1092.65 H 28 C 27,1092.65 26,1093.65 26,1094.65 V 1102.65 C 26,1107.65 31,1112.65 36,1112.65 Z" />
        <path id="path1080-7" style="fill:#999999;fill-opacity:1;stroke-width:0.0429688;opacity:0.6" d="M 35.6675,1093.31 C 36.0286,1093.31 36.3121,1093.6 36.3121,1093.96 V 1094.62 C 37.4355,1094.69 38.4498,1094.93 39.3723,1095.27 L 39.621,1094.84 C 39.7998,1094.54 40.1944,1094.43 40.5015,1094.61 40.81,1094.79 40.9158,1095.18 40.7375,1095.49 L 40.5645,1095.79 C 42.2152,1096.6 43.5459,1097.65 44.6894,1098.37 H 44.6914 C 44.7004,1098.37 44.7094,1098.38 44.7178,1098.38 44.8849,1098.3 47.2023,1097.18 47.0671,1097.25 47.2667,1097.15 47.5052,1097.16 47.6942,1097.28 47.8842,1097.4 48,1097.6 48,1097.83 V 1102.98 C 48,1103.21 47.8842,1103.41 47.6942,1103.53 47.5052,1103.65 47.2681,1103.66 47.0671,1103.56 46.9322,1103.49 44.6207,1102.38 44.75,1102.44 44.7314,1102.43 44.7107,1102.44 44.6914,1102.43 V 1102.44 C 44.5366,1102.38 44.3562,1102.4 44.2402,1102.53 44.1113,1102.65 44.0469,1102.82 44.0469,1102.99 44.0469,1104.13 43.8149,1105.22 43.4023,1106.21 43.3396,1106.35 43.2725,1106.5 43.2021,1106.64 L 43.7656,1106.96 C 44.0726,1107.14 44.178,1107.53 44.0006,1107.84 43.8228,1108.15 43.4294,1108.25 43.1239,1108.08 L 42.5523,1107.75 C 41.9642,1108.59 41.2268,1109.33 40.3776,1109.91 L 40.7126,1110.49 C 40.89,1110.79 40.7848,1111.19 40.4776,1111.36 40.1723,1111.54 39.7789,1111.44 39.601,1111.13 L 39.2663,1110.55 C 38.3604,1110.98 37.3644,1111.26 36.3125,1111.34 V 1112.01 C 36.3125,1112.37 36.016,1112.65 35.6679,1112.65 35.6566,1112.65 35.6454,1112.65 35.6343,1112.65 35.2895,1112.63 35.0234,1112.35 35.0234,1112 V 1111.34 C 33.9707,1111.25 32.9726,1110.98 32.0649,1110.54 L 31.7294,1111.12 C 31.552,1111.43 31.1587,1111.54 30.8527,1111.36 30.5458,1111.18 30.4405,1110.79 30.6178,1110.48 L 30.9536,1109.9 C 30.1044,1109.32 29.3675,1108.59 28.7819,1107.74 L 28.2066,1108.07 C 27.9012,1108.25 27.5078,1108.14 27.33,1107.84 27.1526,1107.53 27.258,1107.14 27.565,1106.96 L 28.1344,1106.63 C 27.8708,1106.09 27.6635,1105.51 27.521,1104.91 27.4825,1104.76 27.4494,1104.6 27.4217,1104.44 L 27.0928,1104.76 C 26.842,1105.01 26.4385,1105.01 26.1879,1104.76 25.9373,1104.51 25.9373,1104.1 26.1879,1103.85 L 27.0581,1103.02 26.1879,1102.19 C 25.9373,1101.94 25.9373,1101.54 26.1879,1101.29 26.4385,1101.04 26.8422,1101.04 27.0928,1101.29 L 27.4055,1101.59 C 27.5354,1100.82 27.7712,1100.08 28.0977,1099.4 L 27.565,1099.09 C 27.258,1098.91 27.1526,1098.52 27.33,1098.21 27.5072,1097.9 27.9021,1097.8 28.2066,1097.98 L 28.7365,1098.28 C 29.3218,1097.42 30.0628,1096.68 30.9181,1096.09 L 30.6179,1095.57 C 30.4405,1095.26 30.5457,1094.87 30.8529,1094.69 31.1592,1094.51 31.5522,1094.62 31.7296,1094.92 L 32.0263,1095.44 C 32.9452,1094.99 33.9568,1094.71 35.0234,1094.63 V 1093.96 C 35.0234,1093.6 35.3069,1093.31 35.6679,1093.31 Z M 31.815,1098.53 C 30.7535,1098.53 29.8899,1099.4 29.8899,1100.46 29.8899,1101.52 30.7535,1102.38 31.815,1102.38 32.8764,1102.38 33.7398,1101.52 33.7398,1100.46 33.7398,1099.4 32.8764,1098.53 31.815,1098.53 Z M 31.815,1099.82 C 32.1656,1099.82 32.4507,1100.11 32.4507,1100.46 32.4507,1100.81 32.1656,1101.09 31.815,1101.09 31.4644,1101.09 31.179,1100.81 31.179,1100.46 31.179,1100.11 31.4644,1099.82 31.815,1099.82 Z" />
    </g>
    <g id="inactive-center" transform="translate(-3.99995,-1092.65)" style="opacity:0.3" inkscape:label="inactive-center">
        <path id="active-center-3-3-6" style="display:inline;opacity:0;fill:#52e0e0;fill-opacity:1;stroke:none;stroke-width:0" d="M 46,1112.65 C 47,1112.65 48,1111.65 48,1110.65 V 1102.65 C 48,1097.65 43,1092.65 38,1092.65 H 28 C 27,1092.65 26,1093.65 26,1094.65 V 1102.65 C 26,1107.65 31,1112.65 36,1112.65 Z" />
        <path id="path1080-1" style="fill:#52e0e0;fill-opacity:1;stroke-width:0.0429688" d="M 35.6675,1093.31 C 36.0286,1093.31 36.3121,1093.6 36.3121,1093.96 V 1094.62 C 37.4355,1094.69 38.4498,1094.93 39.3723,1095.27 L 39.621,1094.84 C 39.7998,1094.54 40.1944,1094.43 40.5015,1094.61 40.81,1094.79 40.9158,1095.18 40.7375,1095.49 L 40.5645,1095.79 C 42.2152,1096.6 43.5459,1097.65 44.6894,1098.37 H 44.6914 C 44.7004,1098.37 44.7094,1098.38 44.7178,1098.38 44.8849,1098.3 47.2023,1097.18 47.0671,1097.25 47.2667,1097.15 47.5052,1097.16 47.6942,1097.28 47.8842,1097.4 48,1097.6 48,1097.83 V 1102.98 C 48,1103.21 47.8842,1103.41 47.6942,1103.53 47.5052,1103.65 47.2681,1103.66 47.0671,1103.56 46.9322,1103.49 44.6207,1102.38 44.75,1102.44 44.7314,1102.43 44.7107,1102.44 44.6914,1102.43 V 1102.44 C 44.5366,1102.38 44.3562,1102.4 44.2402,1102.53 44.1113,1102.65 44.0469,1102.82 44.0469,1102.99 44.0469,1104.13 43.8149,1105.22 43.4023,1106.21 43.3396,1106.35 43.2725,1106.5 43.2021,1106.64 L 43.7656,1106.96 C 44.0726,1107.14 44.178,1107.53 44.0006,1107.84 43.8228,1108.15 43.4294,1108.25 43.1239,1108.08 L 42.5523,1107.75 C 41.9642,1108.59 41.2268,1109.33 40.3776,1109.91 L 40.7126,1110.49 C 40.89,1110.79 40.7848,1111.19 40.4776,1111.36 40.1723,1111.54 39.7789,1111.44 39.601,1111.13 L 39.2663,1110.55 C 38.3604,1110.98 37.3644,1111.26 36.3125,1111.34 V 1112.01 C 36.3125,1112.37 36.016,1112.65 35.6679,1112.65 35.6566,1112.65 35.6454,1112.65 35.6343,1112.65 35.2895,1112.63 35.0234,1112.35 35.0234,1112 V 1111.34 C 33.9707,1111.25 32.9726,1110.98 32.0649,1110.54 L 31.7294,1111.12 C 31.552,1111.43 31.1587,1111.54 30.8527,1111.36 30.5458,1111.18 30.4405,1110.79 30.6178,1110.48 L 30.9536,1109.9 C 30.1044,1109.32 29.3675,1108.59 28.7819,1107.74 L 28.2066,1108.07 C 27.9012,1108.25 27.5078,1108.14 27.33,1107.84 27.1526,1107.53 27.258,1107.14 27.565,1106.96 L 28.1344,1106.63 C 27.8708,1106.09 27.6635,1105.51 27.521,1104.91 27.4825,1104.76 27.4494,1104.6 27.4217,1104.44 L 27.0928,1104.76 C 26.842,1105.01 26.4385,1105.01 26.1879,1104.76 25.9373,1104.51 25.9373,1104.1 26.1879,1103.85 L 27.0581,1103.02 26.1879,1102.19 C 25.9373,1101.94 25.9373,1101.54 26.1879,1101.29 26.4385,1101.04 26.8422,1101.04 27.0928,1101.29 L 27.4055,1101.59 C 27.5354,1100.82 27.7712,1100.08 28.0977,1099.4 L 27.565,1099.09 C 27.258,1098.91 27.1526,1098.52 27.33,1098.21 27.5072,1097.9 27.9021,1097.8 28.2066,1097.98 L 28.7365,1098.28 C 29.3218,1097.42 30.0628,1096.68 30.9181,1096.09 L 30.6179,1095.57 C 30.4405,1095.26 30.5457,1094.87 30.8529,1094.69 31.1592,1094.51 31.5522,1094.62 31.7296,1094.92 L 32.0263,1095.44 C 32.9452,1094.99 33.9568,1094.71 35.0234,1094.63 V 1093.96 C 35.0234,1093.6 35.3069,1093.31 35.6679,1093.31 Z M 31.815,1098.53 C 30.7535,1098.53 29.8899,1099.4 29.8899,1100.46 29.8899,1101.52 30.7535,1102.38 31.815,1102.38 32.8764,1102.38 33.7398,1101.52 33.7398,1100.46 33.7398,1099.4 32.8764,1098.53 31.815,1098.53 Z M 31.815,1099.82 C 32.1656,1099.82 32.4507,1100.11 32.4507,1100.46 32.4507,1100.81 32.1656,1101.09 31.815,1101.09 31.4644,1101.09 31.179,1100.81 31.179,1100.46 31.179,1100.11 31.4644,1099.82 31.815,1099.82 Z" />
    </g>
    <g id="deactivated-inactive-center" transform="translate(-3.99995,-1072.65)" inkscape:label="deactivated-inactive-center">
        <path id="active-center-3-3-9-9" style="display:inline;opacity:0;fill:#52e0e0;fill-opacity:1;stroke:none;stroke-width:0" d="M 46,1112.65 C 47,1112.65 48,1111.65 48,1110.65 V 1102.65 C 48,1097.65 43,1092.65 38,1092.65 H 28 C 27,1092.65 26,1093.65 26,1094.65 V 1102.65 C 26,1107.65 31,1112.65 36,1112.65 Z" />
        <path id="path1080-7-3" style="fill:#999999;fill-opacity:1;stroke-width:0.0429688;opacity:0.3" d="M 35.6675,1093.31 C 36.0286,1093.31 36.3121,1093.6 36.3121,1093.96 V 1094.62 C 37.4355,1094.69 38.4498,1094.93 39.3723,1095.27 L 39.621,1094.84 C 39.7998,1094.54 40.1944,1094.43 40.5015,1094.61 40.81,1094.79 40.9158,1095.18 40.7375,1095.49 L 40.5645,1095.79 C 42.2152,1096.6 43.5459,1097.65 44.6894,1098.37 H 44.6914 C 44.7004,1098.37 44.7094,1098.38 44.7178,1098.38 44.8849,1098.3 47.2023,1097.18 47.0671,1097.25 47.2667,1097.15 47.5052,1097.16 47.6942,1097.28 47.8842,1097.4 48,1097.6 48,1097.83 V 1102.98 C 48,1103.21 47.8842,1103.41 47.6942,1103.53 47.5052,1103.65 47.2681,1103.66 47.0671,1103.56 46.9322,1103.49 44.6207,1102.38 44.75,1102.44 44.7314,1102.43 44.7107,1102.44 44.6914,1102.43 V 1102.44 C 44.5366,1102.38 44.3562,1102.4 44.2402,1102.53 44.1113,1102.65 44.0469,1102.82 44.0469,1102.99 44.0469,1104.13 43.8149,1105.22 43.4023,1106.21 43.3396,1106.35 43.2725,1106.5 43.2021,1106.64 L 43.7656,1106.96 C 44.0726,1107.14 44.178,1107.53 44.0006,1107.84 43.8228,1108.15 43.4294,1108.25 43.1239,1108.08 L 42.5523,1107.75 C 41.9642,1108.59 41.2268,1109.33 40.3776,1109.91 L 40.7126,1110.49 C 40.89,1110.79 40.7848,1111.19 40.4776,1111.36 40.1723,1111.54 39.7789,1111.44 39.601,1111.13 L 39.2663,1110.55 C 38.3604,1110.98 37.3644,1111.26 36.3125,1111.34 V 1112.01 C 36.3125,1112.37 36.016,1112.65 35.6679,1112.65 35.6566,1112.65 35.6454,1112.65 35.6343,1112.65 35.2895,1112.63 35.0234,1112.35 35.0234,1112 V 1111.34 C 33.9707,1111.25 32.9726,1110.98 32.0649,1110.54 L 31.7294,1111.12 C 31.552,1111.43 31.1587,1111.54 30.8527,1111.36 30.5458,1111.18 30.4405,1110.79 30.6178,1110.48 L 30.9536,1109.9 C 30.1044,1109.32 29.3675,1108.59 28.7819,1107.74 L 28.2066,1108.07 C 27.9012,1108.25 27.5078,1108.14 27.33,1107.84 27.1526,1107.53 27.258,1107.14 27.565,1106.96 L 28.1344,1106.63 C 27.8708,1106.09 27.6635,1105.51 27.521,1104.91 27.4825,1104.76 27.4494,1104.6 27.4217,1104.44 L 27.0928,1104.76 C 26.842,1105.01 26.4385,1105.01 26.1879,1104.76 25.9373,1104.51 25.9373,1104.1 26.1879,1103.85 L 27.0581,1103.02 26.1879,1102.19 C 25.9373,1101.94 25.9373,1101.54 26.1879,1101.29 26.4385,1101.04 26.8422,1101.04 27.0928,1101.29 L 27.4055,1101.59 C 27.5354,1100.82 27.7712,1100.08 28.0977,1099.4 L 27.565,1099.09 C 27.258,1098.91 27.1526,1098.52 27.33,1098.21 27.5072,1097.9 27.9021,1097.8 28.2066,1097.98 L 28.7365,1098.28 C 29.3218,1097.42 30.0628,1096.68 30.9181,1096.09 L 30.6179,1095.57 C 30.4405,1095.26 30.5457,1094.87 30.8529,1094.69 31.1592,1094.51 31.5522,1094.62 31.7296,1094.92 L 32.0263,1095.44 C 32.9452,1094.99 33.9568,1094.71 35.0234,1094.63 V 1093.96 C 35.0234,1093.6 35.3069,1093.31 35.6679,1093.31 Z M 31.815,1098.53 C 30.7535,1098.53 29.8899,1099.4 29.8899,1100.46 29.8899,1101.52 30.7535,1102.38 31.815,1102.38 32.8764,1102.38 33.7398,1101.52 33.7398,1100.46 33.7398,1099.4 32.8764,1098.53 31.815,1098.53 Z M 31.815,1099.82 C 32.1656,1099.82 32.4507,1100.11 32.4507,1100.46 32.4507,1100.81 32.1656,1101.09 31.815,1101.09 31.4644,1101.09 31.179,1100.81 31.179,1100.46 31.179,1100.11 31.4644,1099.82 31.815,1099.82 Z" />
    </g>
</svg>
