<?xml version="1.0" encoding="UTF-8" standalone="no"?>
<svg version="1.1" id="svgmaximize" height="20" width="22" sodipodi:docname="alldesktops.svg" inkscape:version="1.3 (0e150ed6c4, 2023-07-21)" xmlns:inkscape="http://www.inkscape.org/namespaces/inkscape" xmlns:sodipodi="http://sodipodi.sourceforge.net/DTD/sodipodi-0.dtd" xmlns="http://www.w3.org/2000/svg" xmlns:svg="http://www.w3.org/2000/svg" xmlns:rdf="http://www.w3.org/1999/02/22-rdf-syntax-ns#" xmlns:cc="http://creativecommons.org/ns#" xmlns:dc="http://purl.org/dc/elements/1.1/">
    <sodipodi:namedview id="namedview14" pagecolor="#ffffff" bordercolor="#666666" borderopacity="1.0" inkscape:showpageshadow="2" inkscape:pageopacity="0.0" inkscape:pagecheckerboard="0" inkscape:deskcolor="#d1d1d1" showgrid="true" inkscape:zoom="5.9" inkscape:cx="30.339" inkscape:cy="52.4576" inkscape:current-layer="layer1">
        <inkscape:grid type="xygrid" id="grid7905" spacingx="22" spacingy="20" originx="0" originy="0" units="px" visible="true" />
    </sodipodi:namedview>
    <defs id="defs" />
    <metadata id="metadata4433">
        <rdf:RDF>
            <cc:Work rdf:about="">
                <dc:format>image/svg+xml</dc:format>
                <dc:type rdf:resource="http://purl.org/dc/dcmitype/StillImage" />
            </cc:Work>
        </rdf:RDF>
    </metadata>
    <g transform="translate(0,-1092.65)" id="layer1" style="display:inline" inkscape:label="layer1">
        <g id="active-center" style="display:inline;fill:#5299e0;fill-opacity:1" transform="translate(-26)" inkscape:label="active-center">
            <path id="active-center-3-3-75" style="display:inline;opacity:0;fill:#5299e0;fill-opacity:1;stroke:none;stroke-width:0" d="M 46,1112.65 C 47,1112.65 48,1111.65 48,1110.65 V 1102.65 C 48,1097.65 43,1092.65 38,1092.65 H 28 C 27,1092.65 26,1093.65 26,1094.65 V 1102.65 C 26,1107.65 31,1112.65 36,1112.65 Z" inkscape:label="pathsdfdgsfsf" />
            <path id="active-center-3-3-75-5" style="display:inline;opacity:1;fill:#5299e0;fill-opacity:1;stroke:none;stroke-width:0" d="M 61.1797,-23.5547 C 57.5292,-23.5269 55.1691,-21.418 53.4648,-19.0996 51.5944,-16.4754 51.2261,-13.5872 51.0293,-10.4023 52.9465,-7.84183 55.9694,-6 59,-6 H 69 C 70,-6 71,-6.9999 71,-8 V -9.24219 C 67.9166,-10.1875 64.2059,-11.0416 61.5762,-13.3613 60.521,-14.37 59.8935,-15.963 60.4609,-17.3809 60.6322,-18.3036 61.4158,-18.7334 61.9766,-19.3496 61.9326,-18.6514 62.9523,-18.3575 63.3223,-18.9238 63.4548,-19.6119 63.5413,-19.2415 63.8223,-18.8477 64.4045,-17.9567 65.8463,-17.904 66.4375,-18.8203 66.9322,-19.5351 66.6771,-20.3802 66.2715,-21.0957 65.3559,-22.711 63.2985,-23.4407 61.9277,-23.5332 61.6727,-23.5504 61.4231,-23.5565 61.1797,-23.5547 Z" transform="translate(-23,1118.65)" inkscape:label="pathsdfgfdfgs" />
        </g>
    </g>
</svg>
