<?xml version="1.0" encoding="UTF-8" standalone="no"?>
<svg version="1.1" id="svg4428" height="20" width="22" sodipodi:docname="close.svg" inkscape:version="1.3 (0e150ed6c4, 2023-07-21)" xmlns:inkscape="http://www.inkscape.org/namespaces/inkscape" xmlns:sodipodi="http://sodipodi.sourceforge.net/DTD/sodipodi-0.dtd" xmlns="http://www.w3.org/2000/svg" xmlns:svg="http://www.w3.org/2000/svg" xmlns:rdf="http://www.w3.org/1999/02/22-rdf-syntax-ns#" xmlns:cc="http://creativecommons.org/ns#" xmlns:dc="http://purl.org/dc/elements/1.1/">
    <sodipodi:namedview id="namedview13" pagecolor="#ffffff" bordercolor="#666666" borderopacity="1.0" inkscape:showpageshadow="2" inkscape:pageopacity="0.0" inkscape:pagecheckerboard="0" inkscape:deskcolor="#d1d1d1" showgrid="true" inkscape:zoom="5.65685" inkscape:cx="-12.9047" inkscape:cy="59.3086" inkscape:current-layer="svg4428">
        <inkscape:grid type="xygrid" id="grid15499" spacingx="22" spacingy="20" originx="0" originy="0" units="px" visible="true" />
    </sodipodi:namedview>
    <defs id="defs4430" />
    <metadata id="metadata1122">
        <rdf:RDF>
            <cc:Work rdf:about="">
                <dc:format>image/svg+xml</dc:format>
                <dc:type rdf:resource="http://purl.org/dc/dcmitype/StillImage" />
            </cc:Work>
        </rdf:RDF>
    </metadata>
    <g id="active-center" transform="matrix(1,0,0,0.99987,-30.3385,-8.93962)" style="display:inline" inkscape:label="active-center">
        <path id="active-center-3-1" style="display:inline;opacity:0;fill:#e05252;fill-opacity:1;stroke:none;stroke-width:0" d="M 50.3384,28.9434 C 51.3384,28.9434 52.3384,27.9433 52.3384,26.9431 V 18.9421 C 52.3384,13.9419 47.3384,8.94076 42.3384,8.94076 H 32.3384 C 31.3384,8.94076 30.3384,9.93689 30.3384,10.941 V 18.9421 C 30.3384,23.9423 35.3384,28.9434 40.3384,28.9434 Z" />
        <path id="path839-6-9" style="display:inline;fill:#e05252;fill-opacity:1;stroke:none;stroke-width:0.810169" d="M 39.0447,10.2035 C 37.6696,12.8309 36.524,9.97113 35.4384,11.2643 35.3624,9.93641 32.2554,9.27729 31.2787,10.981 29.7446,12.7721 29.9314,16.672 33.0086,18.103 32.4635,16.4411 33.0533,16.8595 33.0533,16.8595 36.4462,18.2293 36.6762,14.596 38.3647,15.3862 39.2989,15.8117 39.333,17.0149 38.6375,17.4726 37.8624,17.7377 35.9059,18.2926 35.2318,18.7643 35.971,19.1872 34.1794,20.0806 33.8186,20.8407 34.9597,20.7306 34.4164,22.703 34.9451,23.8251 35.6119,23.1451 35.7295,24.9063 36.9792,25.433 39.3466,26.6596 41.133,26.3829 42.1263,26.5136 42.6574,26.5834 43.0228,26.3187 41.6155,27.7892 40.6861,28.362 39.9235,26.405 38.9995,27.226 38.2703,27.9431 38.4666,28.687 39.3301,28.8751 39.7,28.9557 41.3047,28.9438 42.3157,28.9413 42.5795,28.685 42.596,28.9653 43.3163,28.9329 43.9062,28.9062 44.3,28.6619 43.9386,27.7447 43.3887,27.9339 42.5008,26.9809 44.5207,26.8249 51.39,30.2056 52.08,29.0205 52.29,25.9247 52.5225,22.4963 51.8978,20.1321 50.8304,20.3554 51.1749,19.7989 51.3487,19.8349 51.6571,19.3002 51.4336,18.9213 50.9003,19.5071 51.1205,18.8587 50.8986,18.4355 50.3483,18.9913 50.3042,18.3997 49.8603,18.3666 48.6876,18.8147 48.666,17.9065 43.0411,15.962 41.9693,21.7122 39.7382,20.1108 39.4438,19.8373 41.5257,18.4279 42.3724,17.5331 42.9736,16.8978 43.9571,16.3508 44.0869,16.2438 46.5587,14.6162 46.7794,11.72 45.3105,10.0687 44.4554,9.10741 43.8162,8.99739 42.316,8.9445 40.8989,8.89455 39.4562,9.34645 39.0447,10.2035 Z M 41.408,10.1253 C 41.6567,10.108 41.9136,10.1405 42.1639,10.2269 43.1651,10.5726 43.6989,11.6714 43.3544,12.6747 43.0098,13.6779 41.9143,14.212 40.9131,13.8663 39.912,13.5207 39.3801,12.4238 39.7247,11.4205 39.9831,10.668 40.6618,10.1773 41.408,10.1253 Z M 40.9404,11.8405 C 40.8266,12.1719 41.0013,12.5351 41.332,12.6493 41.6627,12.7635 42.0248,12.586 42.1386,12.2547 42.2524,11.9233 42.0378,11.5249 41.745,11.4459 41.2819,11.3039 40.9976,11.6648 40.9404,11.8405 Z" />
    </g>
</svg>
