<?xml version="1.0" encoding="UTF-8" standalone="no"?>
<svg version="1.1" id="svgmaximize" height="20" width="22" sodipodi:docname="keepbelow.svg" inkscape:version="1.3 (0e150ed6c4, 2023-07-21)" xmlns:inkscape="http://www.inkscape.org/namespaces/inkscape" xmlns:sodipodi="http://sodipodi.sourceforge.net/DTD/sodipodi-0.dtd" xmlns="http://www.w3.org/2000/svg" xmlns:svg="http://www.w3.org/2000/svg" xmlns:rdf="http://www.w3.org/1999/02/22-rdf-syntax-ns#" xmlns:cc="http://creativecommons.org/ns#" xmlns:dc="http://purl.org/dc/elements/1.1/">
    <sodipodi:namedview id="namedview7963" pagecolor="#ffffff" bordercolor="#666666" borderopacity="1.0" inkscape:showpageshadow="2" inkscape:pageopacity="0.0" inkscape:pagecheckerboard="0" inkscape:deskcolor="#d1d1d1" showgrid="true" inkscape:zoom="2.95" inkscape:cx="3.72881" inkscape:cy="93.3898" inkscape:current-layer="svgmaximize">
        <inkscape:grid type="xygrid" id="grid7965" spacingx="22" spacingy="20" originx="0" originy="0" units="px" visible="true" />
    </sodipodi:namedview>
    <defs id="defs" />
    <metadata id="metadata4433">
        <rdf:RDF>
            <cc:Work rdf:about="">
                <dc:format>image/svg+xml</dc:format>
                <dc:type rdf:resource="http://purl.org/dc/dcmitype/StillImage" />
            </cc:Work>
        </rdf:RDF>
    </metadata>
    <g id="active-center" style="fill:#52e099;fill-opacity:1" transform="matrix(1,0,0,0.999855,-53.3751,-1070.49)" inkscape:label="active-center">
        <path id="active-center-3-3" style="display:inline;opacity:0;fill:#52e099;fill-opacity:1;stroke:none;stroke-width:0" d="M 73.3751,1090.65 C 74.3751,1090.65 75.3751,1089.65 75.3751,1088.65 V 1080.65 C 75.3751,1075.65 70.3751,1070.65 65.3751,1070.65 H 55.3751 C 54.3751,1070.65 53.3751,1071.65 53.3751,1072.65 V 1080.65 C 53.3751,1085.65 58.3751,1090.65 63.3751,1090.65 Z" />
        <path id="Selection" style="stroke-width:1.04806" d="M 64.2989,1070.65 C 63.9038,1072 63.2209,1073.26 62.5568,1074.49 61.8856,1075.74 60.9827,1076.84 60.0157,1077.87 60.2154,1078.28 61.6419,1078.06 62.254,1077.83 61.8738,1078.98 61.285,1080.07 60.4864,1080.98 59.9684,1081.68 59.0606,1082.09 58.465,1082.57 59.3697,1083.06 60.4348,1082.96 61.4064,1082.77 60.7335,1084.28 59.5782,1085.51 58.3478,1086.59 57.8966,1087.09 56.8507,1087.57 56.7501,1087.98 58.3574,1088.69 60.1452,1088.98 61.8947,1088.92 62.4515,1088.9 63.0021,1088.84 63.5489,1088.76 63.3614,1089.5 63.2173,1089.74 62.7091,1090.47 63.722,1090.85 66.1193,1090.52 66.1193,1090.52 66.1193,1090.52 65.4666,1089.2 65.4513,1088.38 67.1762,1087.98 68.8812,1087.47 70.6154,1087.13 70.9917,1086.96 72.1467,1087.05 71.9845,1086.79 70.0771,1085.97 68.4138,1084.56 67.4064,1082.73 67.843,1082.86 69.3827,1083.27 70.1954,1082.75 71.2381,1082.37 70.1101,1082.18 69.6505,1081.88 68.1199,1080.96 66.896,1079.5 66.2247,1077.84 66.6255,1078 68.1239,1078.22 68.6427,1077.75 67.0509,1076.52 66.0343,1074.72 65.2443,1072.9 64.9039,1072.16 64.6631,1071.38 64.2989,1070.65 Z" />
    </g>
</svg>
