<?xml version="1.0" encoding="UTF-8" standalone="no"?>
<svg version="1.1" id="svgmaximize" height="20" width="22" sodipodi:docname="keepabove.svg" inkscape:version="1.3 (0e150ed6c4, 2023-07-21)" xmlns:inkscape="http://www.inkscape.org/namespaces/inkscape" xmlns:sodipodi="http://sodipodi.sourceforge.net/DTD/sodipodi-0.dtd" xmlns="http://www.w3.org/2000/svg" xmlns:svg="http://www.w3.org/2000/svg" xmlns:rdf="http://www.w3.org/1999/02/22-rdf-syntax-ns#" xmlns:cc="http://creativecommons.org/ns#" xmlns:dc="http://purl.org/dc/elements/1.1/">
    <sodipodi:namedview id="namedview14" pagecolor="#ffffff" bordercolor="#666666" borderopacity="1.0" inkscape:showpageshadow="2" inkscape:pageopacity="0.0" inkscape:pagecheckerboard="0" inkscape:deskcolor="#d1d1d1" showgrid="true" inkscape:zoom="8.34386" inkscape:cx="10.7864" inkscape:cy="43.4451" inkscape:current-layer="svgmaximize">
        <inkscape:grid type="xygrid" id="grid120" spacingx="22" spacingy="20" originx="0" originy="0" units="px" visible="true" />
    </sodipodi:namedview>
    <defs id="defs" />
    <metadata id="metadata4433">
        <rdf:RDF>
            <cc:Work rdf:about="">
                <dc:format>image/svg+xml</dc:format>
                <dc:type rdf:resource="http://purl.org/dc/dcmitype/StillImage" />
            </cc:Work>
        </rdf:RDF>
    </metadata>
    <g id="active-center" style="fill:#e09952;fill-opacity:1" transform="translate(-58.9904,-1066.65)">
        <path id="path-3-3" style="display:inline;opacity:0;fill:#e09952;fill-opacity:1;stroke:none;stroke-width:0" d="M 78.9904,1086.65 C 79.9904,1086.65 80.9904,1085.65 80.9904,1084.65 V 1076.65 C 80.9904,1071.65 75.9904,1066.65 70.9904,1066.65 H 60.9904 C 59.9904,1066.65 58.9904,1067.65 58.9904,1068.65 V 1076.65 C 58.9904,1081.65 63.9904,1086.65 68.9904,1086.65 Z" />
        <path id="Selection" style="fill:#e09952;fill-opacity:1;stroke:none;stroke-width:1.00048" d="M 70.0387,1066.65 C 70.6298,1067.63 71.1967,1068.63 71.7568,1069.62 H 68.3398 C 68.8957,1068.63 69.4701,1067.64 70.0387,1066.65 Z M 73.7452,1070.43 C 74.8443,1070.14 75.9419,1069.84 77.0464,1069.57 76.7567,1070.67 76.4629,1071.77 76.1583,1072.86 75.3531,1072.05 74.524,1071.27 73.7452,1070.43 Z M 62.8765,1069.62 C 63.9846,1069.91 65.0933,1070.2 66.197,1070.51 65.3801,1071.31 64.6023,1072.15 63.7645,1072.92 63.4716,1071.82 63.1742,1070.72 62.8765,1069.62 Z M 69.5367,1070.61 C 71.6276,1070.46 73.7683,1071.42 74.9622,1073.16 76.8102,1075.66 76.2697,1079.52 73.7991,1081.4 71.5206,1083.3 67.8665,1083.13 65.773,1081.03 63.5991,1079 63.3133,1075.36 65.1401,1073.02 66.1698,1071.63 67.8144,1070.74 69.5367,1070.61 Z M 60,1076.6 C 60.9836,1076.04 61.9587,1075.45 62.9537,1074.91 V 1078.32 C 61.9622,1077.76 60.9615,1077.21 60,1076.6 Z M 77.0463,1075 C 78.0378,1075.56 79.0383,1076.11 80,1076.72 79.0176,1077.29 78.0411,1077.87 77.0463,1078.42 Z M 76.1969,1080.4 C 76.1967,1080.41 76.8459,1082.68 77.1236,1083.7 76.0129,1083.42 74.9095,1083.11 73.8031,1082.82 74.5974,1082.01 75.4002,1081.21 76.1969,1080.4 Z M 63.8224,1080.48 C 64.6687,1081.24 65.4629,1082.07 66.2548,1082.89 65.1529,1083.18 64.0544,1083.48 62.9537,1083.78 63.2335,1082.68 63.5375,1081.58 63.8224,1080.48 Z M 68.2432,1083.7 H 71.6602 C 71.0962,1084.69 70.5541,1085.69 69.9421,1086.65 69.3711,1085.67 68.7942,1084.69 68.2432,1083.7 Z" />
    </g>
</svg>
