<?xml version="1.0" encoding="UTF-8" standalone="no"?>
<svg version="1.1" id="svgmaximize" height="20" width="22" sodipodi:docname="maximize.svg" inkscape:version="1.3 (0e150ed6c4, 2023-07-21)" xmlns:inkscape="http://www.inkscape.org/namespaces/inkscape" xmlns:sodipodi="http://sodipodi.sourceforge.net/DTD/sodipodi-0.dtd" xmlns="http://www.w3.org/2000/svg" xmlns:svg="http://www.w3.org/2000/svg" xmlns:rdf="http://www.w3.org/1999/02/22-rdf-syntax-ns#" xmlns:cc="http://creativecommons.org/ns#" xmlns:dc="http://purl.org/dc/elements/1.1/">
    <sodipodi:namedview id="namedview18547" pagecolor="#ffffff" bordercolor="#666666" borderopacity="1.0" inkscape:showpageshadow="2" inkscape:pageopacity="0.0" inkscape:pagecheckerboard="0" inkscape:deskcolor="#d1d1d1" showgrid="true" inkscape:zoom="5.9" inkscape:cx="26.7797" inkscape:cy="42.7966" inkscape:current-layer="svgmaximize">
        <inkscape:grid type="xygrid" id="grid18549" spacingx="22" spacingy="20" originx="0" originy="0" units="px" visible="true" />
    </sodipodi:namedview>
    <defs id="defs" />
    <metadata id="metadata4433">
        <rdf:RDF>
            <cc:Work rdf:about="">
                <dc:format>image/svg+xml</dc:format>
                <dc:type rdf:resource="http://purl.org/dc/dcmitype/StillImage" />
            </cc:Work>
        </rdf:RDF>
    </metadata>
    <g id="active-center" transform="translate(-26,-1092.65)" inkscape:label="active-center">
        <path id="active-center-3-3" style="display:inline;opacity:0;fill:#52e0e0;fill-opacity:1;stroke:none;stroke-width:0" d="M 46,1112.65 C 47,1112.65 48,1111.65 48,1110.65 V 1102.65 C 48,1097.65 43,1092.65 38,1092.65 H 28 C 27,1092.65 26,1093.65 26,1094.65 V 1102.65 C 26,1107.65 31,1112.65 36,1112.65 Z" />
        <path id="path1080" style="fill:#52e0e0;fill-opacity:1;stroke-width:0.0429688" d="M 35.6675,1093.31 C 36.0286,1093.31 36.3121,1093.6 36.3121,1093.96 V 1094.62 C 37.4355,1094.69 38.4498,1094.93 39.3723,1095.27 L 39.621,1094.84 C 39.7998,1094.54 40.1944,1094.43 40.5015,1094.61 40.81,1094.79 40.9158,1095.18 40.7375,1095.49 L 40.5645,1095.79 C 42.2152,1096.6 43.5459,1097.65 44.6894,1098.37 H 44.6914 C 44.7004,1098.37 44.7094,1098.38 44.7178,1098.38 44.8849,1098.3 47.2023,1097.18 47.0671,1097.25 47.2667,1097.15 47.5052,1097.16 47.6942,1097.28 47.8842,1097.4 48,1097.6 48,1097.83 V 1102.98 C 48,1103.21 47.8842,1103.41 47.6942,1103.53 47.5052,1103.65 47.2681,1103.66 47.0671,1103.56 46.9322,1103.49 44.6207,1102.38 44.75,1102.44 44.7314,1102.43 44.7107,1102.44 44.6914,1102.43 V 1102.44 C 44.5366,1102.38 44.3562,1102.4 44.2402,1102.53 44.1113,1102.65 44.0469,1102.82 44.0469,1102.99 44.0469,1104.13 43.8149,1105.22 43.4023,1106.21 43.3396,1106.35 43.2725,1106.5 43.2021,1106.64 L 43.7656,1106.96 C 44.0726,1107.14 44.178,1107.53 44.0006,1107.84 43.8228,1108.15 43.4294,1108.25 43.1239,1108.08 L 42.5523,1107.75 C 41.9642,1108.59 41.2268,1109.33 40.3776,1109.91 L 40.7126,1110.49 C 40.89,1110.79 40.7848,1111.19 40.4776,1111.36 40.1723,1111.54 39.7789,1111.44 39.601,1111.13 L 39.2663,1110.55 C 38.3604,1110.98 37.3644,1111.26 36.3125,1111.34 V 1112.01 C 36.3125,1112.37 36.016,1112.65 35.6679,1112.65 35.6566,1112.65 35.6454,1112.65 35.6343,1112.65 35.2895,1112.63 35.0234,1112.35 35.0234,1112 V 1111.34 C 33.9707,1111.25 32.9726,1110.98 32.0649,1110.54 L 31.7294,1111.12 C 31.552,1111.43 31.1587,1111.54 30.8527,1111.36 30.5458,1111.18 30.4405,1110.79 30.6178,1110.48 L 30.9536,1109.9 C 30.1044,1109.32 29.3675,1108.59 28.7819,1107.74 L 28.2066,1108.07 C 27.9012,1108.25 27.5078,1108.14 27.33,1107.84 27.1526,1107.53 27.258,1107.14 27.565,1106.96 L 28.1344,1106.63 C 27.8708,1106.09 27.6635,1105.51 27.521,1104.91 27.4825,1104.76 27.4494,1104.6 27.4217,1104.44 L 27.0928,1104.76 C 26.842,1105.01 26.4385,1105.01 26.1879,1104.76 25.9373,1104.51 25.9373,1104.1 26.1879,1103.85 L 27.0581,1103.02 26.1879,1102.19 C 25.9373,1101.94 25.9373,1101.54 26.1879,1101.29 26.4385,1101.04 26.8422,1101.04 27.0928,1101.29 L 27.4055,1101.59 C 27.5354,1100.82 27.7712,1100.08 28.0977,1099.4 L 27.565,1099.09 C 27.258,1098.91 27.1526,1098.52 27.33,1098.21 27.5072,1097.9 27.9021,1097.8 28.2066,1097.98 L 28.7365,1098.28 C 29.3218,1097.42 30.0628,1096.68 30.9181,1096.09 L 30.6179,1095.57 C 30.4405,1095.26 30.5457,1094.87 30.8529,1094.69 31.1592,1094.51 31.5522,1094.62 31.7296,1094.92 L 32.0263,1095.44 C 32.9452,1094.99 33.9568,1094.71 35.0234,1094.63 V 1093.96 C 35.0234,1093.6 35.3069,1093.31 35.6679,1093.31 Z M 31.815,1098.53 C 30.7535,1098.53 29.8899,1099.4 29.8899,1100.46 29.8899,1101.52 30.7535,1102.38 31.815,1102.38 32.8764,1102.38 33.7398,1101.52 33.7398,1100.46 33.7398,1099.4 32.8764,1098.53 31.815,1098.53 Z M 31.815,1099.82 C 32.1656,1099.82 32.4507,1100.11 32.4507,1100.46 32.4507,1100.81 32.1656,1101.09 31.815,1101.09 31.4644,1101.09 31.179,1100.81 31.179,1100.46 31.179,1100.11 31.4644,1099.82 31.815,1099.82 Z" />
    </g>
</svg>
