<?xml version="1.0" encoding="UTF-8" standalone="no"?>
<svg width="22" height="20" viewBox="0 0 5.82085 5.29167" version="1.1" id="svgminimize" sodipodi:docname="minimize.svg" inkscape:version="1.3 (0e150ed6c4, 2023-07-21)" xmlns:inkscape="http://www.inkscape.org/namespaces/inkscape" xmlns:sodipodi="http://sodipodi.sourceforge.net/DTD/sodipodi-0.dtd" xmlns="http://www.w3.org/2000/svg" xmlns:svg="http://www.w3.org/2000/svg" xmlns:rdf="http://www.w3.org/1999/02/22-rdf-syntax-ns#" xmlns:cc="http://creativecommons.org/ns#" xmlns:dc="http://purl.org/dc/elements/1.1/">
    <sodipodi:namedview id="namedview21616" pagecolor="#ffffff" bordercolor="#666666" borderopacity="1.0" inkscape:showpageshadow="2" inkscape:pageopacity="0.0" inkscape:pagecheckerboard="0" inkscape:deskcolor="#d1d1d1" showgrid="true" inkscape:zoom="4.17193" inkscape:cx="-11.5055" inkscape:cy="54.7708" inkscape:current-layer="svgminimize">
        <inkscape:grid type="xygrid" id="grid21618" spacingx="5.82083" spacingy="5.29167" originx="0" originy="0" units="px" visible="true" />
    </sodipodi:namedview>
    <defs id="defs1064" />
    <metadata id="metadata1067">
        <rdf:RDF>
            <cc:Work rdf:about="">
                <dc:format>image/svg+xml</dc:format>
                <dc:type rdf:resource="http://purl.org/dc/dcmitype/StillImage" />
            </cc:Work>
        </rdf:RDF>
    </metadata>
    <g id="active-center" transform="translate(-6.87916,0.001371)" inkscape:label="active-center">
        <path id="active-center-1-1" style="display:inline;opacity:0;fill:#dfe052;fill-opacity:1;stroke:none;stroke-width:0" d="M 46,1112.65 C 47,1112.65 48,1111.65 48,1110.65 V 1102.65 C 48,1097.65 43,1092.65 38,1092.65 H 28 C 27,1092.65 26,1093.65 26,1094.65 V 1102.65 C 26,1107.65 31,1112.65 36,1112.65 Z" transform="matrix(0.264583,0,0,0.264583,0,-289.098)" />
        <path id="Selection-3" style="fill:#dfe052;fill-opacity:1;stroke:none;stroke-width:0.264583" d="M 8.63438,9.78833e-5 C 8.50689,-0.002732 8.37353,0.055677 8.27161,0.191817 8.04033,0.50085 8.16101,0.789617 8.29538,1.10649 8.17299,1.13524 7.80116,1.3015 7.68508,1.36487 7.48298,1.47529 7.17848,1.65779 7.01122,1.80981 6.91235,1.89954 6.83734,2.04112 6.90529,2.17309 6.95843,2.2761 7.06049,2.30764 7.16263,2.34052 L 7.81582,2.53173 C 8.05473,2.62864 8.17948,2.76872 8.34499,2.95754 8.54949,3.19078 8.65562,3.28021 8.75013,3.58903 8.79652,3.73995 8.6951,4.06596 8.57598,4.16832 8.49083,4.24149 8.3457,4.25827 8.31347,4.37347 8.29126,4.45296 8.35186,4.52144 8.42612,4.54039 8.5348,4.56783 8.68687,4.50906 8.77442,4.44634 L 9.33459,3.85051 C 9.52189,3.63795 9.58572,3.5274 9.88495,3.52392 10.1267,3.52112 10.3257,3.53352 10.5598,3.60557 L 10.7779,3.69962 11.2135,3.85309 C 11.3553,3.90775 11.4482,3.96615 11.6053,4.00296 11.5728,4.07047 11.5139,4.18527 11.4662,4.24015 11.3874,4.33097 10.9624,4.5911 10.843,4.64271 L 10.6255,4.71092 C 10.4162,4.78039 10.3297,4.82986 10.1025,4.83029 10.0354,4.83029 9.89914,4.83919 9.84361,4.80807 9.67265,4.71246 9.75767,4.48519 9.87048,4.38174 9.98699,4.27481 10.2091,4.22095 10.364,4.22051 10.3261,4.33507 10.2736,4.42378 10.1464,4.43859 L 10.1247,4.5037 C 10.3427,4.50303 10.4698,4.4813 10.6064,4.29182 10.7769,4.05553 10.5232,3.87766 10.2989,3.87221 9.97482,3.86441 9.55151,4.10798 9.38731,4.38587 9.19914,4.70405 9.28213,5.06416 9.64517,5.19874 9.79414,5.25384 9.92553,5.24596 10.0808,5.24422 10.2481,5.24222 10.5253,5.1696 10.6906,5.12278 11.3023,4.94943 12.0348,4.55576 12.3887,4.01174 12.439,3.93443 12.5299,3.66772 12.5639,3.56732 12.803,2.85822 12.759,2.00954 12.1716,1.48011 12.0079,1.33246 11.7947,1.19869 11.6053,1.08479 11.4574,0.995927 11.3211,0.908409 11.1479,0.877048 11.012,0.852659 10.8658,0.872148 10.7345,0.911154 10.4353,0.999794 10.2838,1.07222 10.0157,1.22793 9.95406,1.26365 9.79316,1.37754 9.7263,1.35402 9.66292,1.33159 9.58263,1.24456 9.59918,1.1716 9.61377,1.10801 9.71987,1.01285 9.76299,0.954045 9.83704,0.852995 9.88875,0.708532 9.89942,0.583525 9.92207,0.317831 9.64627,-0.028041 9.3625,0.080197 9.20395,0.140527 9.13514,0.31667 9.05761,0.452784 9.04427,0.180012 8.84687,0.004822 8.63438,9.85833e-5 Z M 8.73101,1.33903 C 9.01185,1.33903 9.24054,1.56768 9.24054,1.84856 9.24054,2.12942 9.01185,2.35809 8.73101,2.35809 8.45016,2.35809 8.222,2.12942 8.222,1.84856 8.222,1.56768 8.45016,1.33903 8.73101,1.33903 Z M 8.73101,1.6801 C 8.63824,1.6801 8.56306,1.7558 8.56306,1.84856 8.56306,1.94133 8.63824,2.01703 8.73101,2.01703 8.82378,2.01703 8.89948,1.94132 8.89948,1.84856 8.89948,1.7558 8.82379,1.6801 8.73101,1.6801 Z" />
    </g>
</svg>
