<?xml version="1.0" encoding="UTF-8" standalone="no"?>
<svg version="1.1" id="svgmaximize" height="20" width="22" sodipodi:docname="restore.svg" inkscape:version="1.3 (0e150ed6c4, 2023-07-21)" xmlns:inkscape="http://www.inkscape.org/namespaces/inkscape" xmlns:sodipodi="http://sodipodi.sourceforge.net/DTD/sodipodi-0.dtd" xmlns="http://www.w3.org/2000/svg" xmlns:svg="http://www.w3.org/2000/svg" xmlns:rdf="http://www.w3.org/1999/02/22-rdf-syntax-ns#" xmlns:cc="http://creativecommons.org/ns#" xmlns:dc="http://purl.org/dc/elements/1.1/">
    <sodipodi:namedview id="namedview25384" pagecolor="#ffffff" bordercolor="#666666" borderopacity="1.0" inkscape:showpageshadow="2" inkscape:pageopacity="0.0" inkscape:pagecheckerboard="0" inkscape:deskcolor="#d1d1d1" showgrid="true" inkscape:zoom="4.17193" inkscape:cx="17.2582" inkscape:cy="49.2578" inkscape:current-layer="svgmaximize">
        <inkscape:grid type="xygrid" id="grid25386" spacingx="22" spacingy="20" originx="0" originy="0" units="px" visible="true" />
    </sodipodi:namedview>
    <defs id="defs" />
    <metadata id="metadata4433">
        <rdf:RDF>
            <cc:Work rdf:about="">
                <dc:format>image/svg+xml</dc:format>
                <dc:type rdf:resource="http://purl.org/dc/dcmitype/StillImage" />
            </cc:Work>
        </rdf:RDF>
    </metadata>
    <g id="active-center" style="display:inline" transform="translate(-26,-1092.65)" inkscape:label="active-center">
        <path id="active-center-1" style="display:inline;opacity:0;fill:#52e0e0;fill-opacity:1;stroke:none;stroke-width:0" d="M 46,1112.65 C 47,1112.65 48,1111.65 48,1110.65 V 1102.65 C 48,1097.65 43,1092.65 38,1092.65 H 28 C 27,1092.65 26,1093.65 26,1094.65 V 1102.65 C 26,1107.65 31,1112.65 36,1112.65 Z" />
        <path id="Selection-3" style="fill:#52e0e0;fill-opacity:1" d="M 34.7832,4.91406 C 33.105,4.97006 31.2569,5.37784 29.9297,6.08594 29.3845,6.37744 28.4321,7.06846 27.9531,7.47266 27.2205,8.09086 25.9792,9.22678 26.0703,10.2715 26.1314,10.9749 27.1966,12.0192 27.6953,12.5059 29.3144,14.0854 32.0384,15.2578 34.3145,15.2578 H 35.8633 C 37.331,15.2408 39.2763,14.5199 40.5059,13.7383 L 42.0547,12.627 C 42.2473,12.4731 42.5796,12.1683 42.8281,12.1562 43.111,12.1412 43.7759,12.652 44.0313,12.8223 44.7415,13.2943 45.7283,13.9198 46.5254,14.1992 46.902,14.3291 47.6251,14.5716 47.9355,14.1992 47.9639,14.1654 47.9825,14.1278 48,14.0898 V 13.5332 C 47.9361,13.3149 47.8282,13.0963 47.75,12.9375 47.4336,12.2926 46.6572,10.8519 46.6211,10.1855 46.5772,9.38675 47.4249,7.92038 47.793,7.17578 47.864,7.03272 47.9436,6.84985 48,6.66406 V 6.06445 C 47.968,6.00034 47.9274,5.93904 47.8633,5.88672 47.4927,5.58402 46.7422,5.82425 46.3535,5.99805 45.4008,6.42365 44.8739,6.79745 44.0313,7.37695 43.8128,7.52745 43.233,7.99 43,8 42.7618,8.01 42.4879,7.74411 42.3125,7.59961 41.8147,7.18951 41.4901,6.9552 40.9355,6.625 39.43,5.729 38.0986,5.25766 36.3789,4.97656 35.8826,4.91456 35.3426,4.89506 34.7832,4.91406 Z M 31.9941,7.3457 C 33.0556,7.3457 33.9199,8.20988 33.9199,9.27148 33.9199,10.333 33.0556,11.1973 31.9941,11.1973 30.9327,11.1973 30.0703,10.333 30.0703,9.27148 30.0703,8.20988 30.9327,7.3457 31.9941,7.3457 Z M 31.9941,8.63477 C 31.6435,8.63477 31.3594,8.92088 31.3594,9.27148 31.3594,9.62208 31.6435,9.9082 31.9941,9.9082 32.3448,9.9082 32.6309,9.62208 32.6309,9.27148 32.6309,8.92088 32.3448,8.63477 31.9941,8.63477 Z" transform="translate(0,1092.65)" />
    </g>
</svg>
