<?xml version="1.0" encoding="UTF-8" standalone="no"?>
<!-- Created with Inkscape (http://www.inkscape.org/) -->

<svg width="256" height="256" viewBox="0 0 256 256" version="1.1" id="svg1" xml:space="preserve" inkscape:version="1.3 (0e150ed6c4, 2023-07-21)" sodipodi:docname="root.face.svg" xmlns:inkscape="http://www.inkscape.org/namespaces/inkscape" xmlns:sodipodi="http://sodipodi.sourceforge.net/DTD/sodipodi-0.dtd" xmlns="http://www.w3.org/2000/svg" xmlns:svg="http://www.w3.org/2000/svg"><sodipodi:namedview id="namedview1" pagecolor="#ffffff" bordercolor="#666666" borderopacity="1.0" inkscape:showpageshadow="2" inkscape:pageopacity="0.0" inkscape:pagecheckerboard="0" inkscape:deskcolor="#d1d1d1" inkscape:document-units="px" inkscape:zoom="1.52158" inkscape:cx="254.341" inkscape:cy="223.452" inkscape:current-layer="layer1" /><defs id="defs1" /><g inkscape:label="Layer 1" inkscape:groupmode="layer" id="layer1"><path id="path25" style="display:inline;fill:#e05252;stroke-width:25.0899;stroke-linecap:round;stroke-linejoin:round;fill-opacity:1" d="M 125.507,0.005918 C 117.641,-0.168682 109.414,3.43702 103.127,11.8355 88.8589,30.9 96.3027,48.7132 104.593,68.2616 97.0423,70.0352 74.1061,80.2932 66.9447,84.2025 54.4769,91.0145 35.6919,102.273 25.3731,111.651 19.2741,117.187 14.6442,124.247 18.836,132.388 22.1147,138.742 28.4115,139.018 34.7133,141.047 L 73.2857,148.845 C 86.5943,151.051 95.1328,153.71 99.4913,159.27 99.5098,159.293 99.538,159.323 99.5566,159.346 104.157,165.643 109.922,171.027 116.535,175.196 117.713,175.971 118.9,176.704 120.097,177.337 H 120.099 C 128.759,182.062 138.684,184.749 149.24,184.749 155.667,184.749 161.858,183.746 167.675,181.901 167.679,181.9 167.684,181.899 167.688,181.898 192.783,174.093 211.004,150.685 211.004,123.022 211.004,102.28 200.749,83.9454 185.046,72.7716 186.156,71.2344 192.683,62.2033 195.135,58.8578 199.703,52.6239 202.894,43.7109 203.553,35.9992 204.95,19.6082 187.935,-1.73008 170.429,4.94712 160.647,8.66902 156.404,19.5362 151.622,27.9332 150.798,11.1055 138.618,0.297418 125.507,0.005918 Z M 131.473,82.6082 C 148.797,82.6082 162.904,96.713 162.904,114.041 162.904,131.367 148.797,145.476 131.473,145.476 114.143,145.476 100.068,131.367 100.068,114.041 100.068,96.713 114.143,82.6082 131.473,82.6082 Z M 131.473,103.647 C 125.748,103.647 121.108,108.318 121.108,114.041 121.108,119.764 125.748,124.435 131.473,124.435 137.196,124.435 141.863,119.763 141.863,114.041 141.863,108.318 137.197,103.647 131.473,103.647 Z M 79.0943,179.89 A 91.3331,91.3331 0 0 0 56.1083,240.377 V 256 H 238.775 V 240.377 A 91.3331,91.3331 0 0 0 217.851,182.249 90.5587,90.5587 0 0 1 149.356,213.58 90.5587,90.5587 0 0 1 79.0943,179.89 Z" /></g></svg>
